<svg width="21" height="24" viewBox="0 0 21 24" fill="none" xmlns="http://www.w3.org/2000/svg">
<path d="M3.46023 16.3453L10.2947 20.2811L10.2902 17.0835L6.22301 14.7465L3.46023 16.3453Z" fill="#1A1A1A"/>
<path d="M17.5596 7.65388L17.3512 7.5316L10.7296 3.71805V6.91563L14.7968 9.25268L17.5596 7.65388Z" fill="#1A1A1A"/>
<path d="M10.2769 3.71805L3.44691 7.672L6.21422 9.26627L10.2769 6.91563V3.71805Z" fill="#1A1A1A"/>
<path d="M18.0125 7.39158L20.7798 5.78826L10.7205 0L10.7296 3.19758L16.4544 6.49481L18.0125 7.39158Z" fill="#1A1A1A"/>
<path d="M3.23358 15.9566L5.99637 14.3532L5.99184 9.66104L3.21999 8.06677L3.22905 12.0117L3.23358 15.9566Z" fill="#1A1A1A"/>
<path d="M10.7565 24.0005L20.7976 18.1806L18.0303 16.5863L10.752 20.8029L10.7565 24.0005Z" fill="#1A1A1A"/>
<path d="M17.5777 16.3279L14.8103 14.7337L10.7477 17.0843L10.7522 20.2819L17.5777 16.3279Z" fill="#1A1A1A"/>
<path d="M0.240234 18.212L10.2995 24.0003L10.295 20.8027L3.00755 16.6087L0.240234 18.212Z" fill="#1A1A1A"/>
<path d="M10.2675 0L0.226387 5.81997L2.9937 7.4097L10.2721 3.19758L10.2675 0Z" fill="#1A1A1A"/>
<path d="M2.76731 7.8084L0 6.21414L0.0181166 17.8178L2.7809 16.2145L2.76731 7.8084Z" fill="#1A1A1A"/>
</svg>
