<svg width="219" height="44" viewBox="0 0 219 44" fill="none" xmlns="http://www.w3.org/2000/svg">
<path d="M6.34381 29.9673L18.8737 37.1829L18.8654 31.3207L11.4089 27.0361L6.34381 29.9673Z" fill="#77FBDE"/>
<path d="M32.1925 14.0328L31.8105 13.8086L19.6709 6.81714V12.6794L27.1274 16.964L32.1925 14.0328Z" fill="#77FBDE"/>
<path d="M18.8405 6.81714L6.31891 14.0661L11.3923 16.9889L18.8405 12.6794V6.81714Z" fill="#77FBDE"/>
<path d="M33.0229 13.5512L38.0963 10.6118L19.6543 0L19.6709 5.86224L30.1665 11.9072L33.0229 13.5512Z" fill="#77FBDE"/>
<path d="M5.92866 29.2529L10.9938 26.3135L10.9855 17.7111L5.90375 14.7883L5.92035 22.0206L5.92866 29.2529Z" fill="#77FBDE"/>
<path d="M19.7207 44L38.1295 33.33L33.0561 30.4072L19.7124 38.1377L19.7207 44Z" fill="#77FBDE"/>
<path d="M32.2257 29.934L27.1523 27.0112L19.7041 31.3207L19.7124 37.183L32.2257 29.934Z" fill="#77FBDE"/>
<path d="M0.440063 33.3882L18.882 44L18.8737 38.1377L5.51347 30.4487L0.440063 33.3882Z" fill="#77FBDE"/>
<path d="M18.8239 0L0.415161 10.6699L5.48857 13.5845L18.8322 5.86224L18.8239 0Z" fill="#77FBDE"/>
<path d="M5.07341 14.3151L0 11.3923L0.0332138 32.6658L5.09832 29.7264L5.07341 14.3151Z" fill="#77FBDE"/>
<path d="M70.862 24.0799C70.6378 24.6528 70.2144 25.6742 69.3425 26.7204C68.097 28.1652 66.1374 29.4273 63.2727 29.4273C58.6227 29.4273 55.0605 26.0146 55.0605 20.1441C55.0605 14.2735 58.9134 10.9688 63.3972 10.9688C68.8692 10.9688 70.1645 15.1703 70.5631 16.3909L67.2749 17.2628C67.2251 16.9389 67.0756 16.1916 66.6273 15.519C66.2536 14.971 65.2821 13.9746 63.4636 13.9746C60.6073 13.9746 58.6144 16.3411 58.6144 20.0942C58.6144 24.0965 60.7318 26.3135 63.4886 26.3135C65.1326 26.3135 66.1208 25.5164 66.8515 24.5947C67.4244 23.8225 67.6486 23.1748 67.7731 22.7763L70.8537 24.0716L70.862 24.0799Z" fill="#77FBDE"/>
<path d="M101.369 25.2922C102.116 26.2139 103.229 26.8865 104.948 26.8865C106.666 26.8865 107.414 26.0396 107.414 25.4168C107.414 24.6197 106.517 24.4204 106.127 24.3457C105.703 24.246 103.661 23.8724 103.212 23.7478C100.248 23.0503 99.7082 21.3398 99.7082 20.2188C99.7082 18.1015 101.618 16.1667 105.031 16.1667C106.916 16.1667 108.286 16.7646 109.133 17.3624C109.755 17.761 110.154 18.1845 110.403 18.4834L108.286 20.4513C107.937 19.7788 107.09 18.5581 104.906 18.5581C103.486 18.5581 102.839 19.1809 102.839 19.8286C102.839 20.7253 103.76 20.9744 105.346 21.2485C107.937 21.7218 108.651 21.8463 109.448 22.4691C110.22 23.0669 110.719 24.0633 110.719 25.1013C110.719 27.0443 108.975 29.3526 105.122 29.3526C102.905 29.3526 100.721 28.6551 99.1519 27.1356L101.369 25.3005V25.2922Z" fill="#77FBDE"/>
<path d="M124.071 16.5403V28.9789H121.09V27.7084C120.566 28.2066 119.346 29.2778 117.054 29.2778C115.011 29.2778 114.048 28.4059 113.6 27.833C112.753 26.7618 112.753 25.591 112.753 23.7311V16.5403H115.767V23.6813C115.767 24.1795 115.767 24.6029 115.867 24.9268C116.191 26.0228 117.087 26.4961 118.175 26.4961C119.421 26.4961 120.193 25.8235 120.591 25.1759C121.04 24.3538 121.065 23.5567 121.09 21.8213V16.5486H124.071V16.5403Z" fill="#77FBDE"/>
<path d="M129.991 11.4172V28.979H126.985V11.4172H129.991Z" fill="#77FBDE"/>
<path d="M160.905 16.5403V18.309C161.278 17.6613 162.1 16.1916 164.89 16.2746V19.3386C164.243 19.3635 163.122 19.3884 162.2 20.0859C160.93 21.0574 160.905 22.3278 160.905 24.3871V28.9872H158.023V16.5486H160.905V16.5403Z" fill="#77FBDE"/>
<path d="M179.812 16.5404H182.818V18.0101C182.967 17.7859 183.266 17.3874 183.789 17.0386C184.536 16.4906 185.682 16.1667 186.645 16.1667C188.065 16.1667 189.286 16.8144 189.909 17.6614C190.681 18.7076 190.681 20.0528 190.681 21.6636V28.979H187.717V22.6351C187.717 21.7135 187.717 21.0907 187.617 20.742C187.343 19.6459 186.546 19.073 185.574 19.073C184.603 19.073 183.706 19.6459 183.282 20.4679C182.809 21.3896 182.809 22.66 182.809 23.5817V28.979H179.803V16.5404H179.812Z" fill="#77FBDE"/>
<path d="M83.558 26.9612V20.3683C83.558 19.0231 83.5331 17.8524 82.0634 16.9639C80.9673 16.3162 79.5225 16.1667 78.3351 16.1667C77.538 16.1667 74.582 16.1667 73.3863 18.334C72.9877 19.0564 72.9379 19.5795 72.8881 20.2022L75.952 20.3766C75.952 20.0279 75.9271 19.6791 76.251 19.2805C76.5499 18.882 77.2225 18.4834 78.4597 18.4834C80.5272 18.4834 80.5771 19.7538 80.5771 20.3766V24.163C80.5771 24.5366 80.5771 24.9103 80.4027 25.2756C80.0789 26.0229 79.0077 26.7204 77.4882 26.7204C76.2925 26.7204 75.4704 26.2222 75.4704 25.2507C75.4704 23.9305 76.8903 23.6814 77.9615 23.5319C78.8167 23.3908 79.4063 23.2496 79.8713 23.0835V20.5925C79.2319 20.7752 78.6424 20.8997 76.716 21.2983C75.5203 21.5225 73.6022 21.921 72.7137 23.7063C72.4646 24.2045 72.3151 24.7774 72.3151 25.4002C72.3151 27.5425 74.009 29.2779 76.8156 29.2779C78.5344 29.2779 79.8464 28.5555 80.494 28.0075C80.494 28.1818 80.5438 28.6801 80.5688 28.979H84.0977C83.5497 28.2317 83.5497 27.9078 83.5497 26.9612H83.558Z" fill="#77FBDE"/>
<path d="M89.2043 23.4321C89.1794 23.1997 89.1628 22.9505 89.1711 22.6848C89.1711 22.5022 89.1877 22.3278 89.2043 22.1534V17.6696C89.2043 17.6696 89.2043 17.6696 89.2043 17.6779V16.532H86.24V33.0226H89.2043V27.9492V23.4155V23.4321Z" fill="#77FBDE"/>
<path d="M92.6087 16.1667C91.4296 16.1667 90.6076 16.5404 90.0347 16.9473V20.0196C90.6242 19.3304 91.413 19.0314 92.1603 19.0314C93.0571 19.0314 95.2243 19.6293 95.2243 22.7431C95.2243 25.5497 93.655 26.5461 92.2102 26.5461C91.3715 26.5461 90.591 26.2139 90.0347 25.558V28.6136C90.6574 29.0122 91.4961 29.3526 92.6087 29.3526C95.9384 29.3526 98.2551 26.5959 98.2551 22.8842C98.2551 19.4466 96.2623 16.1667 92.6087 16.1667Z" fill="#77FBDE"/>
<path d="M157.567 11.4172H144.68V14.3899H157.567V11.4172Z" fill="#77FBDE"/>
<path d="M152.717 15.0957H149.438V28.9791H152.717V15.0957Z" fill="#77FBDE"/>
<path d="M136.293 21.1654H141.3C141.026 19.2224 139.831 18.5581 138.51 18.5581C136.916 18.5581 135.82 19.4798 135.48 21.1654C135.396 21.5474 135.355 21.9293 135.347 22.3196C135.33 22.66 135.355 23.0171 135.396 23.3575C135.546 24.5034 136.202 25.6161 137.273 26.1143C137.788 26.3551 138.352 26.4464 138.917 26.4464C140.96 26.4464 141.774 25.2507 142.147 24.7276L144.688 26.1973C143.144 28.2649 141.159 29.3526 138.618 29.3526C135.363 29.3526 132.225 27.2934 132.225 22.7099C132.225 18.5332 134.907 16.1667 138.419 16.1667C141.707 16.1667 143.069 18.1347 143.318 18.5083C144.339 19.9531 144.563 22.112 144.58 23.3575H136.227C136.227 23.3575 136.16 23.1749 136.16 22.2864C136.16 21.6885 136.293 21.1654 136.293 21.1654Z" fill="#77FBDE"/>
<path d="M177.279 26.9612V20.3683C177.279 19.0231 177.254 17.8524 175.784 16.9639C174.688 16.3162 173.244 16.1667 172.048 16.1667C171.251 16.1667 168.286 16.1667 167.099 18.334C166.7 19.0564 166.651 19.5795 166.601 20.2022L169.665 20.3766C169.665 20.0279 169.64 19.6791 169.964 19.2805C170.263 18.882 170.935 18.4834 172.181 18.4834C174.248 18.4834 174.298 19.7538 174.298 20.3766V24.163C174.298 24.5366 174.298 24.9103 174.124 25.2756C173.8 26.0229 172.729 26.7204 171.218 26.7204C170.022 26.7204 169.2 26.2222 169.2 25.2507C169.2 23.9305 170.62 23.6814 171.691 23.5319C172.554 23.3908 173.136 23.2496 173.601 23.0835V20.5925C172.961 20.7752 172.372 20.8997 170.445 21.2983C169.25 21.5225 167.34 21.921 166.443 23.7063C166.194 24.2045 166.044 24.7774 166.044 25.4002C166.044 27.5425 167.738 29.2779 170.545 29.2779C172.264 29.2779 173.584 28.5555 174.223 28.0075C174.223 28.1818 174.273 28.6801 174.298 28.979H177.827C177.279 28.2317 177.279 27.9078 177.279 26.9612Z" fill="#77FBDE"/>
<path d="M194.575 25.3504C195.331 26.2804 196.46 26.9613 198.204 26.9613C199.947 26.9613 200.695 26.106 200.695 25.4749C200.695 24.6695 199.79 24.4702 199.383 24.3955C198.951 24.2958 196.892 23.9139 196.435 23.7893C193.438 23.0835 192.881 21.3481 192.881 20.2189C192.881 18.0766 194.816 16.1169 198.27 16.1169C200.188 16.1169 201.567 16.7231 202.422 17.3209C203.053 17.7278 203.452 18.1513 203.701 18.4585L201.567 20.4513C201.21 19.7705 200.354 18.5332 198.146 18.5332C196.709 18.5332 196.053 19.1643 196.053 19.8203C196.053 20.7254 196.983 20.9745 198.594 21.2568C201.21 21.7301 201.94 21.8546 202.746 22.4857C203.526 23.0918 204.033 24.0966 204.033 25.1594C204.033 27.119 202.272 29.4606 198.37 29.4606C196.128 29.4606 193.919 28.7548 192.325 27.2187L194.567 25.3587L194.575 25.3504Z" fill="#77FBDE"/>
<path d="M208.998 11.4836V14.531H206.001V11.4836H208.998ZM208.998 16.4906V29.0787H206.001V16.4906H208.998Z" fill="#77FBDE"/>
<path d="M216.048 18.6579V24.3458C216.048 25.9068 216.048 26.5877 217.484 26.5877C217.941 26.5877 218.315 26.5628 218.738 26.4382V28.9791C217.833 29.1286 217.227 29.1784 216.554 29.1784C215.923 29.1784 213.806 29.1784 213.225 27.6422C213.025 27.1357 213.025 26.3303 213.025 25.0765V18.6579H211.19V16.4907H213.025V12.0317H216.048V16.4907H218.746V18.6579H216.048Z" fill="#77FBDE"/>
</svg>
