<svg width="39" height="44" viewBox="0 0 39 44" fill="none" xmlns="http://www.w3.org/2000/svg">
<path d="M6.40234 29.9804L19.0645 37.1881V31.3223L11.5137 27.0283L6.40234 29.9676V29.9804Z" fill="#77FBDE"/>
<path d="M32.5008 14.0319L32.1136 13.8146L19.8516 6.82422V12.6773L27.3766 16.9712L32.4879 14.0319H32.5008Z" fill="#77FBDE"/>
<path d="M19.0123 6.82422L6.37598 14.0702L11.5131 16.984L19.0252 12.6773V6.82422H19.0123Z" fill="#77FBDE"/>
<path d="M33.3527 13.5591L38.464 10.6198L19.8516 0V5.86582L30.4743 11.9105L33.3656 13.5591H33.3527Z" fill="#77FBDE"/>
<path d="M5.9758 29.2525L11.1 26.326V17.7253L5.96289 14.7988V22.0321L5.9758 29.2525Z" fill="#77FBDE"/>
<path d="M19.9162 43.9997L38.5029 33.3416L33.3786 30.415L19.9033 38.1467V43.9997H19.9162Z" fill="#77FBDE"/>
<path d="M32.5399 29.9421L27.4156 27.0156L19.8906 31.3223V37.1882L32.5399 29.9421Z" fill="#77FBDE"/>
<path d="M0.452148 33.3934L19.0775 44.0004V38.1474L5.57638 30.4541L0.465056 33.3934H0.452148Z" fill="#77FBDE"/>
<path d="M19.0124 0.0126953L0.425781 10.6708L5.55002 13.5974L19.0253 5.86573V0.0126953H19.0124Z" fill="#77FBDE"/>
<path d="M5.12423 14.3259L0 11.3994L0.0258148 32.6774L5.15005 29.7381L5.12423 14.3259Z" fill="#77FBDE"/>
</svg>