<svg width="120" height="80" viewBox="0 0 120 80" fill="none" xmlns="http://www.w3.org/2000/svg">
<g clip-path="url(#clip0_907_12448)">
<path d="M64.7336 66.4659L14.2299 73.5637L9.14745 69.7338L2.04962 19.2301L5.87955 14.1476L56.3832 7.04982C58.3654 8.54349 59.4835 9.38607 61.4657 10.8797L68.5635 61.3834L64.7336 66.4659Z" fill="white" stroke="#1A1A1A" stroke-miterlimit="10"/>
<path d="M56.352 60.0702C60.4538 59.4937 63.3117 55.7012 62.7352 51.5994C62.1588 47.4975 58.3662 44.6397 54.2644 45.2162C50.1626 45.7926 47.3047 49.5851 47.8812 53.687C48.4577 57.7888 52.2502 60.6466 56.352 60.0702Z" stroke="#1A1A1A" stroke-miterlimit="10"/>
<path d="M5.59863 44.482L65.0147 36.1316" stroke="#1A1A1A" stroke-miterlimit="10"/>
<path d="M26.9995 24.5774L24.9573 23.842L22.2075 31.5446L23.7833 33.5953L26.9995 24.5774Z" fill="#1A1A1A"/>
<path d="M22.6988 28.4687L21.7769 30.9083L18.1238 25.8247L19.8917 24.5538L22.6988 28.4687Z" fill="#1A1A1A"/>
<path d="M48.4038 28.4083L47.7754 23.9373C47.6481 23.0312 47.5215 22.2386 46.4407 21.7694C45.6364 21.4356 44.6415 21.4694 43.8319 21.5832C43.2972 21.6584 41.2845 21.9412 40.6816 23.5255C40.4831 24.0533 40.4961 24.415 40.5248 24.8351L42.6137 24.6627C42.5803 24.4251 42.533 24.1969 42.7098 23.8918C42.8728 23.5963 43.2946 23.2568 44.1339 23.1388C45.5301 22.9426 45.6884 23.7989 45.7468 24.2148L46.1069 26.7771C46.1424 27.0296 46.1779 27.2822 46.0946 27.5514C45.9427 28.0877 45.2891 28.6643 44.2568 28.8094C43.4472 28.9232 42.8422 28.6598 42.7503 28.0062C42.6251 27.115 43.5591 26.8095 44.2724 26.6033C44.8455 26.4242 45.2256 26.2724 45.5219 26.1171L45.2839 24.4238C44.8709 24.6106 44.4813 24.7486 43.2117 25.1997C42.423 25.462 41.1619 25.9195 40.7305 27.2146C40.6077 27.5803 40.5654 27.9801 40.6249 28.4034C40.8284 29.8517 42.1382 30.8718 44.0469 30.6036C45.213 30.4397 46.0353 29.8242 46.4213 29.3913C46.438 29.5101 46.5147 29.8402 46.5662 30.045L48.9577 29.7089C48.5154 29.2561 48.484 29.0333 48.3943 28.3945" fill="#1A1A1A"/>
<path d="M33.36 29.4168C33.9612 29.9761 34.7909 30.329 35.9718 30.1631C37.1526 29.9971 37.5763 29.3468 37.5168 28.9235C37.4395 28.3739 36.8043 28.3268 36.5296 28.3124C36.2306 28.2863 34.7903 28.2236 34.4744 28.1847C32.38 27.9944 31.8352 26.8667 31.7277 26.1017C31.5242 24.6534 32.6509 23.1318 34.9904 22.803C36.2901 22.6204 37.2833 22.8973 37.92 23.2244C38.382 23.4397 38.6975 23.6907 38.8976 23.8747L37.6393 25.4299C37.3369 25.0029 36.6396 24.245 35.1319 24.4569C34.159 24.5937 33.7739 25.0871 33.8355 25.5252C33.9221 26.1417 34.5774 26.2238 35.6953 26.256C37.5163 26.3333 38.0254 26.3451 38.6281 26.6997C39.2128 27.0341 39.6505 27.6693 39.7517 28.3897C39.9386 29.7192 38.9662 31.4766 36.3222 31.8482C34.8071 32.0611 33.24 31.7967 32.0159 30.9008L33.361 29.4242L33.36 29.4168Z" fill="#1A1A1A"/>
<path d="M29.6771 22.4516L27.6496 22.7365L27.3594 20.6718L29.3869 20.3869L29.6771 22.4516ZM31.0633 32.3146L29.0357 32.5996L27.8364 24.066L29.864 23.781L31.0633 32.3146Z" fill="#1A1A1A"/>
<path d="M46.5312 12.8802L54.0251 11.827L57.5151 14.4569L58.5599 21.8913" stroke="#1A1A1A" stroke-miterlimit="10"/>
<path d="M16.8902 17.046L9.39635 18.0992L6.76647 21.5892L7.81131 29.0236" stroke="#1A1A1A" stroke-miterlimit="10"/>
<path d="M16.4408 49.9564L13.9842 51.877L14.4184 54.9666L17.3093 56.1357L19.7659 54.2151L19.3316 51.1255L16.4408 49.9564Z" stroke="#1A1A1A" stroke-miterlimit="10"/>
<path d="M19.4704 56.8544L23.4173 59.1247L24.1855 64.591L13.0301 66.1588L12.2619 60.6925L15.4375 57.4212" stroke="#1A1A1A" stroke-miterlimit="10"/>
<path d="M27.438 48.9864L42.292 46.8988" stroke="#1A1A1A" stroke-miterlimit="10"/>
<path d="M28.1343 53.9402L42.9883 51.8526" stroke="#1A1A1A" stroke-miterlimit="10"/>
<path d="M28.8296 58.8866L43.6836 56.799" stroke="#1A1A1A" stroke-miterlimit="10"/>
<path d="M29.5259 63.8404L44.3799 61.7528" stroke="#1A1A1A" stroke-miterlimit="10"/>
<path d="M51.6991 53.9077L54.2478 55.8217L58.6043 49.1504" stroke="#1A1A1A" stroke-miterlimit="10"/>
</g>
<g clip-path="url(#clip1_907_12448)">
<path d="M114.859 54.7617L109.729 41.1417V24.2592H111.237L115.602 36.0042L118.047 42.7542" stroke="#1A1A1A" stroke-miterlimit="10"/>
<path d="M105.732 11.4043L101.607 13.7968V18.5818L105.732 20.9743L109.865 18.5818V13.7968L105.732 11.4043Z" stroke="#1A1A1A" stroke-miterlimit="10"/>
<path d="M114.86 54.7619V72.0494" stroke="#1A1A1A" stroke-miterlimit="10"/>
<path d="M88.3096 65.3818L96.9196 54.7768V46.2868V29.7943" stroke="#1A1A1A" stroke-miterlimit="10"/>
<path d="M102.042 46.2868V56.4568L90.5596 70.9468" stroke="#1A1A1A" stroke-miterlimit="10"/>
<path d="M110.105 72.0493V57.3419L107.172 46.6768" stroke="#1A1A1A" stroke-miterlimit="10"/>
<path d="M82.9263 45.7481L87.8424 50.6643C89.0145 51.8363 89.0145 53.7349 87.8424 54.9069L75.6554 67.0939C74.4834 68.266 72.5848 68.266 71.4128 67.0939L66.4966 62.1778L82.9263 45.7481Z" fill="white" stroke="#1A1A1A" stroke-miterlimit="10"/>
<path d="M66.4878 62.1727L65.7718 61.4568C65.1991 60.884 65.1991 59.9506 65.7718 59.3779L80.1226 45.0271C80.6953 44.4544 81.6287 44.4544 82.2015 45.0271L82.9174 45.7431L66.4878 62.1727Z" fill="white" stroke="#1A1A1A" stroke-miterlimit="10"/>
<path d="M85.6919 48.5219L91.3094 43.0544V28.2944L99.0869 21.7769" stroke="#1A1A1A" stroke-miterlimit="10"/>
<path d="M75.6566 70.9918C76.5058 70.9918 77.1941 70.3034 77.1941 69.4543C77.1941 68.6052 76.5058 67.9168 75.6566 67.9168C74.8075 67.9168 74.1191 68.6052 74.1191 69.4543C74.1191 70.3034 74.8075 70.9918 75.6566 70.9918Z" fill="white" stroke="#1A1A1A" stroke-miterlimit="10"/>
</g>
<defs>
<clipPath id="clip0_907_12448">
<rect width="60.75" height="60.75" fill="white" transform="translate(1 14.4548) rotate(-8)"/>
</clipPath>
<clipPath id="clip1_907_12448">
<rect width="53.4975" height="61.1175" fill="white" transform="translate(64.9316 10.9318)"/>
</clipPath>
</defs>
</svg>
