<svg width="124" height="80" viewBox="0 0 124 80" fill="none" xmlns="http://www.w3.org/2000/svg">
<g clip-path="url(#clip0_907_12821)">
<path d="M60.8066 70.3069H9.80664L5.30664 65.8069V14.8069L9.80664 10.3069H60.8066C62.5616 12.0619 63.5516 13.0519 65.3066 14.8069V65.8069L60.8066 70.3069Z" fill="#16FFDD" stroke="#1A1A1A" stroke-miterlimit="10"/>
<path d="M53.3965 62.8069C57.5386 62.8069 60.8965 59.449 60.8965 55.3069C60.8965 51.1647 57.5386 47.8069 53.3965 47.8069C49.2544 47.8069 45.8965 51.1647 45.8965 55.3069C45.8965 59.449 49.2544 62.8069 53.3965 62.8069Z" stroke="#1A1A1A" stroke-miterlimit="10"/>
<path d="M5.30664 40.3069H65.3066" stroke="#1A1A1A" stroke-miterlimit="10"/>
<path d="M29.2692 23.5743L27.3492 22.5618L23.5542 29.8068L24.8292 32.0568L29.2692 23.5743Z" fill="#1A1A1A"/>
<path d="M24.4691 26.8293L23.2166 29.1168L20.3066 23.5743L22.2341 22.5618L24.4691 26.8293Z" fill="#1A1A1A"/>
<path d="M49.932 30.3469V25.8319C49.932 24.9169 49.917 24.1144 48.912 23.4994C48.162 23.0569 47.172 22.9519 46.3545 22.9519C45.8145 22.9519 43.782 22.9519 42.9645 24.4369C42.6945 24.9319 42.657 25.2919 42.627 25.7119L44.7195 25.8319C44.7195 25.5919 44.7045 25.3594 44.922 25.0819C45.1245 24.8119 45.5895 24.5344 46.437 24.5344C47.847 24.5344 47.8845 25.4044 47.8845 25.8244V28.4119C47.8845 28.6669 47.8845 28.9219 47.7645 29.1769C47.5395 29.6869 46.812 30.1669 45.7695 30.1669C44.952 30.1669 44.3895 29.8219 44.3895 29.1619C44.3895 28.2619 45.357 28.0894 46.092 27.9844C46.6845 27.8869 47.082 27.7894 47.397 27.6769V25.9669C46.962 26.0944 46.557 26.1769 45.237 26.4469C44.4195 26.5969 43.107 26.8744 42.4995 28.0969C42.327 28.4419 42.2295 28.8319 42.2295 29.2594C42.2295 30.7219 43.3845 31.9144 45.312 31.9144C46.4895 31.9144 47.3895 31.4194 47.832 31.0444C47.832 31.1644 47.862 31.5019 47.8845 31.7119H50.2995C49.9245 31.2019 49.9245 30.9769 49.9245 30.3319" fill="#1A1A1A"/>
<path d="M34.8944 29.2519C35.4119 29.8894 36.1844 30.3544 37.3769 30.3544C38.5694 30.3544 39.0794 29.7694 39.0794 29.3419C39.0794 28.7869 38.4569 28.6519 38.1869 28.5994C37.8944 28.5319 36.4769 28.2694 36.1694 28.1869C34.1219 27.7069 33.7394 26.5144 33.7394 25.7419C33.7394 24.2794 35.0669 22.9294 37.4294 22.9294C38.7419 22.9294 39.6869 23.3419 40.2719 23.7544C40.6994 24.0319 40.9769 24.3244 41.1494 24.5344L39.6869 25.8994C39.4469 25.4344 38.8619 24.5869 37.3394 24.5869C36.3569 24.5869 35.9069 25.0219 35.9069 25.4644C35.9069 26.0869 36.5444 26.2594 37.6469 26.4469C39.4394 26.7769 39.9419 26.8594 40.4894 27.2944C41.0219 27.7069 41.3669 28.3969 41.3669 29.1244C41.3669 30.4669 40.1594 32.0719 37.4894 32.0719C35.9594 32.0719 34.4444 31.5919 33.3569 30.5344L34.8944 29.2594V29.2519Z" fill="#1A1A1A"/>
<path d="M32.2169 21.8418H30.1694V19.7568H32.2169V21.8418ZM32.2169 31.8018H30.1694V23.1843H32.2169V31.8018Z" fill="#1A1A1A"/>
<path d="M50.2393 14.7095H57.8068L60.8968 17.7995V25.307" stroke="#1A1A1A" stroke-miterlimit="10"/>
<path d="M20.3064 14.7095H12.7389L9.64893 17.7995V25.307" stroke="#1A1A1A" stroke-miterlimit="10"/>
<path d="M15.2815 47.2371L12.5815 48.7971V51.9171L15.2815 53.4771L17.9815 51.9171V48.7971L15.2815 47.2371Z" stroke="#1A1A1A" stroke-miterlimit="10"/>
<path d="M17.3214 54.4895L20.9139 57.287V62.807H9.64893V57.287L13.2489 54.4895" stroke="#1A1A1A" stroke-miterlimit="10"/>
<path d="M26.3066 47.8069H41.3066" stroke="#1A1A1A" stroke-miterlimit="10"/>
<path d="M26.3066 52.8093H41.3066" stroke="#1A1A1A" stroke-miterlimit="10"/>
<path d="M26.3066 57.8044H41.3066" stroke="#1A1A1A" stroke-miterlimit="10"/>
<path d="M26.3066 62.8069H41.3066" stroke="#1A1A1A" stroke-miterlimit="10"/>
<path d="M49.6465 56.0569L51.904 58.3069L57.1465 52.3069" stroke="#1A1A1A" stroke-miterlimit="10"/>
</g>
<g clip-path="url(#clip1_907_12821)">
<path d="M119.859 54.7618L114.729 41.1418V24.2593H116.237L120.602 36.0043L123.047 42.7543" stroke="#1A1A1A" stroke-miterlimit="10"/>
<path d="M110.732 11.4043L106.607 13.7968V18.5818L110.732 20.9743L114.865 18.5818V13.7968L110.732 11.4043Z" stroke="#1A1A1A" stroke-miterlimit="10"/>
<path d="M119.86 54.7617V72.0492" stroke="#1A1A1A" stroke-miterlimit="10"/>
<path d="M93.3096 65.3817L101.92 54.7767V46.2867V29.7942" stroke="#1A1A1A" stroke-miterlimit="10"/>
<path d="M107.042 46.2869V56.4569L95.5596 70.9469" stroke="#1A1A1A" stroke-miterlimit="10"/>
<path d="M115.105 72.0493V57.3418L112.172 46.6768" stroke="#1A1A1A" stroke-miterlimit="10"/>
<path d="M87.9263 45.7483L92.8424 50.6645C94.0145 51.8365 94.0145 53.7351 92.8424 54.9071L80.6554 67.0941C79.4834 68.2661 77.5848 68.2661 76.4128 67.0941L71.4966 62.1779L87.9263 45.7483Z" fill="#FFDF08" stroke="#1A1A1A" stroke-miterlimit="10"/>
<path d="M71.4878 62.1729L70.7718 61.4569C70.1991 60.8841 70.1991 59.9508 70.7718 59.378L85.1226 45.0273C85.6953 44.4545 86.6287 44.4545 87.2015 45.0273L87.9174 45.7432L71.4878 62.1729Z" fill="#FFDF08" stroke="#1A1A1A" stroke-miterlimit="10"/>
<path d="M90.6919 48.5219L96.3094 43.0544V28.2944L104.087 21.7769" stroke="#1A1A1A" stroke-miterlimit="10"/>
<path d="M80.6566 70.992C81.5058 70.992 82.1941 70.3036 82.1941 69.4545C82.1941 68.6054 81.5058 67.917 80.6566 67.917C79.8075 67.917 79.1191 68.6054 79.1191 69.4545C79.1191 70.3036 79.8075 70.992 80.6566 70.992Z" fill="#FFDF08" stroke="#1A1A1A" stroke-miterlimit="10"/>
</g>
<defs>
<clipPath id="clip0_907_12821">
<rect width="60.75" height="60.75" fill="white" transform="translate(4.93164 9.93188)"/>
</clipPath>
<clipPath id="clip1_907_12821">
<rect width="53.4975" height="61.1175" fill="white" transform="translate(69.9316 10.9319)"/>
</clipPath>
</defs>
</svg>
