<svg width="121" height="80" viewBox="0 0 121 80" fill="none" xmlns="http://www.w3.org/2000/svg">
<g clip-path="url(#clip0_907_9619)">
<path d="M48.4429 63.7377L12.7112 68.125L7.69637 64.2069L1.48103 13.5871L5.39907 8.57219L41.1307 4.1849C43.0865 5.71293 44.1898 6.57491 46.1456 8.10294L52.3609 58.7228L48.4429 63.7377Z" fill="#16FFDD" stroke="#1A1A1A" stroke-miterlimit="10"/>
<path d="M27.8353 43.5987C36.0578 42.5891 41.905 35.105 40.8954 26.8825C39.8858 18.66 32.4017 12.8128 24.1792 13.8224C15.9567 14.8319 10.1095 22.3161 11.1191 30.5386C12.1287 38.7611 19.6128 44.6083 27.8353 43.5987Z" stroke="#1A1A1A" stroke-miterlimit="10"/>
<path d="M24.1792 13.8224L27.8353 43.5988" stroke="#1A1A1A" stroke-miterlimit="10"/>
<path d="M27.8355 43.5987C31.9468 43.0939 34.4612 36.019 33.4516 27.7965C32.442 19.574 28.2907 13.3175 24.1794 13.8223C20.0682 14.3271 17.5538 21.402 18.5634 29.6245C19.573 37.847 23.7243 44.1035 27.8355 43.5987Z" stroke="#1A1A1A" stroke-miterlimit="10"/>
<path d="M40.8955 26.8825L11.1191 30.5386" stroke="#1A1A1A" stroke-miterlimit="10"/>
<path d="M26.9213 36.1546C35.1438 35.145 41.4003 30.9938 40.8955 26.8825C40.3907 22.7712 33.3158 20.2568 25.0933 21.2664C16.8707 22.276 10.6143 26.4273 11.1191 30.5386C11.6239 34.6498 18.6988 37.1642 26.9213 36.1546Z" stroke="#1A1A1A" stroke-miterlimit="10"/>
<path d="M31.224 55.3184C31.7383 55.8144 32.4576 56.1341 33.4849 56.008C34.5121 55.8818 34.8966 55.3208 34.8509 54.9486C34.7924 54.4722 34.2418 54.4189 33.9981 54.4035C33.7377 54.375 32.4895 54.3016 32.2124 54.26C30.3895 54.0607 29.9358 53.0736 29.8535 52.4036C29.6982 51.1382 30.702 49.8361 32.7416 49.5857C33.8731 49.4467 34.7359 49.7035 35.2859 49.9987C35.6874 50.1912 35.9567 50.415 36.1275 50.5754L35.0064 51.907C34.7486 51.5306 34.1529 50.8632 32.8427 51.0241C31.9941 51.1283 31.6527 51.548 31.7002 51.9351C31.766 52.4711 32.3352 52.5523 33.3081 52.5991C34.8912 52.6919 35.3321 52.7133 35.8542 53.027C36.3596 53.3276 36.7305 53.8866 36.8073 54.5119C36.9499 55.6732 36.0777 57.1858 33.7701 57.4691C32.445 57.6318 31.0837 57.3758 30.0342 56.5828L31.224 55.3184Z" fill="#1A1A1A"/>
<path d="M38.5189 54.4225C39.0332 54.9185 39.7525 55.2382 40.7798 55.1121C41.8071 54.986 42.1916 54.4249 42.1459 54.0527C42.0874 53.5763 41.5368 53.523 41.2931 53.5076C41.0327 53.4791 39.7844 53.4057 39.5073 53.3641C37.6844 53.1648 37.2307 52.1777 37.1485 51.5078C36.9931 50.2423 37.9969 48.9402 40.0366 48.6898C41.1681 48.5509 42.0308 48.8076 42.5809 49.1028C42.9823 49.2953 43.2516 49.5192 43.4224 49.6795L42.3013 51.0111C42.0435 50.6347 41.4478 49.9673 40.1376 50.1282C39.289 50.2324 38.9476 50.6521 38.9951 51.0392C39.0609 51.5752 39.6301 51.6564 40.603 51.7032C42.1861 51.796 42.627 51.8174 43.1492 52.1311C43.6546 52.4318 44.0254 52.9907 44.1022 53.616C44.2448 54.7773 43.3726 56.2899 41.065 56.5732C39.7399 56.7359 38.3786 56.4799 37.3291 55.6869L38.5189 54.4225Z" fill="#1A1A1A"/>
<path d="M29.1366 56.5947L28.6522 52.6493C28.5535 51.8453 28.4527 51.1474 27.5084 50.7193C26.8058 50.4126 25.9313 50.4293 25.2167 50.5171C24.7403 50.5756 22.9686 50.7931 22.413 52.1761C22.2278 52.6371 22.2364 52.9535 22.2523 53.3293L24.0964 53.2087C24.0708 53.0002 24.0303 52.7936 24.1946 52.5317C24.344 52.2715 24.7168 51.984 25.4612 51.8925C26.6969 51.7408 26.8199 52.4965 26.8656 52.8687L27.1434 55.1317C27.1709 55.355 27.1983 55.5783 27.1215 55.8144C26.9828 56.2849 26.3938 56.7803 25.4856 56.8918C24.771 56.9796 24.2431 56.7421 24.1718 56.1615C24.0749 55.3724 24.9053 55.1193 25.5345 54.9514C26.0381 54.8065 26.377 54.6742 26.6405 54.5436L26.4577 53.0548C26.0918 53.213 25.7436 53.3314 24.6265 53.7103C23.9283 53.9321 22.8111 54.311 22.4068 55.4488C22.2945 55.7648 22.2472 56.1182 22.2929 56.4904C22.4501 57.7708 23.5905 58.6887 25.2728 58.4821C26.3001 58.356 27.0362 57.8273 27.383 57.4523C27.3958 57.5565 27.4622 57.8506 27.499 58.0274L29.6131 57.7678C29.2307 57.3614 29.207 57.1679 29.1375 56.6021" fill="#1A1A1A"/>
<path d="M16.1237 56.0387C16.0914 55.8991 16.0657 55.7511 16.0465 55.5948C16.0328 55.4831 16.0275 55.378 16.0296 55.272L15.7005 52.5921L15.6164 51.9072L13.8447 52.1248L15.0567 61.9956L16.8284 61.7781L16.4555 58.7409L16.1219 56.0238L16.1237 56.0387Z" fill="#1A1A1A"/>
<path d="M17.6298 51.4408C16.9226 51.5276 16.4587 51.8113 16.1465 52.099L16.3722 53.9377C16.6709 53.4778 17.1254 53.2407 17.572 53.1858C18.108 53.12 19.4472 53.3183 19.6757 55.1793C19.8822 56.8617 19.0174 57.5724 18.1539 57.6784C17.6551 57.7397 17.1615 57.5963 16.779 57.2503L17.0029 59.0741C17.4043 59.2666 17.9287 59.4138 18.5987 59.3315C20.5937 59.0866 21.7754 57.264 21.503 55.0457C21.2507 52.9911 19.8184 51.1721 17.6298 51.4408Z" fill="#1A1A1A"/>
</g>
<g clip-path="url(#clip1_907_9619)">
<path d="M106.699 39.2091L101.52 16.7619L96.1235 13.3872L48.707 24.3438L45.3323 29.7403L50.5117 52.1875L55.9082 55.5622L103.325 44.6131L106.7 39.2166L106.699 39.2091Z" fill="#FFDF08" stroke="#1A1A1A" stroke-miterlimit="10"/>
<path d="M57.813 26.8407L63.0014 49.3175" stroke="#1A1A1A" stroke-miterlimit="10"/>
<path d="M64.489 27.272L95.707 20.0633" stroke="#1A1A1A" stroke-miterlimit="10"/>
<path d="M66.5579 36.2283L97.7684 29.02" stroke="#1A1A1A" stroke-miterlimit="10"/>
<path d="M65.5203 31.754L96.7383 24.5453" stroke="#1A1A1A" stroke-miterlimit="10"/>
<path d="M56.9277 61.9903L55.7218 38.9819L59.9802 34.2525L108.581 31.7055L113.31 35.9638L114.516 58.9722L110.258 63.7016L61.657 66.2486L56.9277 61.9903Z" fill="#FFDF08" stroke="#1A1A1A" stroke-miterlimit="10"/>
<mask id="mask0_907_9619" style="mask-type:luminance" maskUnits="userSpaceOnUse" x="60" y="39" width="37" height="21">
<path d="M95.8514 39.5901L60.6572 41.4346L61.5793 59.0279L96.7735 57.1835L95.8514 39.5901Z" fill="white"/>
</mask>
<g mask="url(#mask0_907_9619)">
<path fill-rule="evenodd" clip-rule="evenodd" d="M95.4136 43.5712C95.0594 42.6885 93.6159 42.659 92.0047 43.1565C88.5525 44.2086 82.7766 46.9221 82.7766 46.9221L70.9942 43.5066L69.3712 44.3502L75.8209 49.7651L68.7181 52.811L63.8013 50.9958L61.7975 51.5965L64.784 54.6994L69.8988 55.9935L93.2099 46.2326C94.7249 45.4773 95.7532 44.4621 95.414 43.5786L95.4136 43.5712Z" stroke="#1A1A1A" stroke-miterlimit="10"/>
</g>
<path d="M100.51 36.6196L101.717 59.658" stroke="#1A1A1A" stroke-miterlimit="10"/>
<path d="M110.917 56.7951L109.989 56.8438L109.913 55.3983L106.318 55.5867L106.321 55.6541L107.809 56.6726L107.271 57.4368L105.519 56.2444L105.426 54.4768L109.852 54.2448L109.793 53.1064L110.721 53.0577L110.917 56.7876L110.917 56.7951Z" fill="#1A1A1A"/>
<path d="M108.044 53.1154C106.291 53.2073 105.238 52.6016 105.164 51.1935C105.09 49.7854 106.074 49.073 107.827 48.9811C109.579 48.8893 110.633 49.495 110.706 50.903C110.78 52.3111 109.796 53.0236 108.044 53.1154ZM108.395 50.2131L107.384 50.2661C106.567 50.3089 106.106 50.5358 106.138 51.15C106.17 51.7641 106.653 51.9416 107.469 51.8988L108.48 51.8458C109.297 51.8031 109.758 51.5761 109.726 50.962C109.693 50.3478 109.211 50.1703 108.395 50.2131Z" fill="#1A1A1A"/>
<path d="M107.126 48.4996L106.976 48.5075C106.624 48.5259 106.35 48.3225 106.326 47.8656C106.302 47.4087 106.553 47.1778 106.905 47.1593L107.055 47.1515C107.407 47.133 107.681 47.3365 107.704 47.7934C107.728 48.2503 107.478 48.4812 107.126 48.4996ZM109.942 48.3521L109.792 48.3599C109.44 48.3784 109.166 48.1749 109.142 47.718C109.119 47.2611 109.369 47.0302 109.721 47.0118L109.871 47.0039C110.223 46.9855 110.497 47.1889 110.521 47.6458C110.545 48.1027 110.294 48.3336 109.942 48.3521Z" fill="#1A1A1A"/>
<path d="M107.047 44.8463C107.017 44.2771 106.757 44.0354 106.427 44.0526L106.375 44.0554C105.993 44.0754 105.745 44.3588 105.768 44.8082C105.791 45.2351 106.044 45.6199 106.462 45.8683L105.826 46.6226C105.273 46.2461 104.878 45.741 104.83 44.8198C104.77 43.6664 105.292 42.8954 106.154 42.8503C106.835 42.8146 107.287 43.2566 107.413 43.8057L107.458 43.8034C107.537 43.1608 107.954 42.6583 108.688 42.6199C109.646 42.5696 110.311 43.3609 110.375 44.5743C110.432 45.6678 109.973 46.2325 109.452 46.6053L108.748 45.786C109.171 45.5311 109.468 45.1925 109.438 44.6158C109.411 44.0915 109.11 43.7994 108.668 43.8225L108.623 43.8249C108.189 43.8477 107.982 44.2115 108.013 44.7957L108.039 45.2825L107.08 45.3327L107.054 44.8309L107.047 44.8463Z" fill="#1A1A1A"/>
<path d="M107.476 42.2928C105.724 42.3847 104.67 41.7789 104.597 40.3709C104.523 38.9628 105.507 38.2503 107.259 38.1585C109.012 38.0666 110.065 38.6723 110.139 40.0804C110.213 41.4885 109.229 42.201 107.476 42.2928ZM107.827 39.3905L106.816 39.4434C106 39.4862 105.538 39.7132 105.571 40.3273C105.603 40.9415 106.085 41.119 106.902 41.0762L107.913 41.0232C108.729 40.9804 109.19 40.7535 109.158 40.1393C109.126 39.5252 108.644 39.3477 107.827 39.3905Z" fill="#1A1A1A"/>
</g>
<defs>
<clipPath id="clip0_907_9619">
<rect width="45.75" height="60.75" fill="white" transform="translate(0.515137 8.79395) rotate(-7)"/>
</clipPath>
<clipPath id="clip1_907_9619">
<rect width="68.3325" height="51.75" fill="white" transform="translate(44.1992 15.7179) rotate(-3)"/>
</clipPath>
</defs>
</svg>
