<svg width="122" height="106" viewBox="0 0 122 106" fill="none" xmlns="http://www.w3.org/2000/svg">
<path d="M91.4797 42.6301V35.3101H102.865V6.96011H102.325L93.7297 18.2251L87.9097 13.6801L98.0197 0.360107H111.94V35.2951H120.895V42.6151H91.4797V42.6301Z" fill="#16FFDD"/>
<path d="M86.8451 0H55.7651V7.17H86.8451V0Z" fill="#16FFDD"/>
<path d="M75.1446 8.87988H67.2246V42.3749H75.1446V8.87988Z" fill="#16FFDD"/>
<path d="M80.9503 84.945V64.875H11.0503V105H110.995V84.945H80.9503Z" stroke="black" stroke-width="1.5" stroke-linecap="round" stroke-linejoin="round"/>
<path fill-rule="evenodd" clip-rule="evenodd" d="M91.5094 25.6351C90.8944 23.8501 88.0594 23.6551 84.8344 24.4651C77.9194 26.1901 66.2494 30.9301 66.2494 30.9301L43.3744 22.9651L40.0894 24.4501L52.2394 35.7901L37.9144 41.0551L28.4044 36.9751L24.3994 37.9501L29.9794 44.3701L39.9244 47.4601L86.8894 30.6301C89.9494 29.2951 92.0794 27.4051 91.5094 25.6201V25.6351Z" fill="white" stroke="black" stroke-width="1.5" stroke-linecap="round" stroke-linejoin="round"/>
<path d="M40.9594 58.3652H20.9644V64.8752H40.9594V58.3652Z" stroke="black" stroke-width="1.5" stroke-linecap="round" stroke-linejoin="round"/>
<path d="M51.0552 91.8303V97.9203" stroke="black" stroke-width="1.5" stroke-linecap="round" stroke-linejoin="round"/>
<path d="M61.0454 91.8301V97.9201" stroke="black" stroke-width="1.5" stroke-linecap="round" stroke-linejoin="round"/>
<path d="M71.0503 91.8303V97.9203" stroke="black" stroke-width="1.5" stroke-linecap="round" stroke-linejoin="round"/>
<path d="M81.0552 91.8301V97.9201" stroke="black" stroke-width="1.5" stroke-linecap="round" stroke-linejoin="round"/>
<path d="M91.0454 91.8301V97.9201" stroke="black" stroke-width="1.5" stroke-linecap="round" stroke-linejoin="round"/>
<path d="M101.05 91.8303V97.9203" stroke="black" stroke-width="1.5" stroke-linecap="round" stroke-linejoin="round"/>
<path d="M21.0552 91.8301V97.9201" stroke="black" stroke-width="1.5" stroke-linecap="round" stroke-linejoin="round"/>
<path d="M31.0601 91.8301V97.9201" stroke="black" stroke-width="1.5" stroke-linecap="round" stroke-linejoin="round"/>
<path d="M41.0503 91.8303V97.9203" stroke="black" stroke-width="1.5" stroke-linecap="round" stroke-linejoin="round"/>
<path d="M21.0552 72.3152V78.4052" stroke="black" stroke-width="1.5" stroke-linecap="round" stroke-linejoin="round"/>
<path d="M31.0601 72.3152V78.4052" stroke="black" stroke-width="1.5" stroke-linecap="round" stroke-linejoin="round"/>
<path d="M41.0503 72.3152V78.4052" stroke="black" stroke-width="1.5" stroke-linecap="round" stroke-linejoin="round"/>
<path d="M51.1606 72.3149V78.4049" stroke="black" stroke-width="1.5" stroke-linecap="round" stroke-linejoin="round"/>
<path d="M61.1494 72.3149V78.4049" stroke="black" stroke-width="1.5" stroke-linecap="round" stroke-linejoin="round"/>
<path d="M71.1543 72.3149V78.4049" stroke="black" stroke-width="1.5" stroke-linecap="round" stroke-linejoin="round"/>
<path d="M1 105H121" stroke="black" stroke-width="1.5" stroke-linecap="round" stroke-linejoin="round"/>
</svg>
