<svg width="122" height="106" viewBox="0 0 122 106" fill="none" xmlns="http://www.w3.org/2000/svg">
<path d="M119.155 42.8343H89.2447V34.5664L102.265 23.4579C106.99 19.4212 108.625 17.059 108.625 13.5006V12.6634C108.625 9.4639 105.775 7.83426 103.06 7.83426C99.0697 7.83426 97.1197 10.5553 96.2797 13.7548L88.3447 10.7347C90.2197 4.87399 95.1247 0 103.9 0C112.675 0 118.315 5.36736 118.315 12.6783C118.315 19.9893 113.11 24.3251 107.05 29.0944L99.1747 35.2542H119.155V42.8642V42.8343Z" fill="#16FFDD"/>
<path d="M86.8451 0.34375H55.7651V7.49027H86.8451V0.34375Z" fill="#16FFDD"/>
<path d="M75.1446 9.19458H67.2246V42.5799H75.1446V9.19458Z" fill="#16FFDD"/>
<path d="M80.9653 85.0106V65.0063H11.0503V105H111.01V85.0106H80.9653Z" stroke="#1A1A1A" stroke-width="1.5" stroke-linecap="round" stroke-linejoin="round"/>
<path fill-rule="evenodd" clip-rule="evenodd" d="M91.5094 25.8949C90.8944 24.1157 88.0594 23.9214 84.8344 24.7287C77.9194 26.4481 66.2494 31.1726 66.2494 31.1726L43.3744 23.2336L40.0894 24.7138L52.2394 36.0166L37.9144 41.2644L28.4044 37.1978L24.3994 38.1696L29.9794 44.5685L39.9244 47.6484L86.8894 30.8735C89.9494 29.5429 92.0794 27.6591 91.5094 25.8799V25.8949Z" fill="white" stroke="#1A1A1A" stroke-width="1.5" stroke-linecap="round" stroke-linejoin="round"/>
<path d="M40.9594 58.5178H20.9644V65.0065H40.9594V58.5178Z" stroke="#1A1A1A" stroke-width="1.5" stroke-linecap="round" stroke-linejoin="round"/>
<path d="M51.0552 91.873V97.9431" stroke="#1A1A1A" stroke-width="1.5" stroke-linecap="round" stroke-linejoin="round"/>
<path d="M61.0601 91.873V97.9431" stroke="#1A1A1A" stroke-width="1.5" stroke-linecap="round" stroke-linejoin="round"/>
<path d="M71.0503 91.873V97.9431" stroke="#1A1A1A" stroke-width="1.5" stroke-linecap="round" stroke-linejoin="round"/>
<path d="M81.0552 91.873V97.9431" stroke="#1A1A1A" stroke-width="1.5" stroke-linecap="round" stroke-linejoin="round"/>
<path d="M91.0601 91.873V97.9431" stroke="#1A1A1A" stroke-width="1.5" stroke-linecap="round" stroke-linejoin="round"/>
<path d="M101.05 91.873V97.9431" stroke="#1A1A1A" stroke-width="1.5" stroke-linecap="round" stroke-linejoin="round"/>
<path d="M21.0552 91.873V97.9431" stroke="#1A1A1A" stroke-width="1.5" stroke-linecap="round" stroke-linejoin="round"/>
<path d="M31.0601 91.873V97.9431" stroke="#1A1A1A" stroke-width="1.5" stroke-linecap="round" stroke-linejoin="round"/>
<path d="M41.0503 91.873V97.9431" stroke="#1A1A1A" stroke-width="1.5" stroke-linecap="round" stroke-linejoin="round"/>
<path d="M21.0552 72.4221V78.4922" stroke="#1A1A1A" stroke-width="1.5" stroke-linecap="round" stroke-linejoin="round"/>
<path d="M31.0601 72.4221V78.4922" stroke="#1A1A1A" stroke-width="1.5" stroke-linecap="round" stroke-linejoin="round"/>
<path d="M41.0503 72.4221V78.4922" stroke="#1A1A1A" stroke-width="1.5" stroke-linecap="round" stroke-linejoin="round"/>
<path d="M51.1606 72.4219V78.4919" stroke="#1A1A1A" stroke-width="1.5" stroke-linecap="round" stroke-linejoin="round"/>
<path d="M61.1655 72.4219V78.4919" stroke="#1A1A1A" stroke-width="1.5" stroke-linecap="round" stroke-linejoin="round"/>
<path d="M71.1543 72.4219V78.4919" stroke="#1A1A1A" stroke-width="1.5" stroke-linecap="round" stroke-linejoin="round"/>
<path d="M1 105H121" stroke="#1A1A1A" stroke-width="1.5" stroke-linecap="round" stroke-linejoin="round"/>
</svg>
