<svg width="90" height="80" viewBox="0 0 90 80" fill="none" xmlns="http://www.w3.org/2000/svg">
<path d="M5.58179 61.137L84.8528 61.2012C87.5646 58.7518 89.0809 55.072 88.6143 51.1647C87.8504 44.7731 82.0594 40.1894 75.6562 40.965C75.1138 41.0233 74.6123 41.1399 74.1166 41.2682C71.6497 35.4306 65.8705 31.3251 59.1348 31.3193C57.2103 31.3193 55.3733 31.6575 53.6646 32.2698C50.0198 26.5897 43.6632 22.7932 36.4026 22.7932C26.4478 22.7816 18.1784 29.8555 16.2889 39.2271C15.315 38.988 14.3119 38.8422 13.268 38.8422C6.38074 38.8422 0.788086 44.4232 0.788086 51.3105C0.788086 55.3053 2.66008 58.8568 5.58179 61.137Z" fill="white" stroke="#1A1A1A" stroke-width="1.5" stroke-linecap="round" stroke-linejoin="round"/>
<path d="M49.583 46.0502L57.3917 46.0618L58.9663 48.3246" stroke="#1A1A1A" stroke-width="1.5" stroke-linecap="round" stroke-linejoin="round"/>
<path d="M35.7627 46.0382L41.9735 46.0499" stroke="#1A1A1A" stroke-width="1.5" stroke-linecap="round" stroke-linejoin="round"/>
<path d="M45.7553 48.96C44.1516 48.96 42.8511 47.6537 42.8511 46.05C42.8511 44.4521 44.1574 43.1516 45.7611 43.1516C47.3649 43.1516 48.6712 44.4579 48.6712 46.0617C48.6712 47.6654 47.3648 48.9659 45.7553 48.9659V48.96Z" fill="#1A1A1A"/>
<path d="M45.7587 44.0672C46.8609 44.0672 47.7532 44.9595 47.7532 46.0617C47.7532 47.1639 46.8551 48.0503 45.7587 48.0503C44.6624 48.0503 43.7701 47.1522 43.7701 46.0559C43.7701 44.9595 44.6682 44.0672 45.7646 44.0672M45.7587 42.2361C43.6476 42.2361 41.9389 43.9389 41.9331 46.05C41.9331 48.1611 43.6418 49.8757 45.7529 49.8757C47.864 49.8757 49.5844 48.167 49.5844 46.0559C49.5844 43.9448 47.8698 42.2302 45.7587 42.2302V42.2361Z" fill="#1A1A1A"/>
<path d="M31.956 48.96C30.3522 48.96 29.0518 47.6537 29.0518 46.05C29.0518 44.4521 30.3581 43.1516 31.9618 43.1516C33.5655 43.1516 34.8718 44.4579 34.8718 46.0617C34.8718 47.6654 33.5655 48.9659 31.956 48.9659V48.96Z" fill="#1A1A1A"/>
<path d="M31.9594 44.0675C33.0616 44.0675 33.9539 44.9597 33.9539 46.0619C33.9539 47.1641 33.0558 48.0506 31.9594 48.0506C30.863 48.0506 29.965 47.1525 29.965 46.0561C29.965 44.9597 30.863 44.0675 31.9594 44.0675ZM31.9594 42.2363C29.8483 42.2363 28.1396 43.9392 28.1338 46.0503C28.1338 48.1614 29.8425 49.8759 31.9536 49.8759C34.0647 49.8759 35.7851 48.1672 35.7851 46.0561C35.7851 43.945 34.0705 42.2305 31.9594 42.2305V42.2363Z" fill="#1A1A1A"/>
</svg>
