<svg width="72" height="80" viewBox="0 0 72 80" fill="none" xmlns="http://www.w3.org/2000/svg">
<path d="M1 25.6597H57.5609" stroke="#1A1A1A" stroke-width="1.5" stroke-linecap="round" stroke-linejoin="round"/>
<path d="M1 31.9387H57.5609" stroke="#1A1A1A" stroke-width="1.5" stroke-linecap="round" stroke-linejoin="round"/>
<path d="M18.2305 42.1147H8.01904V48.5418H18.2305V42.1147Z" stroke="#1A1A1A" stroke-width="1.5" stroke-linecap="round" stroke-linejoin="round"/>
<path d="M57.5678 42.3896H57.5607C50.4694 42.3896 44.7207 48.1383 44.7207 55.2297V55.2367C44.7207 62.3281 50.4694 68.0768 57.5607 68.0768H57.5678C64.6591 68.0768 70.4078 62.3281 70.4078 55.2367V55.2297C70.4078 48.1383 64.6591 42.3896 57.5678 42.3896Z" stroke="#1A1A1A" stroke-width="1.5" stroke-linecap="round" stroke-linejoin="round"/>
<path d="M56.887 63V61.5034C55.0859 61.3673 53.889 60.5794 53 59.5363L54.3015 58.3855C55.0336 59.2528 55.8877 59.8141 57.009 59.9501V56.0556C54.4584 55.517 53.3719 54.4739 53.3719 52.7166C53.3719 50.8741 54.7256 49.7404 56.887 49.5136V48H58.4035V49.5136C59.9199 49.6497 61.0413 50.2789 61.8605 51.305L60.5416 52.3651C60.0245 51.7018 59.3099 51.2143 58.2931 51.0612V54.627C60.8786 55.1825 62 56.1576 62 57.966C62 59.7744 60.6985 61.1859 58.3977 61.4637V62.9943H56.8812L56.887 63ZM57.0148 54.3549V51.0499C55.8935 51.2086 55.2311 51.7642 55.2311 52.6315C55.2311 53.5896 55.8005 54.0204 57.0148 54.3549ZM58.2989 56.322V59.9388C59.4551 59.746 60.1349 59.0488 60.1349 58.0964C60.1349 57.229 59.6875 56.6678 58.2989 56.322Z" fill="#1A1A1A"/>
<path d="M38.3784 55.2368H1V19H57.5609V36.0472" stroke="#1A1A1A" stroke-width="1.5" stroke-linecap="round" stroke-linejoin="round"/>
</svg>
