<svg width="60" height="80" viewBox="0 0 60 80" fill="none" xmlns="http://www.w3.org/2000/svg">
<path d="M30.4515 44.4968H1.5498V65.4049H30.4515V44.4968Z" stroke="#1A1A1A" stroke-width="1.5" stroke-linecap="round" stroke-linejoin="round"/>
<path d="M7.23926 44.4968V65.4049" stroke="#1A1A1A" stroke-width="1.5" stroke-linecap="round" stroke-linejoin="round"/>
<path d="M24.6396 44.4971V65.4051" stroke="#1A1A1A" stroke-width="1.5" stroke-linecap="round" stroke-linejoin="round"/>
<path d="M21.7605 36.6104H10.2119V44.4969H21.7605V36.6104Z" stroke="#1A1A1A" stroke-width="1.5" stroke-linecap="round" stroke-linejoin="round"/>
<path d="M59.0416 28.6653H35.9443V61.3027H59.0416V28.6653Z" stroke="#1A1A1A" stroke-width="1.5" stroke-linecap="round" stroke-linejoin="round"/>
<path d="M53.2645 13.1199H41.7158V28.6653H53.2645V13.1199Z" stroke="#1A1A1A" stroke-width="1.5" stroke-linecap="round" stroke-linejoin="round"/>
<path d="M41.7158 17.0295H53.2645" stroke="#1A1A1A" stroke-width="1.5" stroke-linecap="round" stroke-linejoin="round"/>
<path d="M41.7156 62.5478C42.5658 62.5478 43.2554 63.2441 43.2554 64.0943C43.2554 64.9446 42.5658 65.6475 41.7156 65.6475C40.8653 65.6475 40.1758 64.9513 40.1758 64.0943C40.1758 63.2374 40.8653 62.5478 41.7156 62.5478ZM41.7156 61.2021C40.1222 61.2021 38.8301 62.501 38.8301 64.101C38.8301 65.7011 40.1222 66.9999 41.7156 66.9999C43.3089 66.9999 44.601 65.7011 44.601 64.101C44.601 62.501 43.3089 61.2021 41.7156 61.2021Z" fill="#1A1A1A"/>
<path d="M53.2566 62.5478C54.1068 62.5478 54.7964 63.2441 54.7964 64.0943C54.7964 64.9446 54.1068 65.6475 53.2566 65.6475C52.4063 65.6475 51.7168 64.9513 51.7168 64.0943C51.7168 63.2374 52.4063 62.5478 53.2566 62.5478ZM53.2566 61.2021C51.6632 61.2021 50.3711 62.501 50.3711 64.101C50.3711 65.7011 51.6632 66.9999 53.2566 66.9999C54.85 66.9999 56.1421 65.7011 56.1421 64.101C56.1421 62.501 54.85 61.2021 53.2566 61.2021Z" fill="#1A1A1A"/>
<path d="M41.7158 34.4629V55.1969" stroke="#1A1A1A" stroke-width="1.5" stroke-linecap="round" stroke-linejoin="round"/>
<path d="M47.4863 34.4629V55.1969" stroke="#1A1A1A" stroke-width="1.5" stroke-linecap="round" stroke-linejoin="round"/>
<path d="M53.2637 34.4629V55.1969" stroke="#1A1A1A" stroke-width="1.5" stroke-linecap="round" stroke-linejoin="round"/>
</svg>
