<svg width="76" height="80" viewBox="0 0 76 80" fill="none" xmlns="http://www.w3.org/2000/svg">
<path d="M31.4563 64.5482H9.63965V15.4565H20.5502" stroke="#1A1A1A" stroke-width="1.5" stroke-linecap="round" stroke-linejoin="round"/>
<path d="M64.1766 37.2725V15.4565H53.2705" stroke="#1A1A1A" stroke-width="1.5" stroke-linecap="round" stroke-linejoin="round"/>
<path d="M50.5436 70.003C59.5822 70.003 66.9094 62.676 66.9094 53.6376C66.9094 44.5992 59.5822 37.2722 50.5436 37.2722C41.505 37.2722 34.1777 44.5992 34.1777 53.6376C34.1777 62.676 41.505 70.003 50.5436 70.003Z" stroke="#1A1A1A" stroke-width="1.5" stroke-linecap="round" stroke-linejoin="round"/>
<path d="M9.63965 26.3689H64.1834" stroke="#1A1A1A" stroke-width="1.5" stroke-linecap="round" stroke-linejoin="round"/>
<path d="M15.0918 34.5469H28.7549" stroke="#1A1A1A" stroke-width="1.5" stroke-linecap="round" stroke-linejoin="round"/>
<path d="M15.0918 40.0032H28.7549" stroke="#1A1A1A" stroke-width="1.5" stroke-linecap="round" stroke-linejoin="round"/>
<path d="M15.0918 45.4597H28.7549" stroke="#1A1A1A" stroke-width="1.5" stroke-linecap="round" stroke-linejoin="round"/>
<path d="M50.5469 41.5342V53.6396L56.1199 59.2622" stroke="#1A1A1A" stroke-width="1.5" stroke-linecap="round" stroke-linejoin="round"/>
<path d="M27.3621 10.0032H24.6367V20.9134H27.3621V10.0032Z" stroke="#1A1A1A" stroke-width="1.5" stroke-linecap="round" stroke-linejoin="round"/>
<path d="M49.1765 10.0032H46.4512V20.9134H49.1765V10.0032Z" stroke="#1A1A1A" stroke-width="1.5" stroke-linecap="round" stroke-linejoin="round"/>
<path d="M31.4453 15.4565H42.6592" stroke="#1A1A1A" stroke-width="1.5" stroke-linecap="round" stroke-linejoin="round"/>
</svg>
