<svg width="136" height="136" viewBox="0 0 136 136" fill="none" xmlns="http://www.w3.org/2000/svg">
<g clip-path="url(#clip0_624_11356)">
<path d="M63.9357 40.1635L58.303 39.3719L58.4834 38.0885L61.4657 36.0962C61.939 35.775 62.3105 35.4596 62.5802 35.1501C62.8589 34.8338 63.025 34.4856 63.0785 34.1053L63.1002 33.9508C63.157 33.5468 63.0787 33.2126 62.8654 32.9484C62.66 32.6852 62.3514 32.5247 61.9394 32.4668C61.7097 32.4345 61.5027 32.4418 61.3183 32.4886C61.1431 32.5286 60.9837 32.5991 60.8403 32.7001C60.6968 32.8011 60.5704 32.9247 60.461 33.0709C60.3595 33.2182 60.2722 33.3797 60.199 33.5552L59.086 32.9383C59.2099 32.6891 59.3638 32.4563 59.5477 32.2398C59.7328 32.0153 59.9535 31.8242 60.21 31.6663C60.4665 31.5085 60.757 31.3958 61.0815 31.3283C61.414 31.262 61.7902 31.2583 62.21 31.3173C62.6299 31.3763 62.9973 31.4926 63.3122 31.6661C63.6283 31.8317 63.8816 32.041 64.0722 32.294C64.2719 32.5402 64.41 32.8221 64.4865 33.1399C64.5631 33.4576 64.5763 33.7947 64.5262 34.1512C64.4794 34.4839 64.3845 34.7857 64.2414 35.0564C64.0984 35.3271 63.9179 35.5764 63.7001 35.8043C63.4822 36.0322 63.2344 36.2438 62.9565 36.439C62.6865 36.6354 62.4002 36.8334 62.0974 37.0333L59.9131 38.4349L64.096 39.0228L63.9357 40.1635ZM68.1771 40.9051C67.6621 40.8327 67.2279 40.6747 66.8743 40.4311C66.5219 40.1796 66.2485 39.8544 66.0541 39.4555C65.8598 39.0566 65.7405 38.5833 65.6962 38.0359C65.652 37.4884 65.6778 36.874 65.7735 36.1927C65.8681 35.5193 66.0122 34.9256 66.2056 34.4115C66.4001 33.8895 66.6458 33.4635 66.9426 33.1336C67.2394 32.8037 67.5913 32.5704 67.9983 32.4337C68.4064 32.2891 68.8679 32.253 69.3829 32.3254C70.4127 32.4701 71.1164 32.9527 71.4939 33.7733C71.8793 34.5949 71.9768 35.6831 71.7864 37.0377C71.596 38.3924 71.2024 39.4116 70.6054 40.0951C70.0164 40.7798 69.2069 41.0498 68.1771 40.9051ZM68.3374 39.7643C68.6226 39.8043 68.872 39.7828 69.0856 39.6998C69.3083 39.6099 69.4981 39.4669 69.6549 39.2708C69.8117 39.0747 69.9384 38.834 70.0351 38.5487C70.1328 38.2555 70.2073 37.9266 70.2586 37.5622L70.4623 36.1125C70.5135 35.748 70.532 35.4154 70.5177 35.1145C70.5046 34.8056 70.4497 34.5353 70.353 34.3036C70.2563 34.0719 70.1127 33.8861 69.9224 33.7463C69.741 33.5996 69.5077 33.5062 69.2225 33.4662C68.9373 33.4261 68.6834 33.451 68.4607 33.5409C68.2471 33.6239 68.0619 33.7635 67.905 33.9596C67.7482 34.1557 67.6209 34.4004 67.5232 34.6936C67.4265 34.9789 67.3526 35.3038 67.3014 35.6682L67.0976 37.118C67.0464 37.4824 67.0274 37.819 67.0405 38.1278C67.0548 38.4288 67.1102 38.6951 67.2069 38.9268C67.3036 39.1585 67.4427 39.3477 67.624 39.4944C67.8144 39.6342 68.0522 39.7242 68.3374 39.7643ZM78.1862 42.1663L72.5536 41.3747L72.734 40.0913L75.7163 38.099C76.1896 37.7777 76.5611 37.4624 76.8308 37.1529C77.1095 36.8366 77.2756 36.4883 77.3291 36.1081L77.3508 35.9536C77.4075 35.5496 77.3293 35.2154 77.116 34.9512C76.9106 34.688 76.6019 34.5275 76.19 34.4696C75.9603 34.4373 75.7532 34.4446 75.5689 34.4914C75.3936 34.5314 75.2343 34.6019 75.0908 34.7029C74.9474 34.8039 74.8209 34.9275 74.7115 35.0737C74.61 35.221 74.5227 35.3825 74.4496 35.558L73.3366 34.9411C73.4605 34.6919 73.6144 34.4591 73.7983 34.2425C73.9834 34.0181 74.2041 33.827 74.4606 33.6691C74.717 33.5113 75.0075 33.3986 75.3321 33.3311C75.6646 33.2648 76.0407 33.2611 76.4606 33.3201C76.8805 33.3791 77.2479 33.4954 77.5628 33.6689C77.8788 33.8345 78.1322 34.0438 78.3228 34.2968C78.5225 34.5429 78.6606 34.8249 78.7371 35.1426C78.8136 35.4604 78.8269 35.7975 78.7767 36.154C78.73 36.4867 78.6351 36.7885 78.492 37.0592C78.3489 37.3299 78.1685 37.5792 77.9506 37.8071C77.7328 38.035 77.4849 38.2466 77.2071 38.4418C76.9371 38.6382 76.6508 38.8362 76.348 39.036L74.1637 40.4377L78.3466 41.0255L78.1862 42.1663ZM83.1488 42.8638L83.3759 41.2477L79.5258 40.7066L79.6878 39.5539L83.8273 34.5008L85.586 34.748L84.7961 40.3688L85.925 40.5274L85.7763 41.585L84.6474 41.4264L84.4203 43.0425L83.1488 42.8638ZM80.8152 39.8093L83.5246 40.1901L84.1425 35.7933L84.0593 35.7816L80.8152 39.8093ZM49.3845 51.2988L48.3828 48.4678L48.3293 48.4603L46.9916 57.9788L45.0665 57.7082L46.8151 45.2665L49.061 45.5821L52.1581 53.0337L53.1598 55.8646L53.2133 55.8722L54.551 46.3537L56.4761 46.6243L54.7275 59.066L52.4816 58.7503L49.3845 51.2988ZM61.2546 60.2014C60.5892 60.1079 60.0109 59.9115 59.5198 59.6122C59.0286 59.313 58.6281 58.9295 58.3182 58.4618C58.0099 57.9823 57.7965 57.4312 57.678 56.8086C57.5731 56.1759 57.5724 55.4911 57.6759 54.7544C57.7795 54.0176 57.968 53.3655 58.2417 52.7981C58.5289 52.2204 58.8859 51.7495 59.3127 51.3854C59.7412 51.0093 60.2328 50.7452 60.7874 50.5929C61.3419 50.4406 61.952 50.4112 62.6174 50.5047C63.2948 50.5999 63.8722 50.8023 64.3498 51.1117C64.8393 51.4229 65.2262 51.8166 65.5107 52.2928C65.7969 52.7571 65.9839 53.2803 66.0718 53.8622C66.1715 54.4457 66.1763 55.0583 66.0861 55.7L65.9834 56.4309L59.62 55.5365L59.5774 55.8395C59.4772 56.5525 59.6025 57.17 59.9532 57.6919C60.3176 58.2036 60.8919 58.5145 61.6762 58.6248C62.2466 58.7049 62.7454 58.6478 63.1726 58.4533C63.5998 58.2589 63.9801 57.967 64.3136 57.5776L65.2965 58.8609C64.8718 59.3829 64.3084 59.7702 63.6064 60.023C62.906 60.2639 62.1221 60.3233 61.2546 60.2014ZM62.4045 52.0198C62.0718 51.9731 61.7545 51.9891 61.4526 52.0678C61.1625 52.1482 60.9015 52.2812 60.6694 52.4667C60.4492 52.6539 60.2648 52.8885 60.1161 53.1705C59.9674 53.4526 59.868 53.7719 59.8179 54.1284L59.8003 54.2531L64.1139 54.8594L64.139 54.6811C64.2392 53.9681 64.1352 53.3719 63.8269 52.8923C63.5203 52.4008 63.0462 52.11 62.4045 52.0198ZM67.8418 51.4571L69.7312 51.7226L70.1298 55.7412L70.4741 59.3704L70.5276 59.378L71.9836 56.0017L73.6527 52.2738L75.3995 52.5193L75.9942 56.5654L76.4811 60.2147L76.5345 60.2222L77.848 56.8259L79.3566 53.0754L81.1569 53.3284L77.3588 62.2466L75.1664 61.9385L74.548 57.5436L74.1651 54.836L74.1294 54.831L73.0329 57.3307L71.2092 61.3823L69.0703 61.0817L67.8418 51.4571ZM83.6836 63.1355C83.0181 63.042 82.5424 62.8055 82.2564 62.426C81.984 62.0363 81.8904 61.5384 81.9755 60.9323L83.5588 49.667L85.5017 49.9401L83.8709 61.5441L85.1542 61.7244L84.9313 63.3108L83.6836 63.1355ZM93.6374 55.0824L95.509 55.3455L90.0447 65.9017C89.8943 66.1956 89.7328 66.4395 89.5601 66.6334C89.3977 66.8408 89.2122 66.9965 89.0037 67.1005C88.8054 67.218 88.5714 67.2882 88.3016 67.3108C88.0301 67.3454 87.7162 67.3376 87.3597 67.2875L86.2367 67.1297L86.4597 65.5433L88.0282 65.7637L88.7834 64.2703L86.7748 54.1179L88.7177 54.391L89.8049 60.1059L90.0566 62.1953L90.1457 62.2078L91.017 60.2763L93.6374 55.0824ZM25.3198 75.1296L27.0684 62.6878L29.0826 62.9709L27.5846 73.6301L32.6468 74.3416L32.3963 76.1241L25.3198 75.1296ZM41.1246 77.3508C40.6136 77.279 40.2415 77.0812 40.0083 76.7576C39.7767 76.4221 39.663 76.0244 39.667 75.5645L39.5779 75.552C39.3178 76.1092 38.9292 76.503 38.4122 76.7333C37.8951 76.9635 37.2979 77.0311 36.6205 76.9359C35.658 76.8006 34.9504 76.4467 34.4976 75.8741C34.0568 75.3032 33.8957 74.5959 34.0143 73.7522C34.1445 72.8253 34.5749 72.1769 35.3055 71.807C36.048 71.4387 37.0669 71.3456 38.3622 71.5276L40.0377 71.7631L40.1479 70.9788C40.2281 70.4084 40.1354 69.947 39.8699 69.5947C39.6043 69.2423 39.1448 69.0201 38.4912 68.9283C37.9445 68.8515 37.4822 68.9077 37.1042 69.0969C36.7262 69.2861 36.3925 69.5482 36.103 69.8832L35.0922 68.6687C35.4747 68.1893 35.9685 67.8224 36.5738 67.5682C37.1807 67.3021 37.9358 67.2325 38.8389 67.3594C40.0391 67.5281 40.9208 67.9368 41.484 68.5855C42.0472 69.2342 42.2553 70.0814 42.1084 71.1271L41.4545 75.7794L42.4349 75.9172L42.2119 77.5036L41.1246 77.3508ZM37.381 75.5341C37.9871 75.6193 38.5045 75.5587 38.9334 75.3524C39.364 75.1342 39.611 74.7993 39.6745 74.3477L39.8623 73.0109L38.2225 72.7804C36.8796 72.5917 36.1498 72.9132 36.0329 73.745L35.9878 74.0659C35.9293 74.4818 36.0217 74.8159 36.265 75.0682C36.5218 75.3103 36.8938 75.4656 37.381 75.5341ZM49.9464 77.0274L49.8751 77.0174C49.7602 77.2314 49.6164 77.4354 49.4437 77.6293C49.283 77.8248 49.0839 77.9907 48.8466 78.127C48.6229 78.2531 48.3558 78.3428 48.0454 78.3961C47.7468 78.4511 47.4074 78.4519 47.0272 78.3984C46.0646 78.2632 45.3594 77.849 44.9115 77.1559C44.4755 76.4645 44.3385 75.5425 44.5005 74.3898L45.3297 68.4898L47.2726 68.7628L46.4784 74.4133C46.2764 75.8512 46.7695 76.6536 47.9578 76.8206C48.2074 76.8557 48.4551 76.8602 48.7012 76.8342C48.9488 76.7963 49.171 76.7245 49.3676 76.6188C49.5761 76.5149 49.748 76.3694 49.8834 76.1824C50.0306 75.9971 50.1234 75.7678 50.1618 75.4944L51.0336 69.2914L52.9765 69.5645L51.6739 78.8334L49.7309 78.5603L49.9464 77.0274ZM54.4559 79.2244L55.7586 69.9554L57.7015 70.2285L57.486 71.7614L57.5752 71.774C57.8473 71.3033 58.2088 70.9299 58.6596 70.654C59.1223 70.3797 59.7101 70.2927 60.4231 70.3929C61.3738 70.5265 62.0663 70.9449 62.5006 71.6482C62.9485 72.3413 63.0915 73.2642 62.9295 74.4169L62.1028 80.2991L60.1599 80.026L60.9515 74.3934C61.1552 72.9436 60.6748 72.1369 59.5103 71.9732C59.2607 71.9381 59.0062 71.9387 58.7466 71.975C58.5006 72.001 58.2733 72.066 58.0648 72.17C57.8563 72.274 57.6785 72.4186 57.5312 72.6039C57.3959 72.7909 57.309 73.0211 57.2706 73.2944L56.3988 79.4974L54.4559 79.2244ZM68.3484 81.3949C67.683 81.3014 67.1047 81.105 66.6136 80.8058C66.1224 80.5065 65.7278 80.1239 65.4298 79.6578C65.1334 79.1799 64.9319 78.6306 64.8253 78.0097C64.7203 77.3769 64.7196 76.6921 64.8232 75.9554C64.9267 75.2186 65.1153 74.5665 65.3889 73.9991C65.6642 73.4198 66.0094 72.9472 66.4243 72.5814C66.8409 72.2037 67.3265 71.9387 67.8811 71.7864C68.4357 71.6341 69.0458 71.6047 69.7112 71.6982C70.6381 71.8285 71.3694 72.1434 71.9051 72.6428C72.4408 73.1422 72.7969 73.7557 72.9734 74.4833L71.2639 75.0065C71.1933 74.5604 71.0092 74.1891 70.7115 73.8928C70.4274 73.5863 70.018 73.3955 69.4833 73.3203C68.7703 73.2201 68.1978 73.3699 67.766 73.7697C67.3477 74.1593 67.0885 74.7105 66.9883 75.4235L66.7553 77.0812C66.6551 77.7942 66.7515 78.4016 67.0445 78.9032C67.3511 79.3947 67.8609 79.6905 68.5739 79.7907C69.1443 79.8709 69.6151 79.7977 69.9862 79.5711C70.3709 79.3344 70.6968 78.9985 70.964 78.5634L72.3332 79.5556C71.9174 80.2727 71.3721 80.7899 70.6974 81.1071C70.0227 81.4242 69.2397 81.5202 68.3484 81.3949ZM75.736 68.7642L77.6789 69.0372L76.9123 74.4916L77.0014 74.5042C77.2736 74.0334 77.6351 73.6601 78.0859 73.3842C78.5485 73.1099 79.1364 73.0229 79.8494 73.1231C80.8 73.2567 81.4925 73.6751 81.9269 74.3784C82.3748 75.0715 82.5177 75.9944 82.3557 77.147L81.529 83.0292L79.5861 82.7562L80.3803 77.1057C80.5823 75.6678 80.1011 74.8671 78.9365 74.7034C78.687 74.6683 78.4324 74.6689 78.1729 74.7051C77.9269 74.7312 77.6996 74.7962 77.4911 74.9002C77.2826 75.0041 77.1047 75.1488 76.9575 75.3341C76.8222 75.5211 76.7361 75.7453 76.6994 76.0067L75.8251 82.2276L73.8822 81.9545L75.736 68.7642ZM87.8282 84.1326C87.1627 84.0391 86.5844 83.8427 86.0933 83.5435C85.6022 83.2442 85.2016 82.8607 84.8917 82.393C84.5835 81.9135 84.3701 81.3624 84.2516 80.7399C84.1466 80.1071 84.1459 79.4223 84.2494 78.6856C84.353 77.9488 84.5416 77.2967 84.8152 76.7293C85.1024 76.1516 85.4594 75.6807 85.8862 75.3166C86.3147 74.9406 86.8063 74.6764 87.3609 74.5241C87.9155 74.3718 88.5255 74.3424 89.191 74.4359C89.8683 74.5311 90.4458 74.7335 90.9234 75.043C91.4128 75.3541 91.7998 75.7478 92.0843 76.224C92.3704 76.6884 92.5575 77.2115 92.6453 77.7934C92.7451 78.3769 92.7499 78.9896 92.6597 79.6313L92.557 80.3621L86.1935 79.4677L86.1509 79.7708C86.0507 80.4838 86.176 81.1012 86.5268 81.6231C86.8911 82.1348 87.4654 82.4457 88.2497 82.556C88.8201 82.6361 89.3189 82.579 89.7461 82.3846C90.1734 82.1901 90.5537 81.8982 90.8871 81.5088L91.8701 82.7921C91.4453 83.3141 90.8819 83.7014 90.1799 83.9542C89.4796 84.1951 88.6957 84.2546 87.8282 84.1326ZM88.978 75.9511C88.6453 75.9043 88.328 75.9203 88.0261 75.999C87.7361 76.0795 87.475 76.2124 87.243 76.3979C87.0228 76.5851 86.8383 76.8197 86.6896 77.1018C86.5409 77.3838 86.4415 77.7031 86.3914 78.0596L86.3739 78.1844L90.6875 78.7906L90.7125 78.6123C90.8127 77.8994 90.7087 77.3031 90.4005 76.8235C90.0939 76.3321 89.6197 76.0412 88.978 75.9511ZM100.171 84.0859L100.082 84.0734C99.8028 84.5917 99.4099 84.9727 98.9031 85.2165C98.4081 85.462 97.8516 85.5414 97.2337 85.4545C96.0573 85.2892 95.2075 84.7396 94.6844 83.8057C94.1629 82.8599 94.0099 81.6205 94.2254 80.0876C94.4408 78.5547 94.9287 77.4114 95.6889 76.6579C96.4509 75.8925 97.4201 75.5925 98.5965 75.7578C99.2144 75.8446 99.7275 76.0743 100.136 76.4467C100.557 76.8089 100.83 77.2835 100.953 77.8704L101.043 77.8829L101.809 72.4285L103.752 72.7016L101.898 85.8919L99.9553 85.6189L100.171 84.0859ZM98.0574 83.8616C98.6516 83.9451 99.1707 83.8727 99.6148 83.6443C100.061 83.404 100.317 83.0462 100.384 82.5708L100.83 79.398C100.896 78.9227 100.748 78.514 100.384 78.1721C100.022 77.8182 99.5434 77.5995 98.9492 77.516C98.2719 77.4208 97.7003 77.5647 97.2345 77.9476C96.7703 78.3186 96.4881 78.8606 96.3879 79.5736L96.1625 81.1778C96.0623 81.8908 96.1833 82.4955 96.5255 82.992C96.8694 83.4766 97.3801 83.7664 98.0574 83.8616ZM105.996 82.8325L106.121 77.4152L106.62 73.8681L108.723 74.1637L108.225 77.7108L106.887 82.9578L105.996 82.8325ZM105.911 86.674C105.459 86.6105 105.142 86.4568 104.958 86.2129C104.787 85.9587 104.726 85.6593 104.775 85.3147L104.817 85.0117C104.866 84.667 105.006 84.402 105.238 84.2165C105.484 84.0208 105.832 83.9546 106.284 84.0181C106.736 84.0816 107.047 84.2404 107.217 84.4945C107.401 84.7385 107.468 85.0328 107.42 85.3774L107.377 85.6804C107.329 86.025 107.182 86.2952 106.936 86.4909C106.704 86.6764 106.362 86.7375 105.911 86.674Z" fill="#00E6C5"/>
<path d="M94.0618 130.089L91.9939 130.952L27.4197 121.77L25.954 120.619L1.49142 59.8138L1.78205 57.7459L41.9377 5.88127L43.8108 5.12756L108.423 14.1018L110.016 15.3425L134.507 76.1863L134.222 78.2191L94.0618 130.089Z" stroke="#00E6C5" stroke-width="2"/>
<g clip-path="url(#clip1_624_11356)">
<path d="M76.6648 109.167L45.6798 105.024C44.7439 103.923 44.3516 102.404 44.7342 100.902C45.3636 98.4359 47.8832 96.9622 50.3284 97.5987C50.5336 97.6478 50.736 97.7166 50.9172 97.7926C52.1893 95.6387 54.6655 94.3305 57.2911 94.6894C58.0437 94.7952 58.7485 95.0255 59.3786 95.3565C61.1092 93.3175 63.7936 92.18 66.6286 92.5582C70.5146 93.0741 73.3772 96.2736 73.636 100.036C74.0262 99.9901 74.4307 99.9864 74.8367 100.043C77.5316 100.412 79.4167 102.878 79.058 105.575C78.8395 107.129 77.9204 108.424 76.6648 109.167Z" fill="white" stroke="#1A1A1A" stroke-linecap="round" stroke-linejoin="round"/>
<path d="M67.9625 102.036L56.0965 100.459L55.2148 101.416" stroke="#1A1A1A" stroke-miterlimit="10"/>
<path d="M67.701 104.039C66.6103 103.896 65.8232 102.887 65.979 101.778C66.1181 100.717 67.0751 99.9423 68.1332 100.03L68.2322 100.044C69.3314 100.199 70.1087 101.207 69.9641 102.307C69.8152 103.367 68.8793 104.134 67.81 104.055L67.701 104.039Z" fill="#1A1A1A"/>
<path d="M68.1126 100.25C68.1126 100.25 68.1721 100.258 68.2018 100.262C69.1821 100.4 69.8842 101.296 69.745 102.287C69.6114 103.237 68.7687 103.917 67.8196 103.844C67.7899 103.84 67.7503 103.834 67.7206 103.83C66.7402 103.692 66.0381 102.796 66.1773 101.805C66.3109 100.855 67.1536 100.175 68.1126 100.25ZM68.1428 99.8196C66.9645 99.7247 65.9171 100.567 65.7515 101.746C65.5888 102.975 66.4512 104.096 67.6621 104.246C67.7017 104.251 67.7413 104.257 67.7809 104.263C68.9493 104.356 69.9967 103.514 70.1722 102.337C70.3434 101.119 69.4711 99.9962 68.2616 99.8363C68.222 99.8308 68.1923 99.8266 68.1527 99.821L68.1428 99.8196Z" fill="white"/>
<path d="M61.2573 103.184C60.1581 103.03 59.3808 102.022 59.5268 100.911C59.6757 99.8516 60.6229 99.0759 61.6908 99.1654L61.7899 99.1793C62.8792 99.3324 63.6663 100.342 63.5218 101.442C63.3728 102.502 62.4257 103.278 61.3577 103.188L61.2587 103.174L61.2573 103.184Z" fill="#1A1A1A"/>
<path d="M61.6703 99.3846C61.6703 99.3846 61.7297 99.393 61.7594 99.3971C62.7497 99.5363 63.4419 100.431 63.3027 101.422C63.1691 102.372 62.3263 103.052 61.3673 102.977C61.3376 102.973 61.3079 102.969 61.2782 102.965C60.2979 102.827 59.5972 101.921 59.735 100.94C59.8699 99.9798 60.7113 99.3104 61.6703 99.3846ZM61.709 98.9659C60.5307 98.871 59.4833 99.7134 59.3176 100.892C59.1465 102.11 60.0188 103.232 61.2269 103.402C61.2665 103.408 61.2962 103.412 61.3358 103.417C62.5141 103.512 63.5714 102.671 63.7271 101.491C63.8983 100.273 63.0161 99.1496 61.8179 98.9812C61.7783 98.9757 61.7387 98.9701 61.709 98.9659Z" fill="white"/>
</g>
</g>
<defs>
<clipPath id="clip0_624_11356">
<rect width="136" height="136" fill="white"/>
</clipPath>
<clipPath id="clip1_624_11356">
<rect width="36" height="18" fill="white" transform="translate(45.9836 88.1319) rotate(8)"/>
</clipPath>
</defs>
</svg>
