<svg width="26" height="28" viewBox="0 0 26 28" fill="none" xmlns="http://www.w3.org/2000/svg">
<path d="M11.7324 25.717H3.33411L2 24.3851V8.69141H13.0665V24.3851L11.7324 25.717Z" stroke="#1A1A1A" stroke-linecap="round" stroke-linejoin="round"/>
<path d="M11.9168 7.18913L11.9145 4.24073L10.6827 3H4.38347L3.14941 4.24073V7.18691" stroke="#1A1A1A" stroke-linecap="round" stroke-linejoin="round"/>
<path d="M20.2867 1L18.6279 1.96056V3.88169L20.2867 4.84226L21.9454 3.88169V1.96056L20.2867 1Z" stroke="#1A1A1A" stroke-linecap="round" stroke-linejoin="round"/>
<path d="M21.3887 5.48438L23.163 7.05863V10.534L22.058 11.8681L24.1214 14.3185V20.233" stroke="#1A1A1A" stroke-linecap="round" stroke-linejoin="round"/>
<path d="M19.1839 5.48438L17.4117 7.05863V10.4584L18.5146 11.8681L16.4512 14.4118V20.233H19.3284V26.0076" stroke="#1A1A1A" stroke-linecap="round" stroke-linejoin="round"/>
<path d="M21.2461 26.0069V20.2324H24.1233" stroke="#1A1A1A" stroke-linecap="round" stroke-linejoin="round"/>
</svg>
