<svg width="136" height="136" viewBox="0 0 136 136" fill="none" xmlns="http://www.w3.org/2000/svg">
<g clip-path="url(#clip0_624_11937)">
<path d="M36.3387 45.1842L35.2744 43.0435L32.1729 43.4794L31.7637 45.8272L30.3971 46.0193L32.0596 37.3273L33.747 37.0902L37.7409 44.9872L36.3387 45.1842ZM33.077 38.4446L33.0176 38.4529L32.3318 42.2816L34.7797 41.9376L33.077 38.4446ZM39.9832 44.672L37.0115 38.7884L38.2949 38.608L39.6294 41.2924L40.5632 43.3666L40.6345 43.3566L40.9604 41.1053L41.5271 38.1537L42.7629 37.98L41.5043 44.4583L39.9832 44.672ZM49.1444 43.3845C48.8037 43.4324 48.5289 43.3741 48.32 43.2095C48.1099 43.0371 47.964 42.8031 47.882 42.5077L47.8226 42.516C47.7583 42.9209 47.5817 43.2446 47.2926 43.4872C47.0036 43.7298 46.6333 43.8828 46.1817 43.9463C45.54 44.0365 45.0215 43.9397 44.6262 43.656C44.2388 43.3711 44.0055 42.9474 43.9265 42.385C43.8396 41.767 43.9963 41.2724 44.3965 40.9011C44.8047 40.5287 45.4405 40.2818 46.304 40.1604L47.421 40.0034L47.3476 39.4806C47.2941 39.1003 47.1499 38.8217 46.915 38.6447C46.6801 38.4676 46.3448 38.4097 45.909 38.471C45.5446 38.5222 45.2587 38.6432 45.0512 38.8339C44.8437 39.0246 44.678 39.2539 44.5541 39.5218L43.6832 38.9292C43.8401 38.5517 44.0892 38.2258 44.4304 37.9517C44.7704 37.6696 45.2415 37.4863 45.8436 37.4017C46.6437 37.2892 47.2839 37.3891 47.764 37.7013C48.2441 38.0135 48.5332 38.5182 48.6311 39.2154L49.067 42.3169L49.7206 42.225L49.8692 43.2826L49.1444 43.3845ZM46.4115 42.9082C46.8155 42.8514 47.136 42.7175 47.3729 42.5065C47.6087 42.2876 47.7055 42.0276 47.6632 41.7265L47.5379 40.8353L46.4447 40.9889C45.5495 41.1147 45.1408 41.4549 45.2188 42.0095L45.2488 42.2234C45.2878 42.5006 45.4084 42.6978 45.6107 42.8148C45.8197 42.9227 46.0867 42.9539 46.4115 42.9082ZM50.7685 35.728C50.4992 35.7658 50.2922 35.7303 50.1476 35.6213C50.011 35.5113 49.9287 35.3572 49.9009 35.1592L49.8725 34.9572C49.8447 34.7591 49.8813 34.5884 49.9823 34.4449C50.0912 34.3003 50.2804 34.2091 50.5497 34.1713C50.8191 34.1334 51.0221 34.1695 51.1587 34.2796C51.2954 34.3896 51.3776 34.5437 51.4055 34.7417L51.4338 34.9437C51.4617 35.1418 51.4251 35.3125 51.3241 35.456C51.2231 35.5995 51.0379 35.6901 50.7685 35.728ZM50.2703 36.925L51.5655 36.7429L52.434 42.9222L51.1387 43.1042L50.2703 36.925ZM55.6026 42.4769C55.159 42.5392 54.8107 42.4751 54.5577 42.2844C54.3115 42.0847 54.16 41.7829 54.1032 41.3789L53.0477 33.8687L54.343 33.6866L55.4302 41.4226L56.2858 41.3024L56.4344 42.36L55.6026 42.4769ZM62.1997 41.5497C61.859 41.5976 61.5842 41.5393 61.3753 41.3747C61.1652 41.2023 61.0193 40.9683 60.9373 40.6729L60.8779 40.6812C60.8136 41.0861 60.637 41.4098 60.3479 41.6524C60.0589 41.895 59.6886 42.048 59.237 42.1115C58.5953 42.2017 58.0768 42.1049 57.6815 41.8212C57.294 41.5363 57.0608 41.1126 56.9818 40.5502C56.8949 39.9322 57.0516 39.4376 57.4518 39.0663C57.86 38.6939 58.4958 38.447 59.3593 38.3256L60.4763 38.1686L60.4028 37.6458C60.3494 37.2655 60.2052 36.9869 59.9703 36.8099C59.7354 36.6328 59.4 36.5749 58.9643 36.6362C58.5999 36.6874 58.314 36.8084 58.1065 36.9991C57.899 37.1898 57.7333 37.4191 57.6094 37.687L56.7384 37.0944C56.8954 36.7169 57.1445 36.391 57.4857 36.1169C57.8257 35.8348 58.2968 35.6515 58.8989 35.5669C59.699 35.4544 60.3391 35.5543 60.8193 35.8665C61.2994 36.1787 61.5884 36.6834 61.6864 37.3806L62.1223 40.4821L62.7759 40.3902L62.9245 41.4478L62.1997 41.5497ZM59.4668 41.0734C59.8708 41.0166 60.1913 40.8827 60.4282 40.6717C60.664 40.4528 60.7608 40.1928 60.7185 39.8917L60.5932 39.0005L59.5 39.1541C58.6048 39.2799 58.1961 39.6201 58.2741 40.1747L58.3041 40.3886C58.3431 40.6658 58.4637 40.863 58.666 40.98C58.875 41.0879 59.142 41.1191 59.4668 41.0734ZM62.9581 32.4758L64.2534 32.2938L64.7644 35.9301L64.8239 35.9217C64.9062 35.5305 65.084 35.2146 65.3572 34.9743C65.6372 34.7249 65.9832 34.5712 66.3951 34.5133C67.1794 34.4031 67.8256 34.6031 68.3335 35.1134C68.8404 35.6158 69.1656 36.3779 69.3092 37.3999C69.4529 38.4218 69.3509 39.2481 69.0032 39.8786C68.6545 40.5012 68.088 40.8676 67.3037 40.9778C66.8917 41.0357 66.5168 40.9834 66.1789 40.8208C65.8489 40.6572 65.5909 40.4026 65.405 40.0571L65.3456 40.0654L65.4893 41.0874L64.194 41.2694L62.9581 32.4758ZM66.7545 39.9159C67.2061 39.8524 67.5465 39.6592 67.7758 39.3361C68.0039 39.0051 68.0846 38.602 68.0178 38.1267L67.8675 37.0572C67.8007 36.5818 67.6126 36.2205 67.3032 35.9732C66.9926 35.7179 66.6115 35.622 66.16 35.6855C65.7639 35.7411 65.4451 35.8869 65.2035 36.1228C64.9609 36.3508 64.8619 36.6233 64.9064 36.9401L65.2037 39.0554C65.2482 39.3722 65.4191 39.6108 65.7163 39.771C66.0123 39.9233 66.3584 39.9716 66.7545 39.9159ZM72.5455 40.0957C72.1018 40.1581 71.7535 40.0939 71.5005 39.9033C71.2543 39.7036 71.1029 39.4017 71.0461 38.9977L69.9906 31.4875L71.2859 31.3055L72.3731 39.0414L73.2287 38.9212L73.3773 39.9788L72.5455 40.0957ZM77.0592 39.6067C76.6156 39.6691 76.2089 39.6495 75.8392 39.548C75.4694 39.4464 75.1423 39.2743 74.8578 39.0315C74.5721 38.7809 74.3341 38.4669 74.1437 38.0897C73.9602 37.7035 73.8339 37.2648 73.7649 36.7737C73.6959 36.2825 73.6969 35.8299 73.768 35.416C73.8459 34.9931 73.9881 34.6257 74.1947 34.3139C74.4002 33.9942 74.6667 33.7346 74.9941 33.5351C75.3215 33.3356 75.7071 33.2046 76.1507 33.1423C76.6023 33.0788 77.0095 33.1024 77.3724 33.2129C77.7433 33.3224 78.0636 33.5036 78.3334 33.7565C78.6021 34.0015 78.8181 34.3023 78.9814 34.6591C79.1525 35.0147 79.2682 35.4064 79.3283 35.8342L79.3968 36.3215L75.1544 36.9177L75.1828 37.1197C75.2496 37.595 75.4434 37.9677 75.7641 38.2377C76.0916 38.4986 76.5168 38.5924 77.0396 38.5189C77.4199 38.4654 77.7291 38.3372 77.9671 38.1341C78.2052 37.931 78.3952 37.674 78.5374 37.3632L79.4031 38.005C79.2268 38.4175 78.937 38.7693 78.5335 39.0602C78.129 39.3433 77.6375 39.5255 77.0592 39.6067ZM76.2927 34.1524C76.0708 34.1835 75.8704 34.2521 75.6914 34.358C75.5204 34.4629 75.3775 34.596 75.2629 34.7576C75.1562 34.918 75.0811 35.1022 75.0376 35.3103C74.9941 35.5184 74.9891 35.7412 75.0225 35.9789L75.0342 36.0621L77.9099 35.6579L77.8932 35.5391C77.8264 35.0638 77.6502 34.7008 77.3645 34.4501C77.0777 34.1915 76.7205 34.0922 76.2927 34.1524ZM83.6275 33.3154L82.6887 33.4473L82.5401 32.3897L83.4788 32.2578L83.3352 31.2358C83.2651 30.7367 83.3412 30.3302 83.5637 30.0162C83.785 29.6942 84.1571 29.4965 84.68 29.423L85.702 29.2794L85.8506 30.337L84.5553 30.5191L84.7741 32.0758L86.0694 31.8937L86.218 32.9513L84.9227 33.1334L85.6425 38.255L84.3473 38.4371L83.6275 33.3154ZM90.4627 37.723C90.0349 37.7831 89.6321 37.763 89.2545 37.6626C88.8848 37.561 88.5576 37.3889 88.2731 37.1461C87.9874 36.8955 87.7494 36.5815 87.559 36.2043C87.3676 35.8192 87.2373 35.3811 87.1683 34.8899C87.0993 34.3988 87.1043 33.9457 87.1833 33.5306C87.2612 33.1077 87.4034 32.7403 87.61 32.4285C87.8156 32.1088 88.082 31.8492 88.4094 31.6497C88.7448 31.449 89.1263 31.3187 89.5541 31.2585C89.9819 31.1984 90.3807 31.2191 90.7504 31.3207C91.1281 31.4211 91.4597 31.5966 91.7454 31.8473C92.03 32.0901 92.268 32.404 92.4594 32.7891C92.6498 33.1663 92.7795 33.6005 92.8485 34.0916C92.9175 34.5828 92.9131 35.0399 92.8352 35.4628C92.7562 35.8779 92.6139 36.2452 92.4084 36.565C92.2018 36.8767 91.9308 37.1329 91.5955 37.3336C91.2681 37.5331 90.8905 37.6629 90.4627 37.723ZM90.3124 36.6535C90.756 36.5912 91.0936 36.4064 91.3251 36.0992C91.5554 35.7841 91.6322 35.3532 91.5554 34.8066L91.4084 33.7608C91.3316 33.2142 91.1396 32.8251 90.8324 32.5936C90.5241 32.3542 90.1481 32.2657 89.7044 32.328C89.2608 32.3904 88.9238 32.5791 88.6934 32.8943C88.4619 33.2015 88.3846 33.6284 88.4614 34.175L88.6084 35.2207C88.6852 35.7674 88.8778 36.1604 89.1861 36.3998C89.4933 36.6313 89.8687 36.7159 90.3124 36.6535ZM94.726 36.9784L93.8575 30.7992L95.1528 30.6171L95.3198 31.8054L95.3792 31.7971C95.4218 31.468 95.5651 31.1651 95.8089 30.8884C96.0528 30.6118 96.4203 30.439 96.9115 30.37L97.2561 30.3215L97.4315 31.5693L96.9205 31.6411C96.4056 31.7134 96.0211 31.8523 95.7673 32.0576C95.5213 32.2618 95.4211 32.5264 95.4668 32.8512L96.0212 36.7964L94.726 36.9784ZM25.8282 67.0761C24.7825 67.223 23.8645 67.1582 23.0743 66.8814C22.296 66.603 21.6003 66.1797 20.9873 65.6115L22.1947 64.1149C22.7096 64.5879 23.2476 64.9243 23.8089 65.1241C24.382 65.3223 25.0073 65.3737 25.6846 65.2785C26.4808 65.1667 27.0559 64.9041 27.4098 64.4908C27.7637 64.0775 27.8981 63.5678 27.8129 62.9618C27.7444 62.4746 27.5476 62.1084 27.2223 61.8633C26.897 61.6182 26.3619 61.4753 25.617 61.4346L24.4843 61.3938C23.2405 61.3384 22.2755 61.068 21.5893 60.5828C20.9031 60.0976 20.4898 59.3559 20.3495 58.3577C20.2727 57.8111 20.3044 57.3037 20.4446 56.8357C20.5951 56.354 20.8336 55.9388 21.1602 55.5899C21.4971 55.2275 21.9212 54.9256 22.4325 54.684C22.9439 54.4425 23.5323 54.275 24.1978 54.1815C25.1365 54.0495 25.9739 54.1015 26.7099 54.3374C27.4442 54.5614 28.0984 54.9481 28.6725 55.4975L27.4397 56.9432C27.0604 56.5724 26.6214 56.2947 26.1229 56.1103C25.6244 55.9259 25.0305 55.8821 24.3413 55.979C23.6283 56.0792 23.0958 56.2995 22.7437 56.6398C22.3917 56.9801 22.254 57.4235 22.3309 57.9702C22.4044 58.493 22.6199 58.8626 22.9775 59.079C23.3334 59.2834 23.8592 59.4034 24.5549 59.4389L25.6926 59.5153C26.9738 59.5777 27.9396 59.8539 28.5902 60.3442C29.2526 60.8327 29.654 61.5761 29.7943 62.5743C29.8761 63.1566 29.8494 63.6996 29.7142 64.2033C29.579 64.707 29.3395 65.1587 28.9958 65.5584C28.6623 65.9446 28.2297 66.272 27.6979 66.5406C27.1644 66.7974 26.5412 66.9759 25.8282 67.0761ZM35.1152 65.5527C34.4379 65.6479 33.9027 65.5474 33.5096 65.2513C33.1149 64.9432 32.8725 64.4683 32.7823 63.8266L31.9857 58.1583L30.5419 58.3612L30.3189 56.7748L31.1032 56.6646C31.424 56.6195 31.6339 56.5173 31.7327 56.358C31.8433 56.197 31.8761 55.9561 31.831 55.6353L31.6031 54.0132L33.3499 53.7677L33.7056 56.2989L35.6485 56.0258L35.8715 57.6122L33.9286 57.8853L34.7853 63.9814L36.5856 63.7283L36.8086 65.3147L35.1152 65.5527ZM45.85 64.0441C45.339 64.1159 44.9268 64.0284 44.6134 63.7816C44.2983 63.5229 44.0794 63.172 43.9565 62.7288L43.8673 62.7413C43.7709 63.3486 43.5059 63.8342 43.0724 64.1981C42.6388 64.562 42.0833 64.7916 41.406 64.8867C40.4434 65.022 39.6657 64.8769 39.0727 64.4512C38.4915 64.024 38.1417 63.3885 38.0231 62.5448C37.8929 61.6179 38.1279 60.8759 38.7282 60.319C39.3404 59.7603 40.2942 59.39 41.5894 59.2079L43.265 58.9725L43.1547 58.1882C43.0746 57.6178 42.8583 57.1998 42.5059 56.9343C42.1535 56.6687 41.6505 56.5819 40.997 56.6737C40.4503 56.7506 40.0214 56.932 39.7102 57.2181C39.399 57.5042 39.1504 57.8482 38.9646 58.2499L37.6581 57.3611C37.8936 56.7948 38.2672 56.3061 38.779 55.8948C39.2891 55.4717 39.9957 55.1967 40.8988 55.0698C42.099 54.9011 43.0592 55.0509 43.7794 55.5193C44.4996 55.9876 44.9331 56.7446 45.0801 57.7903L45.7339 62.4426L46.7143 62.3048L46.9373 63.8913L45.85 64.0441ZM41.7506 63.3296C42.3567 63.2445 42.8374 63.0436 43.1928 62.7271C43.5465 62.3986 43.6917 62.0086 43.6282 61.5571L43.4403 60.2202L41.8004 60.4507C40.4576 60.6394 39.8447 61.1497 39.9616 61.9815L40.0067 62.3023C40.0651 62.7183 40.2461 63.014 40.5494 63.1894C40.863 63.3514 41.2634 63.3981 41.7506 63.3296ZM48.8415 63.6236L47.5388 54.3547L49.4817 54.0817L49.6971 55.6146L49.7863 55.6021C49.9181 55.0746 50.1627 54.6161 50.52 54.2266C50.8891 53.8354 51.4302 53.5897 52.1432 53.4895C53.0938 53.3559 53.8749 53.5673 54.4862 54.1236C55.1078 54.6664 55.4996 55.5141 55.6616 56.6667L56.4883 62.5489L54.5454 62.822L53.7538 57.1894C53.55 55.7396 52.8659 55.0966 51.7013 55.2602C51.4518 55.2953 51.2072 55.366 50.9677 55.4724C50.7384 55.5652 50.5379 55.6903 50.3661 55.8478C50.1943 56.0052 50.0632 56.1933 49.9728 56.412C49.8942 56.629 49.8742 56.8742 49.9126 57.1475L50.7844 63.3506L48.8415 63.6236ZM64.7945 59.8184L64.7054 59.8309C64.5802 60.4059 64.3076 60.8805 63.8876 61.2546C63.4794 61.627 62.9664 61.8566 62.3485 61.9435C61.172 62.1088 60.2037 61.8147 59.4434 61.0612C58.6815 60.2958 58.1928 59.1466 57.9773 57.6137C57.7619 56.0807 57.9157 54.8473 58.4389 53.9134C58.9603 52.9677 59.8093 52.4121 60.9857 52.2468C61.6036 52.1599 62.1601 52.2392 62.6551 52.4847C63.1603 52.7167 63.5531 53.0977 63.8336 53.6279L63.9227 53.6153L63.1562 48.1609L65.0991 47.8879L66.9529 61.0782L65.01 61.3513L64.7945 59.8184ZM62.7012 60.1853C63.2954 60.1018 63.7744 59.889 64.1384 59.547C64.5007 59.1932 64.6484 58.7786 64.5816 58.3033L64.1357 55.1304C64.0689 54.6551 63.8134 54.3032 63.3693 54.0748C62.9235 53.8345 62.4036 53.7561 61.8094 53.8396C61.1321 53.9348 60.6223 54.2307 60.28 54.7271C59.9361 55.2117 59.8143 55.8105 59.9145 56.5235L60.1399 58.1277C60.2401 58.8407 60.5232 59.3886 60.989 59.7715C61.4531 60.1426 62.0239 60.2805 62.7012 60.1853ZM76.5212 59.7335C76.0102 59.8053 75.598 59.7178 75.2846 59.471C74.9696 59.2124 74.7506 58.8614 74.6277 58.4182L74.5386 58.4307C74.4422 59.0381 74.1772 59.5237 73.7436 59.8876C73.31 60.2515 72.7546 60.481 72.0772 60.5762C71.1147 60.7115 70.3369 60.5663 69.7439 60.1407C69.1628 59.7134 68.8129 59.0779 68.6943 58.2342C68.5641 57.3073 68.7991 56.5654 69.3994 56.0084C70.0117 55.4498 70.9654 55.0794 72.2607 54.8974L73.9362 54.6619L73.826 53.8776C73.7458 53.3072 73.5295 52.8893 73.1771 52.6237C72.8248 52.3582 72.3218 52.2713 71.6682 52.3632C71.1216 52.44 70.6927 52.6215 70.3814 52.9076C70.0702 53.1937 69.8217 53.5376 69.6358 53.9394L68.3294 53.0505C68.5649 52.4843 68.9385 51.9955 69.4502 51.5843C69.9603 51.1612 70.6669 50.8862 71.57 50.7592C72.7702 50.5906 73.7304 50.7404 74.4506 51.2087C75.1708 51.677 75.6044 52.4341 75.7513 53.4798L76.4052 58.1321L77.3855 57.9943L77.6085 59.5807L76.5212 59.7335ZM72.4219 59.0191C73.0279 58.9339 73.5086 58.733 73.864 58.4165C74.2178 58.0881 74.3629 57.6981 74.2994 57.2465L74.1116 55.9096L72.4717 56.1401C71.1289 56.3288 70.5159 56.8391 70.6328 57.6709L70.6779 57.9918C70.7364 58.4077 70.9173 58.7034 71.2207 58.8789C71.5342 59.0408 71.9346 59.0875 72.4219 59.0191ZM81.4912 59.035C80.8258 59.1285 80.3033 59.0323 79.9238 58.7463C79.5545 58.4468 79.3273 57.994 79.2421 57.388L77.6589 46.1227L79.6018 45.8496L81.2326 57.4536L82.516 57.2732L82.739 58.8596L81.4912 59.035ZM88.2619 58.3016C87.6202 58.3918 87.0161 58.3615 86.4496 58.2109C85.895 58.0586 85.4043 57.8004 84.9775 57.4363C84.549 57.0602 84.192 56.5893 83.9065 56.0236C83.6193 55.4459 83.4239 54.7887 83.3204 54.0519C83.2168 53.3152 83.2243 52.6355 83.3428 52.013C83.4596 51.3785 83.673 50.8275 83.983 50.3598C84.2912 49.8802 84.6909 49.4908 85.182 49.1916C85.685 48.8906 86.2574 48.6951 86.8991 48.6049C87.5408 48.5147 88.1389 48.5457 88.6935 48.698C89.26 48.8487 89.7575 49.112 90.186 49.488C90.6128 49.8522 90.9698 50.3231 91.257 50.9007C91.5425 51.4665 91.7371 52.1177 91.8406 52.8545C91.9442 53.5913 91.9375 54.2769 91.8207 54.9113C91.7022 55.5338 91.4888 56.0849 91.1805 56.5645C90.8706 57.0322 90.4641 57.4165 89.9611 57.7174C89.47 58.0167 88.9036 58.2114 88.2619 58.3016ZM88.0364 56.6973C88.7019 56.6038 89.2082 56.3267 89.5555 55.8658C89.9011 55.3931 90.0162 54.7468 89.901 53.9269L89.6805 52.3583C89.5653 51.5384 89.2773 50.9548 88.8165 50.6075C88.354 50.2484 87.79 50.1156 87.1246 50.2091C86.4591 50.3026 85.9536 50.5857 85.608 51.0584C85.2608 51.5192 85.1447 52.1596 85.26 52.9796L85.4804 54.5482C85.5957 55.3681 85.8845 55.9576 86.347 56.3168C86.8078 56.664 87.371 56.7909 88.0364 56.6973ZM94.6568 57.1847L93.3542 47.9158L95.2971 47.6427L95.5125 49.1757L95.6016 49.1631C95.7335 48.6357 95.9781 48.1772 96.3353 47.7876C96.7045 47.3965 97.2456 47.1508 97.9586 47.0506C98.9092 46.917 99.6902 47.1283 100.302 47.6846C100.923 48.2274 101.315 49.0751 101.477 50.2278L102.304 56.11L100.361 56.3831L99.5692 50.7504C99.3654 49.3007 98.6813 48.6576 97.5167 48.8213C97.2672 48.8564 97.0226 48.9271 96.7831 49.0335C96.5538 49.1263 96.3532 49.2514 96.1815 49.4088C96.0097 49.5663 95.8786 49.7544 95.7882 49.9731C95.7096 50.1901 95.6895 50.4353 95.728 50.7086L96.5997 56.9116L94.6568 57.1847ZM108.663 55.4344C107.997 55.5279 107.387 55.4985 106.833 55.3462C106.278 55.1939 105.788 54.9357 105.361 54.5716C104.932 54.1956 104.575 53.7247 104.29 53.1589C104.014 52.5796 103.825 51.9215 103.721 51.1848C103.618 50.448 103.619 49.7692 103.726 49.1483C103.843 48.5139 104.056 47.9628 104.366 47.4951C104.674 47.0156 105.074 46.6261 105.565 46.3269C106.056 46.0276 106.635 45.8312 107.3 45.7377C107.978 45.6425 108.588 45.6778 109.133 45.8437C109.689 46.0079 110.17 46.2796 110.574 46.659C110.977 47.0265 111.301 47.4778 111.546 48.0129C111.803 48.5464 111.976 49.1339 112.067 49.7756L112.169 50.5065L105.806 51.4008L105.848 51.7038C105.949 52.4168 106.239 52.9758 106.72 53.3808C107.211 53.7722 107.849 53.9128 108.634 53.8026C109.204 53.7224 109.668 53.53 110.025 53.2254C110.382 52.9207 110.667 52.5353 110.88 52.0691L112.179 53.0317C111.914 53.6505 111.48 54.1782 110.874 54.6146C110.268 55.0392 109.53 55.3125 108.663 55.4344ZM107.513 47.2528C107.18 47.2996 106.88 47.4024 106.611 47.5613C106.355 47.7186 106.14 47.9183 105.968 48.1606C105.808 48.4012 105.696 48.6776 105.631 48.9897C105.565 49.3018 105.558 49.6361 105.608 49.9926L105.625 50.1174L109.939 49.5112L109.914 49.3329C109.814 48.6199 109.549 48.0754 109.121 47.6994C108.691 47.3115 108.155 47.1626 107.513 47.2528ZM33.813 73.2448L39.3209 72.4707C40.3547 72.3254 41.2037 72.503 41.8678 73.0035C42.5438 73.5022 42.9502 74.2388 43.0872 75.2133C43.1523 75.6767 43.1429 76.084 43.059 76.4351C42.9733 76.7743 42.8445 77.0651 42.6726 77.3073C42.499 77.5377 42.289 77.7248 42.0426 77.8685C41.7945 78.0003 41.5473 78.0956 41.3011 78.1545L41.3162 78.2614C41.5674 78.2382 41.8491 78.2592 42.1612 78.3244C42.4852 78.3879 42.7946 78.5202 43.0894 78.7211C43.3826 78.9101 43.6442 79.1763 43.8742 79.5196C44.1025 79.8511 44.2534 80.2782 44.3269 80.8011C44.3971 81.3002 44.3799 81.7813 44.2753 82.2443C44.1826 82.7057 44.0162 83.1169 43.7761 83.4778C43.536 83.8387 43.2332 84.1418 42.8678 84.3871C42.5007 84.6204 42.0854 84.7697 41.622 84.8348L35.5616 85.6866L33.813 73.2448ZM37.3328 83.6745L40.7908 83.1885C41.3136 83.115 41.7044 82.9207 41.9631 82.6057C42.2217 82.2906 42.3152 81.8776 42.2434 81.3666L42.1582 80.7605C42.0864 80.2496 41.8827 79.8783 41.5472 79.6467C41.2117 79.4152 40.7826 79.3361 40.2597 79.4096L36.8017 79.8956L37.3328 83.6745ZM36.5662 78.2201L39.6855 77.7817C40.1846 77.7115 40.5533 77.5325 40.7915 77.2445C41.0281 76.9447 41.113 76.5571 41.0462 76.0818L40.966 75.5114C40.8992 75.036 40.7116 74.6928 40.4033 74.4817C40.0932 74.2587 39.6886 74.1822 39.1895 74.2524L36.0702 74.6908L36.5662 78.2201ZM50.835 83.7581C50.1933 83.8483 49.5893 83.8181 49.0228 83.6675C48.4682 83.5152 47.9775 83.2569 47.5506 82.8928C47.1221 82.5168 46.7651 82.0459 46.4796 81.4801C46.1924 80.9025 45.9971 80.2453 45.8935 79.5085C45.79 78.7717 45.7975 78.0921 45.916 77.4695C46.0328 76.8351 46.2462 76.284 46.5561 75.8164C46.8644 75.3368 47.2641 74.9474 47.7552 74.6481C48.2582 74.3472 48.8306 74.1516 49.4723 74.0614C50.114 73.9712 50.7121 74.0023 51.2667 74.1546C51.8332 74.3052 52.3307 74.5685 52.7592 74.9446C53.186 75.3087 53.543 75.7796 53.8302 76.3573C54.1157 76.923 54.3102 77.5743 54.4138 78.3111C54.5173 79.0478 54.5107 79.7334 54.3938 80.3678C54.2753 80.9904 54.0619 81.5415 53.7537 82.021C53.4438 82.4887 53.0373 82.873 52.5343 83.174C52.0431 83.4732 51.4767 83.6679 50.835 83.7581ZM50.6096 82.1539C51.275 82.0604 51.7814 81.7832 52.1286 81.3224C52.4742 80.8497 52.5894 80.2034 52.4742 79.3834L52.2537 77.8148C52.1385 76.9949 51.8504 76.4113 51.3896 76.0641C50.9271 75.7049 50.3632 75.5721 49.6977 75.6657C49.0323 75.7592 48.5267 76.0423 48.1812 76.515C47.8339 76.9758 47.7179 77.6162 47.8331 78.4361L48.0536 80.0047C48.1688 80.8246 48.4577 81.4142 48.9202 81.7733C49.381 82.1206 49.9441 82.2474 50.6096 82.1539ZM60.8963 82.3441C60.2546 82.4343 59.6505 82.4041 59.0841 82.2534C58.5295 82.1011 58.0388 81.8429 57.6119 81.4788C57.1834 81.1028 56.8264 80.6319 56.5409 80.0661C56.2537 79.4884 56.0583 78.8312 55.9548 78.0945C55.8512 77.3577 55.8587 76.6781 55.9772 76.0555C56.0941 75.4211 56.3075 74.87 56.6174 74.4023C56.9257 73.9228 57.3253 73.5333 57.8165 73.2341C58.3195 72.9331 58.8918 72.7376 59.5335 72.6474C60.1752 72.5572 60.7734 72.5883 61.328 72.7406C61.8944 72.8912 62.3919 73.1545 62.8204 73.5306C63.2473 73.8947 63.6043 74.3656 63.8915 74.9432C64.177 75.509 64.3715 76.1603 64.4751 76.897C64.5786 77.6338 64.572 78.3194 64.4551 78.9538C64.3366 79.5764 64.1232 80.1274 63.815 80.607C63.505 81.0747 63.0986 81.459 62.5956 81.7599C62.1044 82.0592 61.538 82.2539 60.8963 82.3441ZM60.6709 80.7399C61.3363 80.6463 61.8427 80.3692 62.1899 79.9084C62.5355 79.4357 62.6507 78.7894 62.5354 77.9694L62.315 76.4008C62.1997 75.5809 61.9117 74.9973 61.4509 74.65C60.9884 74.2909 60.4245 74.1581 59.759 74.2516C59.0935 74.3452 58.588 74.6283 58.2424 75.101C57.8952 75.5618 57.7792 76.2022 57.8944 77.0221L58.1149 78.5907C58.2301 79.4106 58.519 80.0002 58.9814 80.3593C59.4423 80.7065 60.0054 80.8334 60.6709 80.7399ZM65.4375 68.0369L67.3804 67.7638L68.5177 75.8563L68.6068 75.8438L69.6572 74.0057L71.5321 71.1792L73.7959 70.8611L71.0553 74.8998L75.4907 80.0749L73.1735 80.4005L69.8963 76.3533L68.8083 77.924L69.2342 80.9542L67.2913 81.2272L65.4375 68.0369ZM76.484 68.7928C76.0799 68.8496 75.7695 68.7963 75.5526 68.6329C75.3477 68.4678 75.2243 68.2367 75.1825 67.9397L75.14 67.6366C75.0982 67.3396 75.1531 67.0834 75.3046 66.8682C75.468 66.6514 75.7518 66.5146 76.1558 66.4578C76.5598 66.401 76.8643 66.4552 77.0693 66.6202C77.2742 66.7853 77.3976 67.0164 77.4394 67.3135L77.4819 67.6165C77.5237 67.9136 77.4688 68.1697 77.3173 68.3849C77.1658 68.6001 76.888 68.7361 76.484 68.7928ZM75.7366 70.5883L77.6795 70.3153L78.9821 79.5842L77.0392 79.8572L75.7366 70.5883ZM81.7565 79.1943L80.4539 69.9254L82.3968 69.6523L82.6122 71.1852L82.7013 71.1727C82.8332 70.6452 83.0778 70.1867 83.4351 69.7972C83.8042 69.406 84.3453 69.1603 85.0583 69.0601C86.0089 68.9265 86.7899 69.1379 87.4013 69.6942C88.0229 70.237 88.4147 71.0847 88.5767 72.2374L89.4034 78.1196L87.4605 78.3926L86.6689 72.76C86.4651 71.3102 85.781 70.6672 84.6164 70.8309C84.3669 70.8659 84.1223 70.9367 83.8828 71.043C83.6535 71.1358 83.4529 71.261 83.2812 71.4184C83.1094 71.5758 82.9783 71.7639 82.8879 71.9826C82.8093 72.1997 82.7892 72.4449 82.8277 72.7182L83.6994 78.9212L81.7565 79.1943ZM100.347 77.4722C100.482 78.4347 100.216 79.2114 99.5477 79.8021C98.8794 80.3929 97.7134 80.8052 96.0498 81.039C95.2892 81.1459 94.6341 81.1834 94.0843 81.1516C93.5481 81.13 93.0943 81.0484 92.723 80.9067C92.3635 80.7633 92.0874 80.5658 91.8945 80.3142C91.7016 80.0626 91.5801 79.7586 91.53 79.4021C91.4582 78.8911 91.5389 78.4738 91.7721 78.1502C92.0172 77.8249 92.3818 77.5737 92.8659 77.3967L92.8383 77.2006C92.1055 77.0733 91.6881 76.6473 91.5862 75.9224C91.5194 75.4471 91.6289 75.0621 91.9147 74.7674C92.1988 74.4609 92.5591 74.2225 92.9957 74.052L92.9856 73.9807C92.4023 73.7961 91.9295 73.493 91.5673 73.0713C91.2153 72.636 90.995 72.1035 90.9065 71.4737C90.7729 70.5231 90.9801 69.7123 91.528 69.0415C92.0879 68.3691 92.962 67.9493 94.1503 67.7823C94.8039 67.6905 95.3758 67.707 95.8659 67.832L95.8309 67.5825C95.7724 67.1666 95.8224 66.8324 95.9808 66.5799C96.1494 66.3138 96.4417 66.1516 96.8576 66.0931L98.2836 65.8927L98.504 67.4613L96.6146 67.7268L96.6672 68.1012C97.1215 68.316 97.4925 68.6274 97.78 69.0354C98.0659 69.4314 98.2465 69.8968 98.3216 70.4316C98.4536 71.3704 98.2396 72.176 97.6797 72.8484C97.1182 73.509 96.2433 73.9228 95.055 74.0898C94.6034 74.1533 94.1927 74.1625 93.8228 74.1176C93.5969 74.2341 93.4056 74.3822 93.2491 74.5617C93.0909 74.7294 93.0284 74.932 93.0619 75.1697C93.0969 75.4193 93.2349 75.5816 93.4757 75.6569C93.7165 75.7321 94.0449 75.7405 94.4608 75.682L96.7423 75.3614C97.8831 75.201 98.7416 75.3167 99.3177 75.7083C99.8921 76.0881 100.235 76.676 100.347 77.4722ZM98.5591 77.9416C98.514 77.6208 98.3534 77.3828 98.0771 77.2278C97.8127 77.071 97.3597 77.0378 96.718 77.1279L93.5808 77.5688C93.1881 77.8785 93.0243 78.2651 93.0894 78.7285C93.1429 79.1088 93.334 79.3909 93.6628 79.5749C94.0052 79.7692 94.5388 79.8154 95.2637 79.7135L96.4757 79.5432C97.9849 79.3311 98.6794 78.7972 98.5591 77.9416ZM94.8571 72.6817C95.4274 72.6015 95.8496 72.4149 96.1235 72.122C96.4076 71.8154 96.5121 71.3948 96.4369 70.8601L96.3868 70.5036C96.3117 69.9688 96.0961 69.5992 95.7402 69.3948C95.3945 69.1767 94.9364 69.1078 94.366 69.188C93.7957 69.2682 93.3684 69.4615 93.0843 69.768C92.8104 70.061 92.711 70.4748 92.7862 71.0096L92.8363 71.3661C92.9114 71.9008 93.1219 72.2772 93.4676 72.4952C93.8235 72.6997 94.2867 72.7618 94.8571 72.6817ZM101.989 72.7154L100.616 67.4734L100.118 63.9263L102.221 63.6307L102.72 67.1778L102.88 72.5901L101.989 72.7154ZM102.966 76.4316C102.514 76.4951 102.167 76.4349 101.923 76.2511C101.689 76.0537 101.548 75.7827 101.499 75.4381L101.457 75.135C101.408 74.7904 101.47 74.497 101.642 74.2547C101.824 73.9988 102.141 73.8392 102.593 73.7757C103.044 73.7123 103.387 73.7792 103.621 73.9766C103.864 74.1605 104.011 74.4247 104.059 74.7693L104.102 75.0723C104.15 75.4169 104.083 75.7172 103.901 75.973C103.729 76.2153 103.417 76.3682 102.966 76.4316Z" fill="#00E6C5"/>
<path d="M110.166 120.5L108.416 121.899L43.8128 130.872L42.0867 130.17L1.8115 78.463L1.52087 76.3951L25.8252 15.4712L27.4179 14.2304L92.0007 5.04745L93.8737 5.80113L134.187 57.5371L134.473 59.5698L110.166 120.5Z" stroke="#00E6C5" stroke-width="2"/>
<g clip-path="url(#clip1_624_11937)">
<path d="M87.6765 105.183L56.7499 109.742C55.5468 108.942 54.7509 107.589 54.7049 106.04C54.6301 103.496 56.6459 101.385 59.1718 101.323C59.3825 101.313 59.5961 101.324 59.7912 101.347C60.4203 98.9258 62.44 96.9858 65.0628 96.6071C65.8154 96.5013 66.5564 96.5285 67.2533 96.6729C68.3549 94.2359 70.6218 92.4025 73.4511 91.9847C77.3288 91.4094 80.9624 93.696 82.2484 97.2415C82.6108 97.0896 82.9985 96.9745 83.4045 96.9175C86.0967 96.529 88.5885 98.3802 88.9869 101.071C89.2054 102.626 88.6787 104.124 87.6765 105.183Z" fill="white" stroke="#1A1A1A" stroke-linecap="round" stroke-linejoin="round"/>
<path d="M77.3461 100.728L65.5051 102.483L64.9212 103.645" stroke="#1A1A1A" stroke-miterlimit="10"/>
<path d="M77.6463 102.725C76.5584 102.888 75.5234 102.135 75.3676 101.026C75.2088 99.9677 75.9153 98.9596 76.9567 98.7526L77.0557 98.7387C78.1549 98.5842 79.1799 99.3389 79.3443 100.437C79.4932 101.496 78.805 102.492 77.7552 102.71L77.6463 102.725Z" fill="#1A1A1A"/>
<path d="M76.9973 98.9691C76.9973 98.9691 77.0567 98.9607 77.0864 98.9566C78.0667 98.8188 78.9887 99.487 79.1279 100.477C79.2615 101.428 78.6386 102.313 77.7062 102.505C77.6765 102.509 77.6369 102.515 77.6072 102.519C76.6268 102.657 75.7049 101.988 75.5657 100.998C75.4321 100.047 76.0549 99.1621 76.9973 98.9691ZM76.9077 98.5474C75.7489 98.781 74.9743 99.8795 75.1399 101.058C75.3224 102.284 76.4603 103.124 77.6657 102.935C77.7053 102.929 77.7449 102.924 77.7845 102.918C78.9334 102.686 79.708 101.587 79.5523 100.407C79.3811 99.1895 78.2333 98.351 77.0265 98.5307C76.9869 98.5363 76.9572 98.5405 76.9176 98.546L76.9077 98.5474Z" fill="white"/>
<path d="M71.217 103.679C70.1178 103.834 69.0928 103.079 68.9271 101.972C68.7781 100.912 69.4748 99.9052 70.526 99.6969L70.6251 99.6829C71.7144 99.5299 72.7493 100.283 72.9137 101.381C73.0626 102.441 72.3659 103.447 71.3147 103.656L71.2156 103.67L71.217 103.679Z" fill="#1A1A1A"/>
<path d="M70.566 99.9133C70.566 99.9133 70.6254 99.905 70.6551 99.9008C71.6454 99.7616 72.5575 100.431 72.6967 101.421C72.8303 102.372 72.2074 103.257 71.2651 103.45C71.2354 103.455 71.2057 103.459 71.176 103.463C70.1956 103.601 69.2723 102.923 69.1345 101.942C68.9995 100.982 69.6237 100.106 70.566 99.9133ZM70.4878 99.5002C69.329 99.7337 68.5543 100.832 68.72 102.011C68.8911 103.229 70.039 104.067 71.2471 103.897C71.2867 103.892 71.3164 103.888 71.356 103.882C72.5148 103.648 73.2994 102.549 73.1239 101.372C72.9527 100.153 71.7949 99.3165 70.5967 99.4849C70.5571 99.4904 70.5175 99.496 70.4878 99.5002Z" fill="white"/>
</g>
</g>
<defs>
<clipPath id="clip0_624_11937">
<rect width="136" height="136" fill="white"/>
</clipPath>
<clipPath id="clip1_624_11937">
<rect width="36" height="18" fill="white" transform="translate(52.3857 93.4204) rotate(-8)"/>
</clipPath>
</defs>
</svg>
