<svg width="488" height="260" viewBox="0 0 488 260" fill="none" xmlns="http://www.w3.org/2000/svg">
<g clip-path="url(#clip0_624_12009)">
<path d="M349.48 144.115L349.271 75.1921L343.78 75.2301L341.235 144.172L331.565 144.248C331.565 144.248 327.993 81.9742 328.145 76.5409C328.468 63.3186 333.788 44.6441 356.319 44.4731L376.475 84.7478L397.771 44.1691C420.302 43.9982 425.888 62.5967 426.4 75.819C426.609 81.2523 423.95 143.564 423.95 143.564L414.28 143.64L410.747 74.7361L405.256 74.7741L406.035 143.697L349.48 144.096V144.115Z" fill="#16FFDD"/>
<path d="M356.319 44.4732H360.499L392.472 44.2452L397.772 44.1882L376.476 84.7479L356.319 44.4732Z" fill="white"/>
<path d="M378.356 61.6086L380.882 76.7687L376.475 84.7476L372.067 76.7687L374.594 61.6086H378.356Z" fill="#1F1E1E"/>
<path d="M373.208 57.9804L376.476 53.478L379.781 58.0184L378.356 62.0459H374.576L373.208 57.9804Z" fill="#1F1E1E"/>
<path d="M392.47 44.2451L382.971 44.302L381.736 37.9189C384.985 36.703 387.151 32.0297 387.132 29.427L386.999 12.1772L365.759 12.3292L365.873 29.56C365.892 32.1816 368.134 36.817 371.383 37.9759L370.11 44.378L362.378 44.454L376.455 53.4589L392.451 44.2261L392.47 44.2451Z" fill="white" stroke="#1F1E1E" stroke-width="1.5" stroke-linecap="round" stroke-linejoin="round"/>
<path d="M371.688 22.1511C371.688 23.063 371.213 23.8039 370.624 23.8039C370.035 23.8039 369.541 23.082 369.541 22.1701C369.541 21.2772 370.016 20.5363 370.605 20.5173C371.194 20.5173 371.688 21.2392 371.688 22.1511Z" fill="#1F1E1E"/>
<path d="M380.351 22.0749C380.351 22.9868 379.876 23.7277 379.287 23.7277C378.698 23.7277 378.204 23.0058 378.204 22.0939C378.204 21.1821 378.679 20.4602 379.268 20.4412C379.857 20.4412 380.351 21.1631 380.351 22.0749Z" fill="#1F1E1E"/>
<path d="M374.766 31.954C374.766 31.954 378.698 34.0247 380.826 30.3772" stroke="#1F1E1E" stroke-width="1.5" stroke-linecap="round" stroke-linejoin="round"/>
<path d="M374.936 22.113C374.936 22.113 373.91 25.0766 372.314 27.4703C371.041 29.3891 375.164 28.9901 375.164 28.9901" stroke="#1F1E1E" stroke-width="1.5" stroke-linecap="round" stroke-linejoin="round"/>
<path d="M341.254 144.248L340.551 163.207C340.551 163.207 340 167.216 336.847 167.235C333.427 167.254 332.971 163.302 332.971 163.226L331.565 144.267" fill="white"/>
<path d="M341.254 144.248L340.551 163.207C340.551 163.207 340 167.216 336.847 167.235C333.427 167.254 332.971 163.302 332.971 163.226L331.565 144.267" stroke="#1F1E1E" stroke-width="1.5" stroke-linecap="round" stroke-linejoin="round"/>
<path d="M351.911 157.584C351.911 157.584 357.724 171.813 377.976 171.661C398.227 171.509 403.831 156.691 403.831 156.691L405.807 147.895L349.821 148.294L351.93 157.584H351.911Z" fill="#1F1E1E" stroke="#1F1E1E" stroke-width="1.5" stroke-linecap="round" stroke-linejoin="round"/>
<path d="M406.054 143.716L405.275 74.7932L410.765 74.7552L414.299 143.659L423.968 143.583C423.968 143.583 426.628 81.2713 426.419 75.838C425.906 62.6158 420.321 44.0172 397.79 44.1882L376.493 84.7669L356.337 44.4921C333.806 44.6441 328.487 63.3377 328.164 76.56C328.031 82.0122 331.583 144.267 331.583 144.267L341.253 144.191L343.799 75.2491L349.289 75.2111L349.498 144.134" stroke="#1F1E1E" stroke-width="1.5" stroke-linecap="round" stroke-linejoin="round"/>
<path d="M414.279 143.716L415.248 162.656C415.248 162.656 415.856 166.646 419.01 166.627C422.429 166.608 422.828 162.637 422.828 162.561L423.968 143.583" fill="white"/>
<path d="M414.279 143.716L415.248 162.656C415.248 162.656 415.856 166.646 419.01 166.627C422.429 166.608 422.828 162.637 422.828 162.561L423.968 143.583" stroke="#1F1E1E" stroke-width="1.5" stroke-linecap="round" stroke-linejoin="round"/>
<path d="M377.311 3.51456C382.079 3.85652 386.639 6.21221 389.203 10.4107C389.849 11.4745 392.205 15.9389 391.502 17.2308C391.027 18.1237 387.133 17.2688 386.373 17.1548C384.093 16.8508 382.307 16.5849 379.971 16.7748C377.083 17.0028 374.005 17.5537 371.099 17.1548C369.161 16.8698 367.109 15.9389 365.931 14.2862C363.975 11.5125 365.286 7.0671 368.173 5.47131C370.966 3.91351 374.176 3.26759 377.311 3.51456Z" fill="#1F1E1E" stroke="#1F1E1E" stroke-width="1.5" stroke-linecap="round" stroke-linejoin="round"/>
<path d="M396.327 16.1478C397.676 17.6866 398.607 19.6054 398.797 21.4291C399.025 23.5759 399.025 25.9316 398.417 28.0213C397.448 31.3459 397.068 34.8604 398.512 38.09C399.044 39.2868 400.83 40.3507 401.988 40.7876C406.852 42.5544 411.563 43.9602 413.52 49.3745C415.249 54.1619 412.532 60.0511 408.144 62.5398C402.235 65.8833 394.047 64.8765 388.367 61.4949C381.471 57.3725 379.248 49.4885 380.578 41.9845C381.11 39.0019 381.889 35.7723 383.751 33.3216C384.872 31.8588 386.885 30.7379 387.265 28.8192C387.721 26.5205 387.455 23.8608 386.505 21.7141C385.062 18.4465 386.296 12.3673 390.951 12.9752C392.927 13.2412 394.864 14.4951 396.327 16.1668V16.1478Z" fill="#1F1E1E" stroke="#1F1E1E" stroke-width="1.5" stroke-linecap="round" stroke-linejoin="round"/>
<path d="M389.869 23.6519C389.869 24.6588 389.071 25.4757 388.064 25.4757C387.057 25.4757 386.24 24.6778 386.24 23.6709C386.24 22.6641 387.038 21.8472 388.045 21.8472C389.052 21.8472 389.869 22.6451 389.869 23.6519Z" fill="white"/>
<path d="M362.397 44.4731L371.117 60.849L376.475 53.478L362.397 44.4731Z" stroke="#1F1E1E" stroke-width="1.5" stroke-linecap="round" stroke-linejoin="round"/>
<path d="M390.552 44.4731L381.832 60.849L376.475 53.478L390.552 44.4731Z" stroke="#1F1E1E" stroke-width="1.5" stroke-linecap="round" stroke-linejoin="round"/>
<path d="M376.475 144.115V84.7478" stroke="#1F1E1E" stroke-width="1.5" stroke-linecap="round" stroke-linejoin="round"/>
<path d="M376.475 84.7479L354.324 57.4105L356.319 44.4731" stroke="#1F1E1E" stroke-width="1.5" stroke-linecap="round" stroke-linejoin="round"/>
<path d="M376.475 84.7479L398.626 57.4105L396.631 44.4731" stroke="#1F1E1E" stroke-width="1.5" stroke-linecap="round" stroke-linejoin="round"/>
<path d="M386.373 92.5746C386.373 93.7334 385.442 94.6643 384.283 94.6643C383.124 94.6643 382.193 93.7334 382.193 92.5746C382.193 91.4157 383.124 90.4849 384.283 90.4849C385.442 90.4849 386.373 91.4157 386.373 92.5746Z" fill="#1F1E1E"/>
<path d="M386.373 102.453C386.373 103.612 385.442 104.543 384.283 104.543C383.124 104.543 382.193 103.612 382.193 102.453C382.193 101.294 383.124 100.364 384.283 100.364C385.442 100.364 386.373 101.294 386.373 102.453Z" fill="#1F1E1E"/>
<path d="M367.338 80.948H354.324V84.2726H367.338V80.948Z" fill="#1F1E1E"/>
<path d="M345.413 94.4365H278.352C272.056 94.4365 266.953 99.5398 266.953 105.835V134.008C266.953 140.304 272.056 145.407 278.352 145.407H345.413C351.708 145.407 356.811 140.304 356.811 134.008V105.835C356.811 99.5398 351.708 94.4365 345.413 94.4365Z" fill="white" stroke="black" stroke-width="1.5" stroke-linecap="round" stroke-linejoin="round"/>
<path d="M320.185 146.242H297.255L300.408 119.513H317.031L320.185 146.242Z" fill="white" stroke="black" stroke-width="1.5" stroke-linecap="round" stroke-linejoin="round"/>
<path d="M229.548 135.281H216.706V259.221H229.548V135.281Z" fill="#16FFDD" stroke="#1F1E1E" stroke-width="1.5" stroke-linecap="round" stroke-linejoin="round"/>
<path d="M242.39 135.281H229.548V259.221H242.39V135.281Z" fill="#16FFDD" stroke="#1F1E1E" stroke-width="1.5" stroke-linecap="round" stroke-linejoin="round"/>
<path d="M255.213 135.281H242.371V259.221H255.213V135.281Z" fill="#16FFDD" stroke="#1F1E1E" stroke-width="1.5" stroke-linecap="round" stroke-linejoin="round"/>
<path d="M268.056 135.281H255.214V259.221H268.056V135.281Z" fill="#16FFDD" stroke="#1F1E1E" stroke-width="1.5" stroke-linecap="round" stroke-linejoin="round"/>
<path d="M280.899 135.281H268.057V259.221H280.899V135.281Z" fill="#16FFDD" stroke="#1F1E1E" stroke-width="1.5" stroke-linecap="round" stroke-linejoin="round"/>
<path d="M293.722 135.281H280.88V259.221H293.722V135.281Z" fill="#16FFDD" stroke="#1F1E1E" stroke-width="1.5" stroke-linecap="round" stroke-linejoin="round"/>
<path d="M306.565 135.281H293.723V259.221H306.565V135.281Z" fill="#16FFDD" stroke="#1F1E1E" stroke-width="1.5" stroke-linecap="round" stroke-linejoin="round"/>
<path d="M319.406 135.281H306.563V259.221H319.406V135.281Z" fill="#16FFDD" stroke="#1F1E1E" stroke-width="1.5" stroke-linecap="round" stroke-linejoin="round"/>
<path d="M332.249 135.281H319.406V259.221H332.249V135.281Z" fill="#16FFDD" stroke="#1F1E1E" stroke-width="1.5" stroke-linecap="round" stroke-linejoin="round"/>
<path d="M345.073 135.281H332.23V259.221H345.073V135.281Z" fill="#16FFDD" stroke="#1F1E1E" stroke-width="1.5" stroke-linecap="round" stroke-linejoin="round"/>
<path d="M357.914 135.281H345.071V259.221H357.914V135.281Z" fill="#16FFDD" stroke="#1F1E1E" stroke-width="1.5" stroke-linecap="round" stroke-linejoin="round"/>
<path d="M370.757 135.281H357.915V259.221H370.757V135.281Z" fill="#16FFDD" stroke="#1F1E1E" stroke-width="1.5" stroke-linecap="round" stroke-linejoin="round"/>
<path d="M383.599 135.281H370.757V259.221H383.599V135.281Z" fill="#16FFDD" stroke="#1F1E1E" stroke-width="1.5" stroke-linecap="round" stroke-linejoin="round"/>
<path d="M396.422 135.281H383.58V259.221H396.422V135.281Z" fill="#16FFDD" stroke="#1F1E1E" stroke-width="1.5" stroke-linecap="round" stroke-linejoin="round"/>
<path d="M409.265 135.281H396.423V259.221H409.265V135.281Z" fill="#16FFDD" stroke="#1F1E1E" stroke-width="1.5" stroke-linecap="round" stroke-linejoin="round"/>
<path d="M422.107 135.281H409.265V259.221H422.107V135.281Z" fill="#16FFDD" stroke="#1F1E1E" stroke-width="1.5" stroke-linecap="round" stroke-linejoin="round"/>
<path d="M434.93 135.281H422.088V259.221H434.93V135.281Z" fill="#16FFDD" stroke="#1F1E1E" stroke-width="1.5" stroke-linecap="round" stroke-linejoin="round"/>
<path d="M447.773 135.281H434.931V259.221H447.773V135.281Z" fill="#16FFDD" stroke="#1F1E1E" stroke-width="1.5" stroke-linecap="round" stroke-linejoin="round"/>
<path d="M460.615 135.281H447.772V259.221H460.615V135.281Z" fill="#16FFDD" stroke="#1F1E1E" stroke-width="1.5" stroke-linecap="round" stroke-linejoin="round"/>
<path d="M473.458 135.281H460.615V259.221H473.458V135.281Z" fill="#16FFDD" stroke="#1F1E1E" stroke-width="1.5" stroke-linecap="round" stroke-linejoin="round"/>
<path d="M486.282 135.281H473.439V259.221H486.282V135.281Z" fill="#16FFDD" stroke="#1F1E1E" stroke-width="1.5" stroke-linecap="round" stroke-linejoin="round"/>
<path d="M455.865 116.227H452.293V131.425H455.865V116.227Z" fill="white" stroke="#1F1E1E" stroke-width="1.5" stroke-linecap="round" stroke-linejoin="round"/>
<path d="M457.822 114.84C457.822 115.448 457.328 115.942 456.72 115.942H451.439C450.831 115.942 450.337 115.448 450.337 114.84C450.337 114.232 450.831 113.738 451.439 113.738H456.72C457.328 113.738 457.822 114.232 457.822 114.84Z" fill="white" stroke="#1F1E1E" stroke-width="1.5" stroke-linecap="round" stroke-linejoin="round"/>
<path d="M454.079 115.98C447.145 115.98 441.522 121.508 441.351 128.385H466.807C466.636 121.508 461.013 115.98 454.079 115.98Z" fill="white" stroke="#1F1E1E" stroke-width="1.5" stroke-linecap="round" stroke-linejoin="round"/>
<path d="M468.631 132.755C468.631 133.78 467.795 134.616 466.769 134.616H441.37C440.344 134.616 439.508 133.78 439.508 132.755C439.508 131.729 440.344 130.893 441.37 130.893H466.769C467.795 130.893 468.631 131.729 468.631 132.755Z" fill="#1F1E1E"/>
<path d="M303.562 23.8042C303.562 36.4756 293.284 46.7532 280.613 46.7532C267.942 46.7532 257.664 36.4756 257.664 23.8042C257.664 11.1329 267.942 0.855225 280.613 0.855225C293.284 0.855225 303.562 11.1329 303.562 23.8042Z" fill="white" stroke="black" stroke-width="1.5" stroke-linecap="round" stroke-linejoin="round"/>
<path d="M280.614 7.67529V23.8042L271.628 32.2201" stroke="#1F1E1E" stroke-width="1.5" stroke-linecap="round" stroke-linejoin="round"/>
<path d="M92.1382 101.314C90.4475 104.98 86.116 106.576 82.4495 104.885L66.1876 97.3814C62.5211 95.6906 60.9253 91.3592 62.6161 87.6927L95.2348 17.0409C96.9256 13.3744 101.276 11.7786 104.924 13.4694L121.185 20.9734C124.852 22.6642 126.448 26.9956 124.757 30.6621L92.1382 101.295V101.314Z" fill="black" stroke="black" stroke-width="1.5" stroke-linecap="round" stroke-linejoin="round"/>
<path d="M95.8237 51.2744L120.122 39.4959L115.524 49.7166L87.8637 108.97L111.725 118.203L161.156 39.3819L133.572 26.7296C123.256 21.9612 118.602 20.6124 109.35 26.2737L79.7898 45.4802C67.7264 53.4591 73.7866 63.5278 85.66 61.723L109.673 59.1394L109.939 50.9704L88.9656 51.4644" fill="#16FFDD"/>
<path d="M95.8237 51.2744L120.122 39.4959L115.524 49.7166L87.8637 108.97L111.725 118.203L161.156 39.3819L133.572 26.7296C123.256 21.9612 118.602 20.6124 109.35 26.2737L79.7898 45.4802C67.7264 53.4591 73.7866 63.5278 85.66 61.723L109.673 59.1394L109.939 50.9704L88.9656 51.4644" stroke="black" stroke-width="1.5" stroke-linecap="round" stroke-linejoin="round"/>
<path d="M144.989 32.1057C148.257 38.9828 151.41 50.6473 145.445 64.5155" stroke="black" stroke-width="1.5" stroke-linecap="round" stroke-linejoin="round"/>
<path d="M90.2949 103.765C90.2949 103.765 105.265 106.69 113.415 90.9224L141.36 29.9974L135.034 27.0718L107.773 85.7931C105.854 89.9346 99.6987 96.6977 93.7335 96.4697L90.3329 103.765H90.2949Z" fill="black" stroke="black" stroke-width="1.5" stroke-linecap="round" stroke-linejoin="round"/>
<path d="M57.7746 85.4382L65.4215 68.8812C67.1102 65.2248 71.4467 63.6284 75.1031 65.3171L79.5873 67.3882C83.2436 69.0769 84.84 73.4134 83.1513 77.0698L75.5044 93.6268C73.8157 97.2831 69.4792 98.8795 65.8228 97.1908L61.3386 95.1198C57.6823 93.4311 56.0859 89.0946 57.7746 85.4382Z" fill="black" stroke="white" stroke-width="1.5" stroke-linecap="round" stroke-linejoin="round"/>
<path d="M62.5781 74.9832L80.3218 83.1901" stroke="white" stroke-width="1.5" stroke-linecap="round" stroke-linejoin="round"/>
<path d="M71.4502 75.0593L74.5088 76.4841" stroke="white" stroke-width="1.5" stroke-linecap="round" stroke-linejoin="round"/>
<path d="M161.175 39.3628L171.738 42.9343L122.154 122.04L111.725 118.184L161.175 39.3628Z" fill="white" stroke="black" stroke-width="1.5" stroke-linecap="round" stroke-linejoin="round"/>
<path d="M118.221 252.762C118.221 256.334 115.333 259.221 111.762 259.221C108.19 259.221 105.303 256.334 105.303 252.762C105.303 249.191 108.19 246.303 111.762 246.303C115.333 246.303 118.221 249.191 118.221 252.762Z" fill="#16FFDD" stroke="black" stroke-width="1.5" stroke-linecap="round" stroke-linejoin="round"/>
<path d="M197.346 252.762C197.346 256.334 194.458 259.221 190.887 259.221C187.315 259.221 184.428 256.334 184.428 252.762C184.428 249.191 187.315 246.303 190.887 246.303C194.458 246.303 197.346 249.191 197.346 252.762Z" fill="#16FFDD" stroke="black" stroke-width="1.5" stroke-linecap="round" stroke-linejoin="round"/>
<path d="M152.056 250.197C152.056 250.197 196.15 250.178 200.158 250.178C204.167 250.178 209.885 250.748 221.34 246.17C232.796 241.591 227.363 233.574 221.34 234.999C215.337 236.424 201.013 236.728 201.013 236.728H103.119C103.119 236.728 88.8137 236.443 82.7915 234.999C76.7693 233.574 71.336 241.591 82.7915 246.17C94.247 250.748 99.9653 250.178 103.974 250.178C107.982 250.178 152.056 250.197 152.056 250.197Z" fill="white" stroke="black" stroke-width="1.5" stroke-linecap="round" stroke-linejoin="round"/>
<path d="M97.3236 138.872L77.8132 165.81L9.09919 173.276L7.90234 164.291L68.1815 154.849L84.0254 132.565" fill="white"/>
<path d="M97.3236 138.872L77.8132 165.81L9.09919 173.276L7.90234 164.291L68.1815 154.849L84.0254 132.565" stroke="black" stroke-width="1.5" stroke-linecap="round" stroke-linejoin="round"/>
<path d="M35.6579 170.388L9.09933 173.276L7.35156 164.442L34.29 160.167L35.6579 170.388Z" fill="#16FFDD" stroke="black" stroke-width="1.5" stroke-linecap="round" stroke-linejoin="round"/>
<path d="M24.7531 174.625C24.7531 174.625 17.6291 179.374 15.0074 193.509C14.4755 196.415 15.1214 200.196 11.8348 201.013C11.8348 201.013 5.24268 202.551 4.10283 191.742C3.87486 189.69 3.66589 187.638 3.45692 185.568C3.00098 181.293 2.56403 177.019 2.10809 172.744C1.72814 169.078 0.550298 160.111 0.854258 159.389C1.17722 158.667 2.29807 158.154 2.98198 157.888C4.02684 157.451 5.0907 157.888 6.13557 158.078C9.6881 158.8 13.2596 159.522 16.8122 160.244C16.8122 160.244 20.4217 161.023 18.7689 163.758C17.3251 166.133 15.7673 167.919 18.408 172.972C18.408 172.972 20.2127 172.345 23.1003 171.32C25.551 170.465 27.0518 173.295 24.7531 174.625Z" fill="#16FFDD" stroke="black" stroke-width="1.5" stroke-linecap="round" stroke-linejoin="round"/>
<path d="M9.68908 200.956C7.65634 200.462 4.80672 198.524 4.10381 191.78C3.87584 189.728 3.66687 187.677 3.45789 185.606C3.00195 181.331 2.56501 177.057 2.10907 172.782C1.72912 169.116 0.551274 160.149 0.855234 159.427C1.17819 158.705 2.29905 158.192 2.98296 157.926C4.02782 157.489 3.81885 157.622 4.86371 157.831" fill="white"/>
<path d="M9.68908 200.956C7.65634 200.462 4.80672 198.524 4.10381 191.78C3.87584 189.728 3.66687 187.677 3.45789 185.606C3.00195 181.331 2.56501 177.057 2.10907 172.782C1.72912 169.116 0.551274 160.149 0.855234 159.427C1.17819 158.705 2.29905 158.192 2.98296 157.926C4.02782 157.489 3.81885 157.622 4.86371 157.831" stroke="black" stroke-width="1.5" stroke-linecap="round" stroke-linejoin="round"/>
<path d="M4.86328 157.812C4.86328 157.812 5.81316 170.693 9.08073 200.766" stroke="black" stroke-width="1.5" stroke-linecap="round" stroke-linejoin="round"/>
<path d="M10.145 159.047L10.5439 166.19L5.85156 167.235" stroke="black" stroke-width="1.5" stroke-linecap="round" stroke-linejoin="round"/>
<path d="M19.6616 180.629L15.5771 178.558" stroke="black" stroke-width="1.5" stroke-linecap="round" stroke-linejoin="round"/>
<path d="M17.5912 184.067L14.0576 182.32" stroke="black" stroke-width="1.5" stroke-linecap="round" stroke-linejoin="round"/>
<path d="M16.413 187.962L12.5186 185.929" stroke="black" stroke-width="1.5" stroke-linecap="round" stroke-linejoin="round"/>
<path d="M133.971 135.282L154.128 165.032L150.328 232.511L141.248 232.321L140.868 172.403L114.499 144.097" fill="white"/>
<path d="M133.971 135.282L154.128 165.032L150.328 232.511L141.248 232.321L140.868 172.403L114.499 144.097" stroke="black" stroke-width="1.5" stroke-linecap="round" stroke-linejoin="round"/>
<path d="M151.922 205.839L150.327 232.511L141.322 232.891L140.676 205.611L151.922 205.839Z" fill="#16FFDD" stroke="black" stroke-width="1.5" stroke-linecap="round" stroke-linejoin="round"/>
<path d="M153.232 217.218C153.232 217.218 157.051 224.893 170.748 229.262C173.56 230.155 177.397 230.003 177.796 233.366C177.796 233.366 178.499 240.11 167.633 239.882C165.562 239.844 163.491 239.787 161.439 239.749C157.146 239.654 152.853 239.578 148.54 239.483C144.855 239.407 135.793 239.445 135.128 239.027C134.463 238.628 134.102 237.45 133.893 236.728C133.589 235.626 134.14 234.638 134.482 233.613C135.641 230.174 136.8 226.735 137.977 223.297C137.977 223.297 139.193 219.82 141.701 221.796C143.886 223.525 145.462 225.292 150.801 223.316C150.801 223.316 150.402 221.435 149.756 218.453C149.205 215.926 152.207 214.786 153.232 217.237V217.218Z" fill="#16FFDD" stroke="black" stroke-width="1.5" stroke-linecap="round" stroke-linejoin="round"/>
<path d="M177.436 235.494C176.676 237.451 174.415 240.015 167.614 239.882C165.543 239.844 163.473 239.787 161.421 239.749C157.127 239.654 152.834 239.578 148.522 239.483C144.836 239.407 135.774 239.445 135.109 239.027C134.444 238.628 134.084 237.451 133.875 236.729C133.571 235.627 133.685 235.855 134.027 234.848" fill="white"/>
<path d="M177.436 235.494C176.676 237.451 174.415 240.015 167.614 239.882C165.543 239.844 163.473 239.787 161.421 239.749C157.127 239.654 152.834 239.578 148.522 239.483C144.836 239.407 135.774 239.445 135.109 239.027C134.444 238.628 134.084 237.451 133.875 236.729C133.571 235.627 133.685 235.855 134.027 234.848" stroke="black" stroke-width="1.5" stroke-linecap="round" stroke-linejoin="round"/>
<path d="M134.026 234.848C134.026 234.848 146.926 235.532 177.17 236.083" stroke="black" stroke-width="1.5" stroke-linecap="round" stroke-linejoin="round"/>
<path d="M135.927 229.775L143.07 230.25L143.507 235.037" stroke="black" stroke-width="1.5" stroke-linecap="round" stroke-linejoin="round"/>
<path d="M158.552 223.05L155.969 226.83" stroke="black" stroke-width="1.5" stroke-linecap="round" stroke-linejoin="round"/>
<path d="M161.688 225.52L159.503 228.825" stroke="black" stroke-width="1.5" stroke-linecap="round" stroke-linejoin="round"/>
<path d="M165.391 227.192L162.884 230.801" stroke="black" stroke-width="1.5" stroke-linecap="round" stroke-linejoin="round"/>
<path d="M171.148 76.8451L138.7 128.651L122.153 122.021L171.718 42.9346C171.718 42.9346 187.714 45.1763 191.114 69.0182L203.311 95.8997L228.938 119.913L222.46 128.651L189.993 105.189C182.698 92.2901 175.175 77.4721 175.175 77.4721L171.148 76.8451Z" fill="#16FFDD" stroke="black" stroke-width="1.5" stroke-linecap="round" stroke-linejoin="round"/>
<path d="M199.304 39.4959L130.647 35.9434C128.405 33.7017 127.265 30.4341 127.835 27.0715C128.785 21.5623 134.028 17.8767 139.518 18.8266C139.974 18.9026 140.43 19.0166 140.848 19.1496C143.242 14.2102 148.447 10.9047 154.26 11.2086C155.932 11.3036 157.509 11.6836 158.953 12.2915C162.372 7.5231 168.053 4.54049 174.341 4.86344C182.947 5.30039 189.805 11.7975 191.021 20.0045C191.876 19.8335 192.749 19.7575 193.642 19.8145C199.607 20.1374 204.186 25.2098 203.882 31.175C203.692 34.6325 201.906 37.6152 199.285 39.4769L199.304 39.4959Z" fill="white" stroke="black" stroke-width="1.5" stroke-linecap="round" stroke-linejoin="round"/>
<path d="M177.02 25.3613L155.173 24.2405L153.71 26.1212" stroke="black" stroke-width="1.13985" stroke-miterlimit="10"/>
<path d="M176.829 29.0469C174.815 28.9519 173.239 27.2231 173.352 25.1904C173.447 23.2336 175.081 21.6948 177.019 21.6948H177.209C179.242 21.8088 180.8 23.5376 180.705 25.5703C180.591 27.5271 178.995 29.0659 177.038 29.0659H176.829V29.0469Z" fill="black"/>
<path d="M177.019 22.0746C177.019 22.0746 177.133 22.0746 177.19 22.0746C178.995 22.1695 180.401 23.7083 180.306 25.5321C180.211 27.2799 178.767 28.6477 177.038 28.6477C176.981 28.6477 176.905 28.6477 176.848 28.6477C175.043 28.5527 173.637 27.0139 173.732 25.1901C173.827 23.4424 175.271 22.0746 177.019 22.0746ZM177.019 21.2957C174.853 21.2957 173.068 22.9864 172.954 25.1521C172.84 27.4129 174.568 29.3316 176.81 29.4266C176.886 29.4266 176.962 29.4266 177.038 29.4266C179.185 29.4266 180.971 27.7358 181.104 25.5701C181.217 23.3284 179.489 21.4096 177.247 21.2957C177.171 21.2957 177.114 21.2957 177.038 21.2957H177.019Z" fill="white"/>
<path d="M164.975 28.4389C162.943 28.3249 161.385 26.5961 161.48 24.5634C161.594 22.6067 163.208 21.0679 165.165 21.0679H165.355C167.369 21.1819 168.946 22.9106 168.851 24.9434C168.737 26.9001 167.122 28.4389 165.165 28.4389H164.975Z" fill="black"/>
<path d="M165.166 21.4666C165.166 21.4666 165.279 21.4666 165.336 21.4666C167.16 21.5616 168.547 23.1004 168.452 24.9242C168.357 26.672 166.913 28.0398 165.166 28.0398C165.109 28.0398 165.052 28.0398 164.995 28.0398C163.19 27.9448 161.784 26.387 161.879 24.5822C161.974 22.8155 163.418 21.4666 165.166 21.4666ZM165.166 20.6877C163 20.6877 161.214 22.3785 161.1 24.5442C160.986 26.7859 162.715 28.7047 164.957 28.8377C165.033 28.8377 165.09 28.8377 165.166 28.8377C167.331 28.8377 169.117 27.1469 169.231 24.9812C169.345 22.7395 167.597 20.8207 165.374 20.6877C165.299 20.6877 165.223 20.6877 165.166 20.6877Z" fill="white"/>
<path d="M135.851 132.565L110.907 123.123L85.9632 113.662C85.9632 113.662 83.6265 119.665 85.7922 126.58L66.3008 151.106L77.0914 167.482L106.462 143.545C107.297 143.792 108.095 144.001 108.874 144.191L138.586 175.518L154.848 165.924L135.851 132.584V132.565Z" fill="black" stroke="black" stroke-width="1.5" stroke-linecap="round" stroke-linejoin="round"/>
<path d="M68.208 145.891L63.4902 149.255L77.5194 168.93L82.2372 165.566L68.208 145.891Z" fill="#16FFDD" stroke="black" stroke-width="1.5" stroke-linecap="round" stroke-linejoin="round"/>
<path d="M156.144 162.761L134.449 173.404L137.001 178.606L158.696 167.963L156.144 162.761Z" fill="#16FFDD" stroke="black" stroke-width="1.5" stroke-linecap="round" stroke-linejoin="round"/>
<path d="M228.958 119.931L244.992 132.641C244.992 132.641 248.088 135.604 246.15 138.321C244.042 141.266 240.375 139.214 240.299 139.157L222.479 128.689L228.958 119.95V119.931Z" fill="white" stroke="black" stroke-width="1.5" stroke-linecap="round" stroke-linejoin="round"/>
<path d="M154.296 70.7657C154.296 70.7657 166.15 51.8442 186.288 54.1999" stroke="black" stroke-width="1.5" stroke-linecap="round" stroke-linejoin="round"/>
<path d="M127.986 124.187L170.047 56.9548" stroke="black" stroke-width="1.5" stroke-linecap="round" stroke-linejoin="round"/>
<path d="M109.919 50.9705L124.395 50.3815C124.395 50.3815 129.22 50.0206 129.543 53.1932C129.828 56.8407 126.048 57.3156 125.972 57.3156L109.672 59.1394L109.938 50.9705H109.919Z" fill="white" stroke="black" stroke-width="1.5" stroke-linecap="round" stroke-linejoin="round"/>
<path d="M136.46 196.188H78.5938" stroke="black" stroke-width="1.5" stroke-linecap="round" stroke-linejoin="round"/>
<path d="M136.46 185.929H89.7451" stroke="black" stroke-width="1.5" stroke-linecap="round" stroke-linejoin="round"/>
<path d="M75.7238 40.2366H16.8125" stroke="black" stroke-width="1.5" stroke-linecap="round" stroke-linejoin="round"/>
<path d="M80.9864 28.6484H34.2715" stroke="black" stroke-width="1.5" stroke-linecap="round" stroke-linejoin="round"/>
<path d="M75.7243 40.2366H31.1182" stroke="black" stroke-width="1.5" stroke-linecap="round" stroke-linejoin="round"/>
<path d="M80.2826 125.212H7.99707" stroke="black" stroke-width="1.5" stroke-linecap="round" stroke-linejoin="round"/>
<path d="M80.2834 113.89H17.5156" stroke="black" stroke-width="1.5" stroke-linecap="round" stroke-linejoin="round"/>
<path d="M72.9118 135.281H22.7773" stroke="black" stroke-width="1.5" stroke-linecap="round" stroke-linejoin="round"/>
</g>
<defs>
<clipPath id="clip0_624_12009">
<rect width="488" height="260" fill="white"/>
</clipPath>
</defs>
</svg>
