<svg width="433" height="382" viewBox="0 0 433 382" fill="none" xmlns="http://www.w3.org/2000/svg">
<g clip-path="url(#clip0_624_11638)">
<path d="M430.178 4.79932H2.80078V174.525H430.178V4.79932Z" fill="#020202"/>
<mask id="mask0_624_11638" style="mask-type:luminance" maskUnits="userSpaceOnUse" x="2" y="4" width="429" height="171">
<path d="M430.178 4.79932H2.80078V174.525H430.178V4.79932Z" fill="white"/>
</mask>
<g mask="url(#mask0_624_11638)">
<path d="M151.579 130.628H27.8506V174.991H151.579V130.628Z" fill="#9EA1A3"/>
<path d="M228.74 152.455H141.998V175.012H228.74V152.455Z" fill="#9EA1A3"/>
<path d="M47.1757 142.13H39.3398V160.447H47.1757V142.13Z" fill="#C9CACA"/>
<path d="M65.7919 142.13H57.9561V160.447H65.7919V142.13Z" fill="#C9CACA"/>
<path d="M84.3858 142.13H76.5703V160.447H84.3858V142.13Z" fill="#C9CACA"/>
<path d="M103.001 142.13H95.165V160.447H103.001V142.13Z" fill="#C9CACA"/>
<path d="M121.617 142.13H113.781V160.447H121.617V142.13Z" fill="#C9CACA"/>
<path d="M140.231 142.13H132.396V160.447H140.231V142.13Z" fill="#C9CACA"/>
<path d="M57.955 122.493H39.3398V130.628H57.955V122.493Z" fill="#C9CACA"/>
<path d="M183.612 89.1445H171.98V180.631H183.612V89.1445Z" fill="#9EA1A3"/>
<path d="M191.448 95.717H164.246V98.9221H191.448V95.717Z" fill="#9EA1A3"/>
<path d="M191.448 69.7925H164.246V72.9975H191.448V69.7925Z" fill="#9EA1A3"/>
<path d="M194.574 82.207H161.1V85.4121H194.574V82.207Z" fill="#9EA1A3"/>
<path d="M161.1 85.4124L164.246 95.7172H191.448L194.574 85.4124H161.1Z" fill="#C9CACA"/>
<path d="M179.207 42.7119H176.467V76.933H179.207V42.7119Z" fill="#9EA1A3"/>
<path d="M166.256 72.9978L168.529 82.187H187.145L189.418 72.9978H166.256Z" fill="#C9CACA"/>
</g>
<path d="M84.4473 35.3489C84.4473 36.6472 83.3917 37.6817 82.1128 37.6817C80.8339 37.6817 79.7783 36.6269 79.7783 35.3489C79.7783 34.0709 80.8339 33.0161 82.1128 33.0161C83.3917 33.0161 84.4473 34.0507 84.4473 35.3489Z" fill="white"/>
<path d="M130.386 95.7984C131.676 95.7984 132.721 94.754 132.721 93.4656C132.721 92.1772 131.676 91.1328 130.386 91.1328C129.097 91.1328 128.052 92.1772 128.052 93.4656C128.052 94.754 129.097 95.7984 130.386 95.7984Z" fill="white"/>
<path d="M98.9415 77.116C98.9415 78.4142 97.9062 79.4488 96.607 79.4488C95.3078 79.4488 94.2725 78.4142 94.2725 77.116C94.2725 75.8177 95.3281 74.7832 96.607 74.7832C97.8859 74.7832 98.9415 75.838 98.9415 77.116Z" fill="white"/>
<path d="M262.561 89.6724C262.561 90.9706 261.525 92.0052 260.226 92.0052C258.927 92.0052 257.892 90.9706 257.892 89.6724C257.892 88.3741 258.947 87.3396 260.226 87.3396C261.505 87.3396 262.561 88.3944 262.561 89.6724Z" fill="white"/>
<path d="M137.391 54.4573C137.391 55.7556 136.335 56.7901 135.056 56.7901C133.777 56.7901 132.722 55.7353 132.722 54.4573C132.722 53.1793 133.777 52.1245 135.056 52.1245C136.335 52.1245 137.391 53.1793 137.391 54.4573Z" fill="white"/>
<path d="M283.469 47.1546C283.469 48.4325 282.413 49.4874 281.134 49.4874C279.855 49.4874 278.8 48.4325 278.8 47.1546C278.8 45.8766 279.835 44.8218 281.134 44.8218C282.434 44.8218 283.469 45.8563 283.469 47.1546Z" fill="white"/>
<path d="M272.974 35.2876C272.974 36.5859 271.918 37.6204 270.639 37.6204C269.36 37.6204 268.305 36.5859 268.305 35.2876C268.305 33.9894 269.34 32.9548 270.639 32.9548C271.938 32.9548 272.974 34.0097 272.974 35.2876Z" fill="white"/>
<path d="M403.32 29.5674C403.32 30.8657 402.285 31.9002 400.986 31.9002C399.687 31.9002 398.651 30.8454 398.651 29.5674C398.651 28.2894 399.707 27.2346 400.986 27.2346C402.265 27.2346 403.32 28.2894 403.32 29.5674Z" fill="white"/>
<path d="M46.8721 86.4673C46.8721 87.7656 45.8368 88.8001 44.5376 88.8001C43.2384 88.8001 42.2031 87.7453 42.2031 86.4673C42.2031 85.1893 43.2587 84.1345 44.5376 84.1345C45.8165 84.1345 46.8721 85.1691 46.8721 86.4673Z" fill="white"/>
<path d="M400.986 58.3318C400.986 59.6301 399.931 60.6646 398.652 60.6646C397.373 60.6646 396.317 59.6098 396.317 58.3318C396.317 57.0539 397.373 55.999 398.652 55.999C399.931 55.999 400.986 57.0336 400.986 58.3318Z" fill="white"/>
<path d="M384.016 39.8316C384.016 41.1298 382.96 42.1644 381.681 42.1644C380.402 42.1644 379.347 41.1095 379.347 39.8316C379.347 38.5536 380.402 37.4988 381.681 37.4988C382.96 37.4988 384.016 38.5333 384.016 39.8316Z" fill="white"/>
<path d="M226.061 101.154C226.061 102.452 225.025 103.487 223.726 103.487C222.427 103.487 221.392 102.452 221.392 101.154C221.392 99.8556 222.447 98.821 223.726 98.821C225.005 98.821 226.061 99.8759 226.061 101.154Z" fill="white"/>
<path d="M68.2888 54.6805C59.8237 54.6805 52.9826 47.8241 52.9826 39.3855C52.9826 34.9227 54.8908 30.9063 57.9358 28.1272C51.2165 29.75 46.2227 35.795 46.2227 42.9962C46.2227 51.4551 53.0841 58.2912 61.5289 58.2912C65.528 58.2912 69.1617 56.7698 71.8819 54.2545C70.7248 54.5385 69.5271 54.6805 68.2888 54.6805Z" fill="white"/>
<path fill-rule="evenodd" clip-rule="evenodd" d="M250.604 47.2561C250.299 46.3432 248.837 46.2418 247.193 46.6678C243.661 47.5401 237.713 49.954 237.713 49.954L226.061 45.9172L224.376 46.6678L230.567 52.4288L223.259 55.1064L218.408 53.0373L216.357 53.5445L219.199 56.8104L224.274 58.3723L248.208 49.8323C249.771 49.1629 250.847 48.1892 250.563 47.2966L250.604 47.2561Z" fill="white"/>
<path d="M430.178 4.79932H2.80078V174.201H430.178V4.79932Z" stroke="#C9CACA" stroke-width="8" stroke-miterlimit="10"/>
<g clip-path="url(#clip1_624_11638)">
<path d="M349.854 271.717L367.986 299.662L351.449 311.136L341.651 295.703" fill="#001689"/>
<path d="M349.854 271.717L367.986 299.662L351.449 311.136L341.651 295.703" stroke="#16FFDD" stroke-width="2" stroke-linecap="round" stroke-linejoin="round"/>
<path d="M300.461 225.483L300.79 149.157L300.658 180.424L262.495 212.48L254.312 202.566L284.632 167.567C289.276 131.116 291.99 115.181 316.952 115.181H322.37V225.483H300.466H300.461Z" fill="#16FFDD" stroke="#001689" stroke-width="2" stroke-linecap="round" stroke-linejoin="round"/>
<path d="M300.46 107.981L369.287 108.037C371.642 105.91 372.958 102.715 372.553 99.3224C371.89 93.7728 366.862 89.793 361.302 90.4664C360.832 90.517 360.391 90.6183 359.966 90.7297C357.824 85.6612 352.806 82.0965 346.958 82.0915C345.287 82.0915 343.692 82.3852 342.203 82.9168C339.038 77.98 333.519 74.6887 327.215 74.6887C318.577 74.6786 311.392 80.8206 309.752 88.9575C308.906 88.7499 308.035 88.6233 307.129 88.6233C301.149 88.6233 296.293 93.469 296.293 99.4489C296.293 102.917 297.918 106.001 300.455 107.981H300.46Z" fill="white" stroke="#001689" stroke-width="2" stroke-linecap="round" stroke-linejoin="round"/>
<path d="M338.664 94.8816L345.444 94.8917L346.806 96.8563" stroke="#001689" stroke-width="1.58992" stroke-linecap="round" stroke-linejoin="round"/>
<path d="M326.658 94.8713L332.056 94.8815" stroke="#001689" stroke-width="1.58992" stroke-linecap="round" stroke-linejoin="round"/>
<path d="M335.337 97.4082C333.945 97.4082 332.815 96.274 332.815 94.8815C332.815 93.4941 333.95 92.365 335.342 92.365C336.735 92.365 337.869 93.4992 337.869 94.8916C337.869 96.2841 336.735 97.4132 335.337 97.4132V97.4082Z" fill="#001689"/>
<path d="M335.342 93.1599C336.299 93.1599 337.074 93.9346 337.074 94.8916C337.074 95.8486 336.294 96.6183 335.342 96.6183C334.39 96.6183 333.615 95.8385 333.615 94.8866C333.615 93.9346 334.395 93.1599 335.347 93.1599M335.342 91.57C333.509 91.57 332.026 93.0485 332.021 94.8815C332.021 96.7145 333.504 98.2031 335.337 98.2031C337.17 98.2031 338.664 96.7195 338.664 94.8866C338.664 93.0536 337.175 91.5649 335.342 91.5649V91.57Z" fill="#001689"/>
<path d="M323.352 97.4082C321.959 97.4082 320.83 96.274 320.83 94.8815C320.83 93.4941 321.964 92.365 323.357 92.365C324.749 92.365 325.883 93.4992 325.883 94.8916C325.883 96.2841 324.749 97.4132 323.357 97.4132L323.352 97.4082Z" fill="#001689"/>
<path d="M323.357 93.1599C324.314 93.1599 325.088 93.9346 325.088 94.8916C325.088 95.8486 324.309 96.6183 323.357 96.6183C322.405 96.6183 321.625 95.8385 321.625 94.8866C321.625 93.9346 322.405 93.1599 323.357 93.1599ZM323.357 91.57C321.524 91.57 320.04 93.0485 320.035 94.8815C320.035 96.7145 321.519 98.2031 323.352 98.2031C325.185 98.2031 326.678 96.7195 326.678 94.8866C326.678 93.0536 325.19 91.5649 323.357 91.5649V91.57Z" fill="#001689"/>
<path d="M314.978 225.483V128.726" stroke="#001689" stroke-width="2" stroke-linecap="round" stroke-linejoin="round"/>
<path d="M303.356 117.586C309.19 121.308 322.36 132.042 322.36 152.944" stroke="#001689" stroke-width="2" stroke-linecap="round" stroke-linejoin="round"/>
<path d="M365.88 225.483H341.459V115.186H354.999C364.148 115.186 372.199 118.072 377.065 126.24L397.142 163.8C401.446 172.423 401.486 182.15 394.676 187.816C385.698 195.264 361.419 215.533 361.419 215.533L355.581 204.054L381.48 177.112L366.037 149.162H365.566L365.728 193.497" fill="#16FFDD"/>
<path d="M365.88 225.483H341.459V115.186H354.999C364.148 115.186 372.199 118.072 377.065 126.24L397.142 163.8C401.446 172.423 401.486 182.15 394.676 187.816C385.698 195.264 361.419 215.533 361.419 215.533L355.581 204.054L381.48 177.112L366.037 149.162H365.566L365.728 193.497" stroke="#001689" stroke-width="2" stroke-linecap="round" stroke-linejoin="round"/>
<path d="M348.856 225.483V128.726" stroke="#001689" stroke-width="2" stroke-linecap="round" stroke-linejoin="round"/>
<path d="M363.201 116.037C363.201 116.037 341.464 126.093 341.464 152.944" stroke="#001689" stroke-width="2" stroke-linecap="round" stroke-linejoin="round"/>
<path d="M320.669 300.877L312.517 343.648L323.697 346.484L333.95 304.108L320.669 300.877Z" fill="white" stroke="#001689" stroke-width="2" stroke-linecap="round" stroke-linejoin="round"/>
<path d="M355.697 311.951L378.285 337.344L387.313 330.164L366.811 304.386L355.697 311.951Z" fill="white" stroke="#001689" stroke-width="2" stroke-linecap="round" stroke-linejoin="round"/>
<path d="M333.328 243.205L316.127 305.485L336.867 309.971L363.612 231.478H301.641C303.21 245.099 310.588 259.332 325.575 270.866" fill="#001689"/>
<path d="M333.328 243.205L316.127 305.485L336.867 309.971L363.612 231.478H301.641C303.21 245.099 310.588 259.332 325.575 270.866" stroke="#16FFDD" stroke-width="2" stroke-linecap="round" stroke-linejoin="round"/>
<path d="M313.159 310.098L337.008 315.911L338.4 310.189L314.536 304.386L313.159 310.098Z" fill="#16FFDD" stroke="#001689" stroke-width="2" stroke-linecap="round" stroke-linejoin="round"/>
<path d="M369.11 297.372L348.984 311.417L352.352 316.242L372.478 302.197L369.11 297.372Z" fill="#16FFDD" stroke="#001689" stroke-width="2" stroke-linecap="round" stroke-linejoin="round"/>
<path d="M378.225 337.461L397.147 358.013L404.696 352.347L387.182 329.825L378.225 337.461Z" fill="#16FFDD" stroke="#001689" stroke-width="2" stroke-linecap="round" stroke-linejoin="round"/>
<path d="M384.007 349.005C384.007 349.005 385.987 357.75 377.784 370.348C376.088 372.94 372.888 375.335 374.786 378.338C374.786 378.338 378.68 384.252 387.334 376.88C388.974 375.482 390.63 374.085 392.27 372.677C395.698 369.76 399.116 366.849 402.534 363.932C405.471 361.431 412.828 355.471 413.112 354.702C413.385 353.932 412.899 352.722 412.58 352.018C412.089 350.935 410.99 350.484 410.028 349.886C406.818 347.876 403.602 345.856 400.387 343.841C400.387 343.841 397.091 341.831 396.367 345.086C395.744 347.927 395.643 350.408 390.002 352.322C390.002 352.322 389.08 350.535 387.627 347.694C386.402 345.284 383.207 346.342 384.007 349.005Z" fill="#16FFDD" stroke="#001689" stroke-width="2" stroke-linecap="round" stroke-linejoin="round"/>
<path d="M376.478 379.817C378.376 380.905 381.926 381.487 387.334 376.875C388.974 375.477 390.63 374.08 392.27 372.672C395.698 369.755 399.116 366.844 402.534 363.927C405.471 361.426 412.828 355.466 413.112 354.697C413.385 353.927 412.899 352.717 412.58 352.013C412.089 350.93 412.17 351.178 411.213 350.595" fill="white"/>
<path d="M376.478 379.817C378.376 380.905 381.926 381.487 387.334 376.875C388.974 375.477 390.63 374.08 392.27 372.672C395.698 369.755 399.116 366.844 402.534 363.927C405.471 361.426 412.828 355.466 413.112 354.697C413.385 353.927 412.899 352.717 412.58 352.013C412.089 350.93 412.17 351.178 411.213 350.595" stroke="#001689" stroke-width="2" stroke-linecap="round" stroke-linejoin="round"/>
<path d="M411.213 350.595C411.213 350.595 401.217 359.684 377.08 380.11L411.213 350.595Z" fill="white"/>
<path d="M411.213 350.595C411.213 350.595 401.217 359.684 377.08 380.11" stroke="#001689" stroke-width="2" stroke-linecap="round" stroke-linejoin="round"/>
<path d="M406.317 347.729L400.863 352.849L403.673 357.016" stroke="#001689" stroke-width="2" stroke-linecap="round" stroke-linejoin="round"/>
<path d="M383.562 357.239L388.139 358.596" stroke="#001689" stroke-width="2" stroke-linecap="round" stroke-linejoin="round"/>
<path d="M382.64 361.325L386.599 362.55" stroke="#001689" stroke-width="2" stroke-linecap="round" stroke-linejoin="round"/>
<path d="M380.746 365.133L385.161 366.393" stroke="#001689" stroke-width="2" stroke-linecap="round" stroke-linejoin="round"/>
<path d="M312.683 342.686L307.6 370.16L316.648 372.808L324.167 345.279L312.683 342.686Z" fill="#16FFDD" stroke="#001689" stroke-width="2" stroke-linecap="round" stroke-linejoin="round"/>
<path d="M306.907 354.246C306.907 354.246 301.104 361.077 286.106 362.059C283.022 362.261 279.179 361.132 277.923 364.459C277.923 364.459 275.513 371.117 286.602 373.619C288.703 374.095 290.825 374.576 292.926 375.047C297.311 376.039 301.701 377.026 306.076 378.019C309.838 378.87 319.023 381.184 319.808 380.946C320.593 380.697 321.256 379.594 321.641 378.91C322.213 377.872 321.904 376.718 321.813 375.599C321.499 371.811 321.18 368.039 320.866 364.256C320.866 364.256 320.507 360.413 317.469 361.785C314.816 362.986 312.765 364.393 307.848 361.036C307.848 361.036 308.734 359.223 310.132 356.357C311.327 353.927 308.562 352.023 306.896 354.246H306.907Z" fill="#16FFDD" stroke="#001689" stroke-width="2" stroke-linecap="round" stroke-linejoin="round"/>
<path d="M277.741 366.697C278.015 368.864 279.681 372.059 286.607 373.618C288.709 374.094 290.83 374.575 292.932 375.046C297.316 376.039 301.706 377.026 306.081 378.019C309.843 378.869 319.028 381.183 319.813 380.945C320.598 380.697 321.261 379.593 321.646 378.91C322.218 377.872 322.056 378.084 321.965 376.965" fill="white"/>
<path d="M277.741 366.697C278.015 368.864 279.681 372.059 286.607 373.618C288.709 374.094 290.83 374.575 292.932 375.046C297.316 376.039 301.706 377.026 306.081 378.019C309.843 378.869 319.028 381.183 319.813 380.945C320.598 380.697 321.261 379.593 321.646 378.91C322.218 377.872 322.056 378.084 321.965 376.965" stroke="#001689" stroke-width="2" stroke-linecap="round" stroke-linejoin="round"/>
<path d="M321.965 376.966C321.965 376.966 308.704 374.429 277.862 367.355L321.965 376.966Z" fill="white"/>
<path d="M321.965 376.966C321.965 376.966 308.704 374.429 277.862 367.355" stroke="#001689" stroke-width="2" stroke-linecap="round" stroke-linejoin="round"/>
<path d="M321.312 371.335L313.949 370.044L312.304 374.793" stroke="#001689" stroke-width="2" stroke-linecap="round" stroke-linejoin="round"/>
<path d="M300.051 358.818L301.717 363.299" stroke="#001689" stroke-width="2" stroke-linecap="round" stroke-linejoin="round"/>
<path d="M296.238 360.54L297.626 364.439" stroke="#001689" stroke-width="2" stroke-linecap="round" stroke-linejoin="round"/>
<path d="M292.045 361.304L293.685 365.588" stroke="#001689" stroke-width="2" stroke-linecap="round" stroke-linejoin="round"/>
<path d="M260.743 212.652L244.282 224.556C244.221 224.602 240.418 226.81 238.251 224.106C235.876 221.149 239.006 218.035 239.066 217.984L253.533 204.1" fill="white"/>
<path d="M260.743 212.652L244.282 224.556C244.221 224.602 240.418 226.81 238.251 224.106C235.876 221.149 239.006 218.035 239.066 217.984L253.533 204.1" stroke="#001689" stroke-width="2" stroke-linecap="round" stroke-linejoin="round"/>
<path d="M353.845 200.495L362.554 217.873" stroke="#001689" stroke-width="2" stroke-linecap="round" stroke-linejoin="round"/>
<path d="M251.371 230.475H246.1V309.176H251.371V230.475Z" fill="#16FFDD" stroke="#001689" stroke-width="2" stroke-linecap="round" stroke-linejoin="round"/>
<path d="M227.578 230.475H222.307V309.176H227.578V230.475Z" fill="#16FFDD" stroke="#001689" stroke-width="2" stroke-linecap="round" stroke-linejoin="round"/>
<path d="M244.333 373.917C244.333 377.806 247.482 380.955 251.371 380.955C255.26 380.955 258.419 377.806 258.419 373.917C258.419 370.029 255.27 366.874 251.371 366.874C247.472 366.874 244.333 370.023 244.333 373.917Z" fill="#16FFDD" stroke="#001689" stroke-width="2" stroke-linecap="round" stroke-linejoin="round"/>
<path d="M229.355 373.917C229.355 377.806 226.201 380.955 222.307 380.955C218.413 380.955 215.269 377.806 215.269 373.917C215.269 370.029 218.418 366.874 222.307 366.874C226.195 366.874 229.355 370.023 229.355 373.917Z" fill="#16FFDD" stroke="#001689" stroke-width="2" stroke-linecap="round" stroke-linejoin="round"/>
<path d="M207.688 364.211C207.688 369.568 212.023 373.912 217.39 373.912H256.297C261.665 373.912 265.999 369.563 265.999 364.211V280.386C265.999 275.039 261.665 270.694 256.297 270.694H217.39C212.023 270.694 207.688 275.039 207.688 280.386V364.211Z" fill="white" stroke="#001689" stroke-width="2" stroke-linecap="round" stroke-linejoin="round"/>
<path d="M251.371 226.667H222.307V232.222H251.371V226.667Z" fill="white" stroke="#001689" stroke-width="2" stroke-linecap="round" stroke-linejoin="round"/>
<path d="M233.477 357.38C233.477 359.238 234.985 360.742 236.844 360.742C238.702 360.742 240.201 359.238 240.201 357.38V287.226C240.201 285.373 238.702 283.859 236.844 283.859C234.991 283.859 233.477 285.368 233.477 287.226V357.38Z" fill="white" stroke="#001689" stroke-width="2" stroke-linecap="round" stroke-linejoin="round"/>
<path d="M248.014 357.38C248.014 359.238 249.523 360.742 251.371 360.742C253.229 360.742 254.738 359.238 254.738 357.38V287.226C254.738 285.373 253.229 283.859 251.371 283.859C249.523 283.859 248.014 285.368 248.014 287.226V357.38Z" fill="white" stroke="#001689" stroke-width="2" stroke-linecap="round" stroke-linejoin="round"/>
<path d="M225.673 357.38C225.673 359.238 224.175 360.742 222.306 360.742C220.458 360.742 218.949 359.238 218.949 357.38V287.226C218.949 285.373 220.458 283.859 222.306 283.859C224.175 283.859 225.673 285.368 225.673 287.226V357.38Z" fill="white" stroke="#001689" stroke-width="2" stroke-linecap="round" stroke-linejoin="round"/>
<path d="M341.459 115.186H322.365V225.488H341.459V115.186Z" fill="white" stroke="#001689" stroke-width="2" stroke-linecap="round" stroke-linejoin="round"/>
</g>
</g>
<defs>
<clipPath id="clip0_624_11638">
<rect width="433" height="382" fill="white"/>
</clipPath>
<clipPath id="clip1_624_11638">
<rect width="206.938" height="307.7" fill="white" transform="translate(207 74)"/>
</clipPath>
</defs>
</svg>
