<svg width="567" height="260" viewBox="0 0 567 260" fill="none" xmlns="http://www.w3.org/2000/svg">
<g clip-path="url(#clip0_624_11121)">
<path d="M61.7176 57.2967H54.4183V160.887H61.7176V57.2967Z" fill="black"/>
<path d="M28.8708 57.2967H21.5715V160.887H28.8708V57.2967Z" fill="black"/>
<path d="M51.9852 250.273C51.9852 255.64 56.3469 260 61.7175 260C67.0882 260 71.4499 255.64 71.4499 250.273C71.4499 244.905 67.1178 240.545 61.7175 240.545C56.3173 240.545 51.9852 244.905 51.9852 250.273Z" fill="black"/>
<path d="M31.3039 250.273C31.3039 255.64 26.9718 260 21.5715 260C16.1712 260 11.8688 255.64 11.8688 250.273C11.8688 244.905 16.2305 240.545 21.5715 240.545C26.9124 240.545 31.3039 244.905 31.3039 250.273Z" fill="black"/>
<path d="M1.3946 236.868C1.3946 244.282 7.38832 250.273 14.8063 250.273H68.5421C75.9304 250.273 81.9241 244.282 81.9241 236.868V121.177C81.9241 113.793 75.9304 107.802 68.5421 107.802H14.7766C7.35865 107.802 1.36493 113.793 1.36493 121.177V236.868H1.3946Z" fill="white" stroke="black" stroke-width="2" stroke-linecap="round" stroke-linejoin="round"/>
<path d="M61.6879 48.2514H21.5715C20.8013 48.2514 20.1769 48.8755 20.1769 49.6453V57.2967C20.1769 58.0665 20.8013 58.6906 21.5715 58.6906H61.6879C62.4581 58.6906 63.0825 58.0665 63.0825 57.2967V49.6453C63.0825 48.8755 62.4581 48.2514 61.6879 48.2514Z" fill="white"/>
<path d="M61.7176 49.6156V57.2967H21.5715V49.6156H61.7176ZM61.7176 46.8575H21.5715C20.0286 46.8575 18.812 48.1031 18.812 49.6156V57.2967C18.812 58.8388 20.0582 60.0548 21.5715 60.0548H61.7176C63.2605 60.0548 64.477 58.8092 64.477 57.2967V49.6156C64.477 48.0735 63.2308 46.8575 61.7176 46.8575Z" fill="black"/>
<path d="M37.0009 227.437C37.0009 229.987 39.0779 232.063 41.6593 232.063C44.2111 232.063 46.2882 229.987 46.2882 227.437V130.608C46.2882 128.058 44.2111 125.952 41.6593 125.952C39.0779 125.952 37.0009 128.028 37.0009 130.608V227.437Z" fill="white" stroke="black" stroke-width="2" stroke-linecap="round" stroke-linejoin="round"/>
<path d="M57.0887 227.437C57.0887 229.987 59.1658 232.063 61.7176 232.063C64.299 232.063 66.3464 229.987 66.3464 227.437V130.608C66.3464 128.058 64.2693 125.952 61.7176 125.952C59.1658 125.952 57.0887 128.028 57.0887 130.608V227.437Z" fill="white" stroke="black" stroke-width="2" stroke-linecap="round" stroke-linejoin="round"/>
<path d="M26.23 227.437C26.23 229.987 24.153 232.063 21.5715 232.063C19.0197 232.063 16.9427 229.987 16.9427 227.437V130.608C16.9427 128.058 19.0197 125.952 21.5715 125.952C24.153 125.952 26.23 128.028 26.23 130.608V227.437Z" fill="white" stroke="black" stroke-width="2" stroke-linecap="round" stroke-linejoin="round"/>
<path d="M480.299 144.072H556.229C561.422 144.072 565.605 148.283 565.605 153.444V217.799C565.605 222.988 561.392 227.17 556.229 227.17H134.354C129.162 227.17 124.978 222.959 124.978 217.799V153.444C124.978 148.254 129.162 144.072 134.354 144.072H360.217" stroke="black" stroke-width="2" stroke-linecap="round" stroke-linejoin="round"/>
<path d="M545.162 109.552C551.126 100.121 546.23 89.8893 534.806 97.3628C516.914 89.6224 490.447 87.2202 471.516 87.0126C481.189 106.378 474.335 136.005 472.525 142.738C468.341 158.248 465.077 167.442 460.478 173.314C501.396 180.906 526.676 172.157 526.676 172.157C545.102 178.8 547.268 173.521 543.5 163.112C552.817 133.188 545.191 109.522 545.191 109.522L545.162 109.552Z" fill="white" stroke="black" stroke-width="2" stroke-linecap="round" stroke-linejoin="round"/>
<path d="M476.975 119.19C477.153 119.309 488.34 113.971 500.001 118.034C500.001 118.034 477.955 119.487 475.759 126.575C473.563 133.663 476.975 119.19 476.975 119.19Z" fill="#D0D2D3"/>
<path d="M476.056 125.863C476.174 126.07 497.419 126.248 507.894 141.848C507.894 141.848 485.195 126.96 474.661 132.891L476.026 125.863H476.056Z" fill="#D0D2D3"/>
<path d="M552.253 227.14H138.33V254.128H552.253V227.14Z" fill="black" stroke="black" stroke-width="2" stroke-linecap="round" stroke-linejoin="round"/>
<path d="M314.908 43.2691C309.448 35.2025 296.66 34.0755 287.075 43.625L207.852 144.636L218.415 155.816L285.265 99.2312L314.908 43.2987V43.2691Z" fill="black" stroke="black" stroke-width="2" stroke-linecap="round" stroke-linejoin="round"/>
<path d="M439.025 159.849C422.557 140.276 410.125 123.164 410.125 123.164L396.713 129.748C432.438 209.168 459.291 204.542 475.848 132.239C478.637 120.05 482.613 106.497 481.753 97.4814C478.696 65.9267 452.971 71.087 452.971 71.087L413.923 74.7941C413.923 74.7941 390.601 77.048 388.168 98.6974C384.993 127.049 357.784 122.156 357.784 122.156L378.198 184.88C378.198 184.88 404.814 185.443 427.097 179.601" fill="#16FFDD"/>
<path d="M439.025 159.849C422.557 140.276 410.125 123.164 410.125 123.164L396.713 129.748C432.438 209.168 459.291 204.542 475.848 132.239C478.637 120.05 482.613 106.497 481.753 97.4814C478.696 65.9267 452.971 71.087 452.971 71.087L413.923 74.7941C413.923 74.7941 390.601 77.048 388.168 98.6974C384.993 127.049 357.784 122.156 357.784 122.156L378.198 184.88C378.198 184.88 404.814 185.443 427.097 179.601" stroke="black" stroke-width="2" stroke-linecap="round" stroke-linejoin="round"/>
<path d="M439.025 159.849C439.025 159.849 444.574 131.942 450.3 114.653L439.025 159.849Z" fill="#16FFDD"/>
<path d="M439.025 159.849C439.025 159.849 444.574 131.942 450.3 114.653" stroke="black" stroke-width="2" stroke-linecap="round" stroke-linejoin="round"/>
<path d="M379.8 128.858C380.364 127.82 380.661 126.604 380.661 125.477C380.661 121.592 377.99 116.136 375.587 113.229C371.047 107.683 363.748 109.018 363.213 116.729C362.857 122.008 368.97 130.341 373.955 131.854C376.506 132.625 378.643 131.053 379.8 128.888V128.858Z" fill="white" stroke="black" stroke-width="2" stroke-linecap="round" stroke-linejoin="round"/>
<path d="M396.743 129.748C394.695 124.41 390.096 115.631 388.079 110.293C386.803 106.942 382.678 102.849 383.776 99.0533C385.408 93.4778 392.44 96.5324 395.764 98.4305C403.686 102.938 406.149 115.898 410.125 123.164L396.713 129.748H396.743Z" fill="white" stroke="black" stroke-width="2" stroke-linecap="round" stroke-linejoin="round"/>
<path d="M207.703 145.288L191.74 162.252C191.532 162.192 191.354 162.103 191.146 162.044C188.149 161.065 184.915 160.383 182.512 159.256C178.387 157.329 174.678 154.452 171.563 151.13C170.139 149.618 166.014 146 163.967 148.669C161.741 151.575 165.925 156.676 167.646 158.663C170.821 162.252 175.212 164.506 178.239 168.183C182.126 172.898 187.942 183.575 195.063 176.813C195.33 176.546 203.905 168.954 218.355 156.291" fill="white"/>
<path d="M207.703 145.288L191.74 162.252C191.532 162.192 191.354 162.103 191.146 162.044C188.149 161.065 184.915 160.383 182.512 159.256C178.387 157.329 174.678 154.452 171.563 151.13C170.139 149.618 166.014 146 163.967 148.669C161.741 151.575 165.925 156.676 167.646 158.663C170.821 162.252 175.212 164.506 178.239 168.183C182.126 172.898 187.942 183.575 195.063 176.813C195.33 176.546 203.905 168.954 218.355 156.291" stroke="black" stroke-width="2" stroke-linecap="round" stroke-linejoin="round"/>
<path d="M259.599 170.971L253.576 188.854C253.368 188.854 253.161 188.913 252.953 188.943C249.808 189.358 246.633 190.159 243.962 190.188C239.393 190.248 234.823 189.269 230.58 187.638C228.622 186.896 223.34 185.443 222.688 188.735C221.946 192.323 227.939 195.082 230.343 196.12C234.764 197.958 239.719 198.107 244.022 200.064C249.57 202.614 259.451 209.702 262.923 200.509C263.071 200.153 265.148 195.2 272.655 177.495" fill="white"/>
<path d="M259.599 170.971L253.576 188.854C253.368 188.854 253.161 188.913 252.953 188.943C249.808 189.358 246.633 190.159 243.962 190.188C239.393 190.248 234.823 189.269 230.58 187.638C228.622 186.896 223.34 185.443 222.688 188.735C221.946 192.323 227.939 195.082 230.343 196.12C234.764 197.958 239.719 198.107 244.022 200.064C249.57 202.614 259.451 209.702 262.923 200.509C263.071 200.153 265.148 195.2 272.655 177.495" stroke="black" stroke-width="2" stroke-linecap="round" stroke-linejoin="round"/>
<path d="M378.88 184.909C319.418 184.909 305.887 137.548 303.543 126.159C303.484 125.952 322.088 95.4648 322.088 95.4648L273.011 176.665L255.386 167.501L308.41 37.1005C316.065 20.7893 336.36 23.4881 340.663 37.1005C344.728 49.8825 378.88 184.939 378.88 184.939V184.909Z" fill="black" stroke="black" stroke-width="2" stroke-linecap="round" stroke-linejoin="round"/>
<path d="M447.749 91.9357C440.835 84.996 437.66 74.6755 438.224 64.9184C438.521 59.7582 440.449 55.1614 443.12 50.6239C444.574 48.1328 446.74 46.0864 447.333 43.2394L446.443 36.2701C446.977 36.5073 447.541 36.626 448.164 36.5667C449.855 36.3591 451.072 34.7873 450.864 33.0968C450.657 31.3767 449.084 30.1905 447.393 30.3981C446.532 30.5167 445.79 30.9615 445.316 31.614C445.138 31.2285 444.989 30.8133 444.782 30.4574C443.565 28.3814 442.942 25.5344 443.15 22.7763C439.47 22.717 436.414 22.6873 432.646 23.4584C427.78 24.4371 422.676 26.0089 417.661 25.8903C414.308 25.8013 410.629 24.6447 408.285 22.0645C408.166 21.9459 408.077 21.7976 407.959 21.6494L411.312 48.0141C411.875 52.4626 416.623 59.8768 422.409 61.1817L421.548 72.3326L412.677 74.9127C412.677 74.9127 416.415 94.7531 444.752 88.3472" fill="white"/>
<path d="M447.749 91.9357C440.835 84.996 437.66 74.6755 438.224 64.9184C438.521 59.7582 440.449 55.1614 443.12 50.6239C444.574 48.1328 446.74 46.0864 447.333 43.2394L446.443 36.2701C446.977 36.5073 447.541 36.626 448.164 36.5667C449.855 36.3591 451.072 34.7873 450.864 33.0968C450.657 31.3767 449.084 30.1905 447.393 30.3981C446.532 30.5167 445.79 30.9615 445.316 31.614C445.138 31.2285 444.989 30.8133 444.782 30.4574C443.565 28.3814 442.942 25.5344 443.15 22.7763C439.47 22.717 436.414 22.6873 432.646 23.4584C427.78 24.4371 422.676 26.0089 417.661 25.8903C414.308 25.8013 410.629 24.6447 408.285 22.0645C408.166 21.9459 408.077 21.7976 407.959 21.6494L411.312 48.0141C411.875 52.4626 416.623 59.8768 422.409 61.1817L421.548 72.3326L412.677 74.9127C412.677 74.9127 416.415 94.7531 444.752 88.3472" stroke="black" stroke-width="2" stroke-linecap="round" stroke-linejoin="round"/>
<path d="M426.83 50.2384C426.83 50.2384 433.922 52.9372 436.829 46.3237" stroke="black" stroke-width="2" stroke-linecap="round" stroke-linejoin="round"/>
<path d="M425.109 33.512C425.109 33.512 423.952 38.7316 421.756 43.1504C420.005 46.6796 426.919 45.1671 426.919 45.1671" stroke="black" stroke-width="2" stroke-linecap="round" stroke-linejoin="round"/>
<path d="M496.262 71.8878C491.841 63.1094 483.533 61.6859 474.928 59.6692C472.851 59.1947 469.617 57.7415 468.46 55.8138C465.344 50.5943 465.285 44.5443 466.264 38.7316C466.857 35.0838 466.383 31.0802 465.582 27.4621C464.899 24.4074 462.911 21.3528 460.3 19.0099C457.481 16.4594 453.95 14.7394 450.538 14.68C450.241 14.68 450.004 14.68 449.737 14.7394C448.669 12.96 447.541 11.3882 447.007 10.7061C441.814 4.09261 433.566 1.03798 425.406 1.39386C420.035 1.63111 414.694 3.38086 410.273 6.58378C405.704 9.87567 404.368 17.705 408.255 22.0052C410.6 24.5854 414.279 25.7716 417.632 25.831C422.646 25.9199 427.75 24.3778 432.616 23.3991C436.384 22.628 439.411 22.6577 443.12 22.717C442.912 25.4751 443.535 28.3221 444.752 30.3981C444.96 30.754 445.108 31.1692 445.286 31.5547C445.79 30.9022 446.503 30.4574 447.363 30.3388C449.054 30.1312 450.627 31.3174 450.835 33.0375C451.072 34.728 449.855 36.2998 448.134 36.5074C447.749 36.5667 447.363 36.5074 447.007 36.4184C447.422 38.3757 447.6 40.3924 447.452 42.2904C447.215 45.6119 444.693 47.8362 443.09 50.5646C440.42 55.1021 438.491 59.6989 438.194 64.8591C437.453 77.8784 443.387 91.9653 455.968 97.5704C466.294 102.167 480.447 102.197 489.794 95.3165C496.767 90.1859 500.179 79.5985 496.262 71.8581V71.8878Z" fill="black" stroke="black" stroke-width="2" stroke-linecap="round" stroke-linejoin="round"/>
<path d="M413.359 35.8549C413.359 35.8549 416.712 37.397 419.59 34.8762" stroke="black" stroke-width="2" stroke-linecap="round" stroke-linejoin="round"/>
<path d="M430.124 33.0672C430.124 33.0672 433.773 34.7576 436.889 32.0292" stroke="black" stroke-width="2" stroke-linecap="round" stroke-linejoin="round"/>
</g>
<defs>
<clipPath id="clip0_624_11121">
<rect width="567" height="260" fill="white"/>
</clipPath>
</defs>
</svg>
