<svg width="320" height="454" viewBox="0 0 320 454" fill="none" xmlns="http://www.w3.org/2000/svg">
<path d="M248.466 65.2825H279.611C286.625 65.2825 292.301 70.9588 292.301 77.9725V213.313C292.301 220.327 286.595 226.003 279.611 226.003H248.466C241.452 226.003 235.746 220.297 235.746 213.283V78.0022C235.746 70.9885 241.452 65.3122 248.436 65.3122L248.466 65.2825Z" fill="black" stroke="black" stroke-width="2" stroke-linecap="round" stroke-linejoin="round"/>
<path d="M146.084 114.794L145.608 226.033H177.526V65.2825H157.109C120.704 65.2825 116.721 88.5228 109.945 141.72L70.0028 190.608L82.782 204.338L133.334 160.502L146.054 114.824L146.084 114.794Z" fill="#16FFDD" stroke="black" stroke-width="2" stroke-linecap="round" stroke-linejoin="round"/>
<path d="M138.148 52.8893L242.878 52.9785C246.474 49.7391 248.465 44.8652 247.841 39.7238C246.83 31.2836 239.163 25.2209 230.723 26.2611C230.009 26.3502 229.356 26.4988 228.672 26.6474C225.403 18.9502 217.795 13.5116 208.879 13.5116C206.323 13.5116 203.916 13.9574 201.657 14.7895C196.843 7.27057 188.432 2.24805 178.863 2.24805C165.727 2.24805 154.79 11.5798 152.294 23.9727C151.016 23.6458 149.679 23.4675 148.312 23.4675C139.218 23.4675 131.818 30.8378 131.818 39.9318C131.818 45.2218 134.314 49.8877 138.148 52.919V52.8893Z" fill="white" stroke="black" stroke-width="2" stroke-linecap="round" stroke-linejoin="round"/>
<path d="M173.187 33.1855L206.531 33.2153L208.582 36.1872" stroke="black" stroke-width="1.33736" stroke-miterlimit="10"/>
<path d="M173.187 38.5646C171.73 38.5646 170.393 38 169.382 36.9895C168.372 35.9791 167.807 34.6417 167.807 33.1855C167.807 30.2433 170.215 27.8361 173.157 27.8361C176.129 27.8361 178.536 30.2433 178.536 33.2152C178.536 36.1574 176.129 38.5646 173.187 38.5646Z" fill="black"/>
<path d="M173.187 28.1927C175.95 28.1927 178.179 30.4514 178.179 33.2153C178.179 35.9791 175.921 38.2081 173.187 38.2081C170.423 38.2081 168.194 35.9494 168.194 33.1856C168.194 30.4217 170.423 28.1927 173.187 28.1927ZM173.187 27.4795C170.036 27.4795 167.48 30.0353 167.48 33.1856C167.48 36.3358 170.036 38.9213 173.187 38.9213C176.337 38.9213 178.922 36.3655 178.922 33.2153C178.922 30.0651 176.366 27.5092 173.216 27.4795H173.187Z" fill="white"/>
<path d="M191.285 38.5943C188.343 38.5943 185.936 36.1871 185.936 33.2152C185.936 30.273 188.343 27.8657 191.315 27.8657C194.287 27.8657 196.664 30.273 196.664 33.2449C196.664 36.2168 194.257 38.5943 191.315 38.5943H191.285Z" fill="black"/>
<path d="M191.285 28.2224C194.049 28.2224 196.278 30.4513 196.278 33.2449C196.278 36.0385 194.019 38.2377 191.255 38.2377C188.491 38.2377 186.262 35.9791 186.233 33.2152C186.233 30.4513 188.462 28.2224 191.255 28.2224M191.285 27.5092C188.135 27.5092 185.579 30.065 185.549 33.2152C185.549 36.3654 188.135 38.951 191.255 38.951C194.405 38.951 196.961 36.3952 196.961 33.2449C196.961 30.0947 194.405 27.5092 191.255 27.5092H191.285Z" fill="white"/>
<path d="M204.987 65.2825H177.526V226.003H204.987V65.2825Z" fill="white" stroke="black" stroke-width="2" stroke-linecap="round" stroke-linejoin="round"/>
<path d="M266.446 131.615L236.697 92.5051L236.459 114.794L236.935 226.033H205.016V65.2825H224.75C244.513 65.2825 252.834 66.5307 263.325 82.2223L296.016 134.112C309.241 155.51 292.331 167.011 274.916 155.51L244.513 136.519L250.071 123.443L281.751 139.164" fill="#16FFDD"/>
<path d="M266.446 131.615L236.697 92.5051L236.459 114.794L236.935 226.033H205.016V65.2825H224.75C244.513 65.2825 252.834 66.5307 263.325 82.2223L296.016 134.112C309.241 155.51 292.331 167.011 274.916 155.51L244.513 136.519L250.071 123.443L281.751 139.164" stroke="black" stroke-width="2" stroke-linecap="round" stroke-linejoin="round"/>
<path d="M215.774 226.033V85.016" stroke="black" stroke-width="2" stroke-linecap="round" stroke-linejoin="round"/>
<path d="M166.768 226.033V85.0159" stroke="black" stroke-width="2" stroke-linecap="round" stroke-linejoin="round"/>
<path d="M226.682 73.2174C217.409 80.9444 205.016 95.8336 205.016 120.292" stroke="black" stroke-width="2" stroke-linecap="round" stroke-linejoin="round"/>
<path d="M145.875 66.53C145.875 66.53 177.555 81.1815 177.555 120.292" stroke="black" stroke-width="2" stroke-linecap="round" stroke-linejoin="round"/>
<path d="M173.187 335.875L161.3 398.196L177.615 402.327L192.534 340.571L173.187 335.875Z" fill="white" stroke="black" stroke-width="2" stroke-linecap="round" stroke-linejoin="round"/>
<path d="M225.849 353.706L257.144 389.013L270.309 378.522L241.779 342.562L225.849 353.706Z" fill="white" stroke="black" stroke-width="2" stroke-linecap="round" stroke-linejoin="round"/>
<path d="M191.613 251.829L167.303 340.986L196.784 349.129L235.746 234.74H145.43C147.718 254.593 158.476 275.337 180.32 292.128" fill="black"/>
<path d="M191.613 251.829L167.303 340.986L196.784 349.129L235.746 234.74H145.43C147.718 254.593 158.476 275.337 180.32 292.128" stroke="black" stroke-width="2" stroke-linecap="round" stroke-linejoin="round"/>
<path d="M164.236 340.948L162.213 349.264L196.953 357.714L198.975 349.397L164.236 340.948Z" fill="#16FFDD" stroke="black" stroke-width="2" stroke-linecap="round" stroke-linejoin="round"/>
<path d="M215.715 293.376L241.184 332.576L217.111 349.367L203.767 328.326" fill="black"/>
<path d="M215.715 293.376L241.184 332.576L217.111 349.367L203.767 328.326" stroke="black" stroke-width="2" stroke-linecap="round" stroke-linejoin="round"/>
<path d="M243.778 330.767L214.435 351.245L219.333 358.264L248.676 337.786L243.778 330.767Z" fill="#16FFDD" stroke="black" stroke-width="2" stroke-linecap="round" stroke-linejoin="round"/>
<path d="M257.025 389.161L284.634 419.118L295.63 410.886L270.101 378.046L257.025 389.161Z" fill="black"/>
<path d="M265.465 406.012C265.465 406.012 268.348 418.732 256.401 437.098C253.934 440.873 249.268 444.379 252.032 448.718C252.032 448.718 257.708 457.337 270.309 446.608C272.717 444.558 275.124 442.507 277.501 440.486C282.494 436.236 287.457 431.986 292.45 427.737C296.73 424.111 307.428 415.403 307.844 414.274C308.231 413.145 307.547 411.391 307.072 410.381C306.359 408.806 304.754 408.152 303.357 407.29C298.661 404.348 293.995 401.406 289.3 398.493C289.3 398.493 284.515 395.551 283.445 400.306C282.524 404.437 282.375 408.063 274.173 410.856C274.173 410.856 272.835 408.241 270.725 404.11C268.942 400.603 264.276 402.149 265.435 406.042L265.465 406.012Z" fill="#16FFDD" stroke="black" stroke-width="2" stroke-linecap="round" stroke-linejoin="round"/>
<path d="M254.499 450.888C257.263 452.463 262.434 453.325 270.309 446.608C272.716 444.558 275.124 442.507 277.501 440.486C282.494 436.236 287.457 431.986 292.45 427.737C296.729 424.111 307.428 415.403 307.844 414.274C308.231 413.145 307.547 411.391 307.072 410.381C306.358 408.806 306.477 409.162 305.081 408.3" fill="white"/>
<path d="M254.499 450.888C257.263 452.463 262.434 453.325 270.309 446.608C272.716 444.558 275.124 442.507 277.501 440.486C282.494 436.236 287.457 431.986 292.45 427.737C296.729 424.111 307.428 415.403 307.844 414.274C308.231 413.145 307.547 411.391 307.072 410.381C306.358 408.806 306.477 409.162 305.081 408.3" stroke="black" stroke-width="2" stroke-linecap="round" stroke-linejoin="round"/>
<path d="M305.11 408.3C305.11 408.3 290.548 421.555 255.361 451.304" stroke="black" stroke-width="2" stroke-linecap="round" stroke-linejoin="round"/>
<path d="M297.978 404.14L290.043 411.599L294.114 417.662" stroke="black" stroke-width="2" stroke-linecap="round" stroke-linejoin="round"/>
<path d="M264.811 417.989L271.498 419.95" stroke="black" stroke-width="2" stroke-linecap="round" stroke-linejoin="round"/>
<path d="M263.474 423.962L269.239 425.746" stroke="black" stroke-width="2" stroke-linecap="round" stroke-linejoin="round"/>
<path d="M260.711 429.49L267.16 431.332" stroke="black" stroke-width="2" stroke-linecap="round" stroke-linejoin="round"/>
<path d="M161.538 396.799L154.137 436.831L167.333 440.664L178.269 400.573L161.538 396.799Z" fill="black"/>
<path d="M153.127 413.62C153.127 413.62 144.657 423.576 122.814 425.003C118.326 425.3 112.709 423.665 110.896 428.48C110.896 428.48 107.389 438.198 123.557 441.853C126.618 442.537 129.708 443.25 132.769 443.934C139.159 445.39 145.549 446.816 151.938 448.273C157.407 449.521 170.78 452.879 171.939 452.522C173.069 452.166 174.049 450.561 174.614 449.55C175.446 448.035 175 446.341 174.881 444.736C174.406 439.238 173.96 433.71 173.485 428.212C173.485 428.212 172.95 422.625 168.522 424.616C164.658 426.37 161.686 428.42 154.524 423.517C154.524 423.517 155.802 420.872 157.852 416.711C159.606 413.174 155.564 410.381 153.157 413.62H153.127Z" fill="#16FFDD" stroke="black" stroke-width="2" stroke-linecap="round" stroke-linejoin="round"/>
<path d="M110.629 431.778C111.015 434.958 113.452 439.595 123.557 441.883C126.618 442.566 129.708 443.28 132.769 443.963C139.159 445.42 145.549 446.846 151.938 448.302C157.407 449.55 170.78 452.909 171.939 452.552C173.069 452.195 174.049 450.591 174.614 449.58C175.446 448.065 175.208 448.362 175.089 446.757" fill="white"/>
<path d="M110.629 431.778C111.015 434.958 113.452 439.595 123.557 441.883C126.618 442.566 129.708 443.28 132.769 443.963C139.159 445.42 145.549 446.846 151.938 448.302C157.407 449.55 170.78 452.909 171.939 452.552C173.069 452.195 174.049 450.591 174.614 449.58C175.446 448.065 175.208 448.362 175.089 446.757" stroke="black" stroke-width="2" stroke-linecap="round" stroke-linejoin="round"/>
<path d="M175.06 446.727C175.06 446.727 155.742 443.012 110.807 432.729" stroke="black" stroke-width="2" stroke-linecap="round" stroke-linejoin="round"/>
<path d="M174.109 438.525L163.38 436.652L160.973 443.547" stroke="black" stroke-width="2" stroke-linecap="round" stroke-linejoin="round"/>
<path d="M143.141 420.307L145.578 426.815" stroke="black" stroke-width="2" stroke-linecap="round" stroke-linejoin="round"/>
<path d="M137.583 422.803L139.604 428.479" stroke="black" stroke-width="2" stroke-linecap="round" stroke-linejoin="round"/>
<path d="M131.492 423.903L133.869 430.174" stroke="black" stroke-width="2" stroke-linecap="round" stroke-linejoin="round"/>
<path d="M82.9305 204.249L57.491 223.447C57.491 223.447 52.0821 227.073 48.6644 223.328C44.9496 219.227 49.2291 214.413 49.3183 214.353L70.1513 190.578L82.9305 204.308V204.249Z" fill="white" stroke="black" stroke-width="2" stroke-linecap="round" stroke-linejoin="round"/>
<path d="M74.9658 226.033H67.2686V359.323H74.9658V226.033Z" fill="#020202"/>
<path d="M40.2837 226.033H32.5864V359.323H40.2837V226.033Z" fill="#020202"/>
<path d="M64.6831 442.774C64.6831 448.45 69.3193 453.057 74.9659 453.057C80.6125 453.057 85.2487 448.45 85.2487 442.774C85.2487 437.098 80.672 432.491 74.9659 432.491C69.2598 432.491 64.6831 437.098 64.6831 442.774Z" fill="#020202"/>
<path d="M42.8395 442.774C42.8395 448.45 38.2331 453.057 32.5567 453.057C26.8804 453.057 22.2739 448.45 22.2739 442.774C22.2739 437.098 26.8804 432.491 32.5567 432.491C38.2331 432.491 42.8395 437.098 42.8395 442.774Z" fill="#020202"/>
<path d="M11.2482 428.598C11.2482 436.414 17.5783 442.744 25.3944 442.744H82.1579C90.0037 442.744 96.3339 436.414 96.3339 428.598V306.304C96.3339 298.488 90.0037 292.158 82.1579 292.158H25.3944C17.5783 292.158 11.2482 298.488 11.2482 306.304V428.598Z" fill="white" stroke="#1F191A" stroke-width="2" stroke-linecap="round" stroke-linejoin="round"/>
<path d="M74.9655 220.743H32.5861C31.8967 220.743 31.3379 221.302 31.3379 221.991V230.075C31.3379 230.764 31.8967 231.323 32.5861 231.323H74.9655C75.6548 231.323 76.2137 230.764 76.2137 230.075V221.991C76.2137 221.302 75.6548 220.743 74.9655 220.743Z" fill="white"/>
<path d="M74.9654 221.961V230.075H32.5861V221.961H74.9952M74.9654 219.495H32.5861C31.219 219.495 30.1194 220.594 30.1194 221.961V230.075C30.1194 231.442 31.219 232.541 32.5861 232.541H74.9952C76.3622 232.541 77.4619 231.442 77.4619 230.075V221.961C77.4619 220.594 76.3622 219.495 74.9952 219.495H74.9654Z" fill="#1F191A"/>
<path d="M48.8725 418.642C48.8725 421.347 51.0717 423.546 53.7761 423.546C56.4806 423.546 58.6798 421.347 58.6798 418.642V316.29C58.6798 313.585 56.4806 311.356 53.7761 311.356C51.0717 311.356 48.8725 313.556 48.8725 316.29V418.642Z" fill="white" stroke="#1F191A" stroke-width="2" stroke-linecap="round" stroke-linejoin="round"/>
<path d="M70.0623 418.642C70.0623 421.347 72.2615 423.546 74.9659 423.546C77.6703 423.546 79.8696 421.347 79.8696 418.642V316.29C79.8696 313.585 77.7001 311.356 74.9659 311.356C72.2615 311.356 70.0623 313.556 70.0623 316.29V418.642Z" fill="white" stroke="#1F191A" stroke-width="2" stroke-linecap="round" stroke-linejoin="round"/>
<path d="M37.4892 418.642C37.4892 421.346 35.29 423.546 32.5856 423.546C29.8812 423.546 27.6819 421.346 27.6819 418.642V316.289C27.6819 313.585 29.8812 311.356 32.5856 311.356C35.29 311.356 37.4892 313.555 37.4892 316.289V418.642Z" fill="white" stroke="#1F191A" stroke-width="2" stroke-linecap="round" stroke-linejoin="round"/>
<path d="M236.697 220.327C236.697 220.327 215.775 207.964 215.775 172.895V65.2825H227.9L228.465 168.943C228.465 176.878 230.605 191.975 236.756 196.344L236.697 220.327Z" fill="black" stroke="black" stroke-width="2" stroke-linecap="round" stroke-linejoin="round"/>
<path d="M250.041 123.443L235.27 115.478C235.27 115.478 227.93 111.406 225.077 116.161C221.956 121.719 227.603 125.226 227.722 125.285L244.513 136.549L250.071 123.472L250.041 123.443Z" fill="white" stroke="black" stroke-width="2" stroke-linecap="round" stroke-linejoin="round"/>
<path d="M280.354 168.913H288.943C295.957 168.913 301.633 174.589 301.633 181.603V213.313C301.633 220.327 295.957 226.003 288.943 226.003H280.354C273.341 226.003 267.664 220.297 267.664 213.313V181.603C267.664 174.589 273.37 168.913 280.354 168.913Z" fill="black" stroke="white" stroke-width="2" stroke-linecap="round" stroke-linejoin="round"/>
<path d="M301.633 193.312H267.635" stroke="white" stroke-width="2" stroke-linecap="round" stroke-linejoin="round"/>
<path d="M287.576 186.952H281.721" stroke="white" stroke-width="2" stroke-linecap="round" stroke-linejoin="round"/>
<path d="M292.331 125.196V78.0022C292.331 70.9885 286.655 65.3121 279.641 65.3121H252.894" fill="black"/>
<path d="M292.331 125.196V78.0022C292.331 70.9885 286.655 65.3121 279.641 65.3121H252.894" stroke="white" stroke-width="2" stroke-linecap="round" stroke-linejoin="round"/>
</svg>
