<svg width="118" height="70" viewBox="0 0 118 70" fill="none" xmlns="http://www.w3.org/2000/svg">
<g clip-path="url(#clip0_1038_20656)">
<path d="M64.2339 61.3859L13.7302 68.4838L8.64769 64.6538L1.54986 14.1502L5.37979 9.06769L55.8835 1.96986C57.8656 3.46353 58.9838 4.30612 60.9659 5.79979L68.0638 56.3035L64.2339 61.3859Z" fill="#16FFDD" stroke="#1A1A1A" stroke-miterlimit="10"/>
<path d="M55.852 54.9902C59.9538 54.4137 62.8117 50.6212 62.2352 46.5193C61.6588 42.4175 57.8662 39.5597 53.7644 40.1361C49.6626 40.7126 46.8047 44.5051 47.3812 48.6069C47.9577 52.7088 51.7502 55.5666 55.852 54.9902Z" stroke="#1A1A1A" stroke-miterlimit="10"/>
<path d="M5.09863 39.402L64.5147 31.0516" stroke="#1A1A1A" stroke-miterlimit="10"/>
<path d="M26.4993 19.4973L24.457 18.7619L21.7073 26.4645L23.283 28.5152L26.4993 19.4973Z" fill="#1A1A1A"/>
<path d="M22.1991 23.3887L21.2771 25.8283L17.6241 20.7447L19.3919 19.4738L22.1991 23.3887Z" fill="#1A1A1A"/>
<path d="M47.9036 23.3283L47.2752 18.8573C47.1478 17.9512 47.0213 17.1586 45.9405 16.6894C45.1362 16.3556 44.1412 16.3894 43.3317 16.5032C42.7969 16.5783 40.7842 16.8612 40.1813 18.4455C39.9829 18.9733 39.9958 19.335 40.0246 19.7551L42.1134 19.5827C42.08 19.345 42.0328 19.1169 42.2096 18.8118C42.3725 18.5163 42.7944 18.1767 43.6336 18.0588C45.0299 17.8626 45.1881 18.7189 45.2466 19.1348L45.6067 21.6971C45.6422 21.9496 45.6777 22.2021 45.5943 22.4714C45.4425 23.0077 44.7889 23.5843 43.7565 23.7294C42.947 23.8432 42.3419 23.5798 42.2501 22.9262C42.1248 22.035 43.0589 21.7295 43.7721 21.5232C44.3453 21.3442 44.7254 21.1924 45.0216 21.0371L44.7836 19.3438C44.3706 19.5306 43.981 19.6686 42.7115 20.1197C41.9228 20.382 40.6617 20.8395 40.2302 22.1346C40.1074 22.5003 40.0652 22.9 40.1247 23.3234C40.3282 24.7717 41.6379 25.7918 43.5467 25.5235C44.7127 25.3597 45.5351 24.7442 45.9211 24.3113C45.9378 24.4301 46.0144 24.7602 46.0659 24.965L48.4574 24.6289C48.0151 24.176 47.9838 23.9532 47.894 23.3145" fill="#1A1A1A"/>
<path d="M32.86 24.3368C33.4612 24.8961 34.2909 25.249 35.4718 25.0831C36.6526 24.9171 37.0763 24.2668 37.0168 23.8435C36.9395 23.2939 36.3043 23.2468 36.0296 23.2324C35.7306 23.2063 34.2903 23.1436 33.9744 23.1047C31.88 22.9143 31.3352 21.7867 31.2277 21.0217C31.0242 19.5734 32.1509 18.0518 34.4904 17.723C35.7901 17.5403 36.7833 17.8173 37.42 18.1444C37.882 18.3597 38.1975 18.6107 38.3976 18.7947L37.1393 20.3499C36.8369 19.9229 36.1396 19.165 34.6319 19.3769C33.659 19.5136 33.2739 20.007 33.3355 20.4452C33.4221 21.0617 34.0774 21.1438 35.1953 21.176C37.0163 21.2533 37.5254 21.2651 38.1281 21.6197C38.7128 21.954 39.1505 22.5893 39.2517 23.3097C39.4386 24.6392 38.4662 26.3966 35.8222 26.7682C34.3071 26.9811 32.74 26.7166 31.5159 25.8208L32.861 24.3442L32.86 24.3368Z" fill="#1A1A1A"/>
<path d="M29.1774 17.3715L27.1498 17.6565L26.8596 15.5918L28.8872 15.3068L29.1774 17.3715ZM30.5635 27.2346L28.536 27.5196L27.3366 18.9859L29.3642 18.701L30.5635 27.2346Z" fill="#1A1A1A"/>
<path d="M46.0315 7.80017L53.5253 6.74698L57.0153 9.37686L58.0602 16.8113" stroke="#1A1A1A" stroke-miterlimit="10"/>
<path d="M16.3902 11.966L8.89635 13.0192L6.26647 16.5091L7.31131 23.9436" stroke="#1A1A1A" stroke-miterlimit="10"/>
<path d="M15.9411 44.8764L13.4844 46.797L13.9187 49.8867L16.8095 51.0557L19.2661 49.1351L18.8319 46.0455L15.9411 44.8764Z" stroke="#1A1A1A" stroke-miterlimit="10"/>
<path d="M18.9704 51.7744L22.9173 54.0447L23.6855 59.5109L12.5301 61.0787L11.7619 55.6124L14.9375 52.3411" stroke="#1A1A1A" stroke-miterlimit="10"/>
<path d="M26.9382 43.9064L41.7923 41.8188" stroke="#1A1A1A" stroke-miterlimit="10"/>
<path d="M27.6343 48.8601L42.4883 46.7725" stroke="#1A1A1A" stroke-miterlimit="10"/>
<path d="M28.3296 53.8065L43.1836 51.7189" stroke="#1A1A1A" stroke-miterlimit="10"/>
<path d="M29.0259 58.7604L43.8799 56.6728" stroke="#1A1A1A" stroke-miterlimit="10"/>
<path d="M51.1991 48.8278L53.7478 50.7417L58.1043 44.0705" stroke="#1A1A1A" stroke-miterlimit="10"/>
</g>
<g clip-path="url(#clip1_1038_20656)">
<path d="M114.359 49.6818L109.229 36.0618V19.1793H110.737L115.102 30.9243L117.547 37.6743" stroke="#1A1A1A" stroke-miterlimit="10"/>
<path d="M105.232 6.32434L101.107 8.71684V13.5018L105.232 15.8943L109.365 13.5018V8.71684L105.232 6.32434Z" stroke="#1A1A1A" stroke-miterlimit="10"/>
<path d="M114.36 49.6819V66.9694" stroke="#1A1A1A" stroke-miterlimit="10"/>
<path d="M87.8093 60.3019L96.4193 49.6969V41.2069V24.7144" stroke="#1A1A1A" stroke-miterlimit="10"/>
<path d="M101.542 41.2068V51.3768L90.0593 65.8668" stroke="#1A1A1A" stroke-miterlimit="10"/>
<path d="M109.605 66.9694V52.2619L106.672 41.5969" stroke="#1A1A1A" stroke-miterlimit="10"/>
<path d="M82.426 40.6682L87.3422 45.5844C88.5142 46.7564 88.5142 48.655 87.3422 49.827L75.1552 62.014C73.9832 63.186 72.0846 63.186 70.9126 62.014L65.9964 57.0978L82.426 40.6682Z" fill="#16FFDD" stroke="#1A1A1A" stroke-miterlimit="10"/>
<path d="M65.9875 57.0928L65.2716 56.3768C64.6988 55.8041 64.6988 54.8707 65.2716 54.2979L79.6223 39.9472C80.1951 39.3744 81.1285 39.3744 81.7012 39.9472L82.4172 40.6631L65.9875 57.0928Z" fill="#16FFDD" stroke="#1A1A1A" stroke-miterlimit="10"/>
<path d="M85.1917 43.4419L90.8091 37.9744V23.2144L98.5867 16.6969" stroke="#1A1A1A" stroke-miterlimit="10"/>
<path d="M75.1569 65.9118C76.006 65.9118 76.6944 65.2234 76.6944 64.3743C76.6944 63.5252 76.006 62.8368 75.1569 62.8368C74.3077 62.8368 73.6194 63.5252 73.6194 64.3743C73.6194 65.2234 74.3077 65.9118 75.1569 65.9118Z" fill="#16FFDD" stroke="#1A1A1A" stroke-miterlimit="10"/>
</g>
<defs>
<clipPath id="clip0_1038_20656">
<rect width="60.75" height="60.75" fill="white" transform="translate(0.5 9.37476) rotate(-8)"/>
</clipPath>
<clipPath id="clip1_1038_20656">
<rect width="53.4975" height="61.1175" fill="white" transform="translate(64.4316 5.85181)"/>
</clipPath>
</defs>
</svg>
