<svg width="117" height="70" viewBox="0 0 117 70" fill="none" xmlns="http://www.w3.org/2000/svg">
<g clip-path="url(#clip0_907_12487)">
<path d="M40.8628 61.7648L4.88473 60.5084L0.544523 55.8541L2.3244 4.8852L6.9787 0.544987L42.9568 1.80137C44.6495 3.61655 45.6043 4.6405 47.297 6.45568L45.5171 57.4246L40.8628 61.7648Z" fill="white" stroke="#1A1A1A" stroke-miterlimit="10"/>
<path d="M23.6592 38.6501C31.9384 38.9392 38.8844 32.4619 39.1736 24.1827C39.4627 15.9035 32.9854 8.95745 24.7062 8.66833C16.427 8.37921 9.48096 14.8565 9.19184 23.1357C8.90272 31.4149 15.38 38.3609 23.6592 38.6501Z" stroke="#1A1A1A" stroke-miterlimit="10"/>
<path d="M24.7061 8.66833L23.6591 38.6501" stroke="#1A1A1A" stroke-miterlimit="10"/>
<path d="M23.6594 38.6501C27.799 38.7946 31.3892 32.2002 31.6783 23.921C31.9674 15.6417 28.846 8.81292 24.7064 8.66836C20.5668 8.5238 16.9766 15.1183 16.6874 23.3975C16.3983 31.6767 19.5198 38.5055 23.6594 38.6501Z" stroke="#1A1A1A" stroke-miterlimit="10"/>
<path d="M39.1736 24.1827L9.19189 23.1357" stroke="#1A1A1A" stroke-miterlimit="10"/>
<path d="M23.921 31.1546C32.2002 31.4437 39.029 28.3223 39.1736 24.1827C39.3181 20.0431 32.7237 16.4529 24.4445 16.1638C16.1653 15.8746 9.33643 18.9961 9.19187 23.1357C9.04731 27.2753 15.6418 30.8655 23.921 31.1546Z" stroke="#1A1A1A" stroke-miterlimit="10"/>
<path d="M25.1728 50.7555C25.6032 51.3259 26.2636 51.7542 27.298 51.7903C28.3324 51.8264 28.7999 51.3324 28.813 50.9577C28.8297 50.478 28.2943 50.3392 28.056 50.2858C27.8032 50.217 26.5818 49.9492 26.3146 49.8648C24.5454 49.3828 24.2517 48.3369 24.2752 47.6623C24.3197 46.3881 25.5149 45.2591 27.5686 45.3308C28.7079 45.3706 29.5198 45.7592 30.017 46.1368C30.3834 46.3897 30.6143 46.6529 30.7579 46.838L29.4424 47.9778C29.2466 47.5657 28.7626 46.8134 27.4434 46.7673C26.5889 46.7375 26.1861 47.0986 26.1725 47.4884C26.1536 48.0281 26.703 48.1974 27.6567 48.3958C29.2058 48.735 29.6379 48.8252 30.1045 49.2167C30.5567 49.5927 30.8356 50.2028 30.8136 50.8324C30.7727 52.0017 29.6747 53.3592 27.3511 53.2781C26.0169 53.2315 24.7124 52.7657 23.7999 51.8182L25.1728 50.7555Z" fill="#1A1A1A"/>
<path d="M32.518 51.0119C32.9484 51.5822 33.6089 52.0105 34.6432 52.0467C35.6776 52.0828 36.1451 51.5888 36.1582 51.214C36.175 50.7343 35.6395 50.5955 35.4012 50.5422C35.1484 50.4733 33.927 50.2055 33.6598 50.1212C31.8906 49.6391 31.5969 48.5932 31.6204 47.9186C31.6649 46.6444 32.8601 45.5154 34.9138 45.5872C36.0531 45.627 36.8651 46.0155 37.3622 46.3931C37.7286 46.646 37.9595 46.9093 38.1032 47.0944L36.7876 48.2342C36.5918 47.8221 36.1078 47.0697 34.7886 47.0237C33.9341 46.9938 33.5313 47.355 33.5177 47.7448C33.4988 48.2844 34.0483 48.4537 35.0019 48.6521C36.551 48.9914 36.9831 49.0815 37.4498 49.473C37.9019 49.849 38.1808 50.4592 38.1588 51.0888C38.118 52.2581 37.0199 53.6156 34.6963 53.5344C33.3621 53.4878 32.0576 53.022 31.1451 52.0746L32.518 51.0119Z" fill="#1A1A1A"/>
<path d="M22.911 51.6896L23.0497 47.717C23.078 46.9075 23.0876 46.2024 22.222 45.6318C21.576 45.2191 20.7097 45.0987 19.9901 45.0736C19.5104 45.0569 17.7265 44.9946 16.9614 46.2736C16.7063 46.7 16.6654 47.0138 16.6223 47.3875L18.4625 47.5568C18.4698 47.3469 18.4622 47.1365 18.6654 46.9035C18.8537 46.6699 19.2668 46.4442 20.0164 46.4704C21.2606 46.5138 21.2639 47.2794 21.2508 47.6542L21.1712 49.9328C21.1634 50.1577 21.1555 50.3825 21.0427 50.6037C20.8322 51.0466 20.1729 51.4439 19.2584 51.4119C18.5389 51.3868 18.0547 51.0697 18.0751 50.4851C18.1028 49.6906 18.9625 49.5705 19.6103 49.5031C20.1303 49.4387 20.4858 49.361 20.7665 49.2733L20.8188 47.7742C20.4327 47.8733 20.0703 47.9357 18.9076 48.1352C18.1833 48.245 17.0206 48.4445 16.4433 49.505C16.2829 49.7996 16.1809 50.1413 16.1678 50.516C16.1228 51.8053 17.1055 52.8902 18.7995 52.9494C19.8339 52.9855 20.6436 52.5785 21.0449 52.2623C21.0412 52.3672 21.0607 52.6681 21.0694 52.8485L23.1981 52.9229C22.884 52.4616 22.8908 52.2667 22.9107 51.6971" fill="#1A1A1A"/>
<path d="M10.1455 49.1048C10.1355 48.9619 10.1332 48.8117 10.1387 48.6543C10.1426 48.5419 10.1538 48.4372 10.1724 48.3328L10.2667 45.6344L10.2907 44.9448L8.50684 44.8825L8.15976 54.8215L9.94367 54.8838L10.0505 51.8256L10.146 49.0898L10.1455 49.1048Z" fill="#1A1A1A"/>
<path d="M12.3523 44.7991C11.6403 44.7742 11.1377 44.9818 10.7843 45.2171L10.7196 47.0685C11.0866 46.6611 11.5726 46.4979 12.0223 46.5136C12.562 46.5325 13.8536 46.9378 13.7882 48.8117C13.729 50.5056 12.7637 51.0723 11.8942 51.0419C11.392 51.0244 10.9268 50.8055 10.6032 50.404L10.539 52.2404C10.9054 52.4933 11.4003 52.7207 12.0749 52.7443C14.0837 52.8144 15.5359 51.1991 15.6139 48.9655C15.6862 46.8967 14.556 44.8761 12.3523 44.7991Z" fill="#1A1A1A"/>
</g>
<g clip-path="url(#clip1_907_12487)">
<path d="M102.882 28.1439L92.7863 7.43718L86.7689 5.36293L43.0324 26.7051L40.9581 32.7225L51.0543 53.4292L57.0716 55.5035L100.81 34.1685L102.885 28.1512L102.882 28.1439Z" fill="white" stroke="#1A1A1A" stroke-miterlimit="10"/>
<path d="M52.4663 27.0896L62.578 47.8232" stroke="#1A1A1A" stroke-miterlimit="10"/>
<path d="M59.0686 26.008L87.8649 11.9616" stroke="#1A1A1A" stroke-miterlimit="10"/>
<path d="M63.0994 34.2694L91.8884 20.225" stroke="#1A1A1A" stroke-miterlimit="10"/>
<path d="M61.0818 30.1432L89.8781 16.0968" stroke="#1A1A1A" stroke-miterlimit="10"/>
<path d="M59.511 61.5374L53.1603 39.39L56.2456 33.8239L103.028 20.4094L108.594 23.4947L114.945 45.6421L111.859 51.2082L65.077 64.6228L59.511 61.5374Z" fill="white" stroke="#1A1A1A" stroke-miterlimit="10"/>
<mask id="mask0_907_12487" style="mask-type:luminance" maskUnits="userSpaceOnUse" x="58" y="30" width="40" height="28">
<path d="M92.3983 30.9554L58.521 40.6695L63.377 57.6046L97.2543 47.8904L92.3983 30.9554Z" fill="white"/>
</mask>
<g mask="url(#mask0_907_12487)">
<path fill-rule="evenodd" clip-rule="evenodd" d="M92.8675 34.9329C92.3239 34.1525 90.9107 34.4485 89.4528 35.2957C86.3258 37.0974 81.3083 41.0407 81.3083 41.0407L69.0595 40.3631L67.6678 41.5502L75.1703 45.3754L68.9347 49.9411L63.7357 49.2785L61.9184 50.3145L65.5263 52.6661L70.8011 52.7765L91.319 38.0219C92.6253 36.9451 93.3989 35.7246 92.8696 34.9401L92.8675 34.9329Z" stroke="#1A1A1A" stroke-miterlimit="10"/>
</g>
<path d="M96.2686 27.0132L102.628 49.1895" stroke="#1A1A1A" stroke-miterlimit="10"/>
<path d="M110.948 44.3304L110.054 44.5868L109.655 43.1953L106.195 44.1876L106.213 44.2525L107.892 44.9102L107.539 45.776L105.564 45.0083L105.076 43.3068L109.337 42.0851L109.023 40.9892L109.916 40.7329L110.946 44.3232L110.948 44.3304Z" fill="#1A1A1A"/>
<path d="M107.32 41.3916C105.633 41.8754 104.47 41.5221 104.082 40.1667C103.693 38.8113 104.492 37.8957 106.179 37.412C107.866 36.9282 109.028 37.2815 109.417 38.6369C109.805 39.9923 109.007 40.9079 107.32 41.3916ZM107.009 38.4847L106.036 38.7638C105.25 38.9891 104.852 39.314 105.021 39.9052C105.191 40.4963 105.701 40.5607 106.486 40.3354L107.46 40.0563C108.246 39.831 108.644 39.5061 108.474 38.9149C108.305 38.3238 107.795 38.2593 107.009 38.4847Z" fill="#1A1A1A"/>
<path d="M105.387 37.1005L105.243 37.1419C104.904 37.239 104.592 37.1023 104.466 36.6625C104.34 36.2227 104.532 35.9413 104.871 35.8442L105.015 35.8028C105.354 35.7056 105.666 35.8424 105.792 36.2821C105.918 36.7219 105.726 37.0034 105.387 37.1005ZM108.098 36.3232L107.954 36.3646C107.615 36.4617 107.303 36.325 107.177 35.8852C107.05 35.4454 107.243 35.164 107.582 35.0669L107.726 35.0255C108.065 34.9284 108.377 35.0651 108.503 35.5048C108.629 35.9446 108.437 36.2261 108.098 36.3232Z" fill="#1A1A1A"/>
<path d="M104.488 33.5586C104.331 33.0107 104.023 32.8338 103.706 32.9247L103.655 32.9392C103.288 33.0446 103.11 33.3765 103.234 33.8091C103.352 34.22 103.685 34.538 104.149 34.686L103.698 35.5641C103.075 35.3216 102.577 34.9182 102.322 34.0315C102.004 32.9212 102.34 32.0524 103.169 31.8147C103.825 31.6266 104.364 31.9557 104.611 32.4623L104.654 32.4499C104.587 31.8061 104.88 31.2227 105.586 31.0201C106.509 30.7555 107.335 31.377 107.67 32.5449C107.972 33.5975 107.652 34.251 107.228 34.7314L106.358 34.0915C106.712 33.7481 106.926 33.3513 106.767 32.7961C106.622 32.2915 106.263 32.0744 105.838 32.1964L105.794 32.2088C105.376 32.3287 105.257 32.7296 105.418 33.2919L105.553 33.7605L104.63 34.0251L104.492 33.5421L104.488 33.5586Z" fill="#1A1A1A"/>
<path d="M104.333 30.9739C102.646 31.4577 101.483 31.1044 101.094 29.749C100.706 28.3937 101.504 27.4781 103.191 26.9943C104.878 26.5106 106.041 26.8639 106.429 28.2192C106.818 29.5746 106.02 30.4902 104.333 30.9739ZM104.022 28.067L103.048 28.3461C102.263 28.5714 101.864 28.8963 102.034 29.4875C102.203 30.0787 102.713 30.1431 103.499 29.9177L104.472 29.6387C105.258 29.4133 105.657 29.0884 105.487 28.4973C105.318 27.9061 104.808 27.8417 104.022 28.067Z" fill="#1A1A1A"/>
</g>
<defs>
<clipPath id="clip0_907_12487">
<rect width="45.75" height="60.75" fill="white" transform="translate(2.12012) rotate(2)"/>
</clipPath>
<clipPath id="clip1_907_12487">
<rect width="68.3325" height="51.75" fill="white" transform="translate(36.6997 19.3143) rotate(-16)"/>
</clipPath>
</defs>
</svg>
