<svg width="118" height="70" viewBox="0 0 118 70" fill="none" xmlns="http://www.w3.org/2000/svg">
<g clip-path="url(#clip0_1038_20509)">
<path d="M41.3628 62.6849L5.38473 61.4285L1.04452 56.7742L2.8244 5.80524L7.4787 1.46503L43.4568 2.72141C45.1495 4.53659 46.1043 5.56054 47.797 7.37572L46.0171 58.3446L41.3628 62.6849Z" fill="#16FFDD" stroke="#1A1A1A" stroke-miterlimit="10"/>
<path d="M24.1592 39.5702C32.4384 39.8593 39.3844 33.382 39.6736 25.1028C39.9627 16.8236 33.4854 9.87755 25.2062 9.58843C16.927 9.29932 9.98096 15.7766 9.69184 24.0558C9.40272 32.335 15.88 39.281 24.1592 39.5702Z" stroke="#1A1A1A" stroke-miterlimit="10"/>
<path d="M25.2063 9.58838L24.1593 39.5701" stroke="#1A1A1A" stroke-miterlimit="10"/>
<path d="M24.1596 39.5701C28.2992 39.7147 31.8894 33.1202 32.1786 24.841C32.4677 16.5618 29.3462 9.73296 25.2066 9.58841C21.067 9.44385 17.4768 16.0383 17.1877 24.3175C16.8986 32.5967 20.02 39.4256 24.1596 39.5701Z" stroke="#1A1A1A" stroke-miterlimit="10"/>
<path d="M39.6739 25.1028L9.69214 24.0558" stroke="#1A1A1A" stroke-miterlimit="10"/>
<path d="M24.421 32.0748C32.7002 32.3639 39.529 29.2425 39.6736 25.1028C39.8181 20.9632 33.2237 17.373 24.9445 17.0839C16.6653 16.7948 9.83643 19.9162 9.69187 24.0559C9.54731 28.1955 16.1418 31.7857 24.421 32.0748Z" stroke="#1A1A1A" stroke-miterlimit="10"/>
<path d="M25.6728 51.6757C26.1032 52.246 26.7636 52.6744 27.798 52.7105C28.8324 52.7466 29.2999 52.2526 29.313 51.8778C29.3297 51.3981 28.7943 51.2594 28.556 51.206C28.3032 51.1372 27.0818 50.8694 26.8146 50.785C25.0454 50.3029 24.7517 49.2571 24.7752 48.5825C24.8197 47.3082 26.0149 46.1793 28.0686 46.251C29.2079 46.2908 30.0198 46.6793 30.517 47.0569C30.8834 47.3099 31.1143 47.5731 31.2579 47.7582L29.9424 48.898C29.7466 48.4859 29.2626 47.7336 27.9434 47.6875C27.0889 47.6577 26.6861 48.0188 26.6725 48.4086C26.6536 48.9482 27.203 49.1175 28.1567 49.3159C29.7058 49.6552 30.1379 49.7453 30.6045 50.1369C31.0567 50.5129 31.3356 51.123 31.3136 51.7526C31.2727 52.9219 30.1747 54.2794 27.8511 54.1982C26.5169 54.1516 25.2124 53.6858 24.2999 52.7384L25.6728 51.6757Z" fill="#1A1A1A"/>
<path d="M33.0178 51.932C33.4482 52.5024 34.1086 52.9307 35.143 52.9668C36.1773 53.0029 36.6449 52.509 36.658 52.1342C36.6747 51.6545 36.1392 51.5157 35.9009 51.4624C35.6482 51.3935 34.4268 51.1257 34.1596 51.0413C32.3903 50.5593 32.0966 49.5134 32.1202 48.8388C32.1647 47.5646 33.3598 46.4356 35.4136 46.5073C36.5529 46.5471 37.3648 46.9357 37.8619 47.3133C38.2283 47.5662 38.4593 47.8294 38.6029 48.0146L37.2873 49.1543C37.0916 48.7423 36.6076 47.9899 35.2884 47.9438C34.4339 47.914 34.031 48.2752 34.0174 48.6649C33.9986 49.2046 34.548 49.3739 35.5017 49.5723C37.0508 49.9115 37.4829 50.0017 37.9495 50.3932C38.4017 50.7692 38.6805 51.3793 38.6586 52.0089C38.6177 53.1782 37.5197 54.5357 35.1961 54.4546C33.8619 54.408 32.5574 53.9422 31.6449 52.9948L33.0178 51.932Z" fill="#1A1A1A"/>
<path d="M23.4112 52.6097L23.5499 48.6371C23.5782 47.8276 23.5878 47.1225 22.7222 46.552C22.0762 46.1392 21.2099 46.0189 20.4903 45.9938C20.0106 45.977 18.2267 45.9147 17.4616 47.1938C17.2066 47.6201 17.1656 47.9339 17.1225 48.3076L18.9627 48.477C18.9701 48.2671 18.9624 48.0567 19.1657 47.8236C19.3539 47.5901 19.7671 47.3643 20.5166 47.3905C21.7608 47.434 21.7641 48.1995 21.751 48.5743L21.6715 50.8529C21.6636 51.0778 21.6558 51.3027 21.543 51.5239C21.3324 51.9668 20.6731 52.364 19.7587 52.3321C19.0391 52.3069 18.5549 51.9899 18.5753 51.4052C18.6031 50.6107 19.4628 50.4906 20.1105 50.4232C20.6306 50.3588 20.986 50.2812 21.2667 50.1934L21.3191 48.6943C20.9329 48.7934 20.5705 48.8558 19.4078 49.0553C18.6836 49.1651 17.5209 49.3647 16.9435 50.4252C16.7831 50.7198 16.6812 51.0614 16.6681 51.4362C16.6231 52.7254 17.6058 53.8103 19.2998 53.8695C20.3341 53.9056 21.1438 53.4986 21.5451 53.1824C21.5414 53.2874 21.5609 53.5882 21.5697 53.7687L23.6984 53.843C23.3843 53.3817 23.3911 53.1869 23.411 52.6172" fill="#1A1A1A"/>
<path d="M10.6457 50.0249C10.6357 49.8819 10.6334 49.7318 10.6389 49.5744C10.6429 49.4619 10.654 49.3573 10.6727 49.2528L10.7669 46.5545L10.791 45.8649L9.00708 45.8026L8.66 55.7416L10.4439 55.8038L10.5507 52.7457L10.6462 50.0099L10.6457 50.0249Z" fill="#1A1A1A"/>
<path d="M12.8523 45.7192C12.1403 45.6944 11.6377 45.9019 11.2843 46.1372L11.2196 47.9886C11.5866 47.5812 12.0726 47.418 12.5223 47.4337C13.062 47.4526 14.3536 47.8579 14.2882 49.7318C14.229 51.4257 13.2637 51.9924 12.3942 51.962C11.892 51.9445 11.4268 51.7256 11.1032 51.3241L11.039 53.1605C11.4054 53.4134 11.9003 53.6408 12.5749 53.6644C14.5837 53.7345 16.0359 52.1192 16.1139 49.8856C16.1862 47.8168 15.056 45.7962 12.8523 45.7192Z" fill="#1A1A1A"/>
</g>
<g clip-path="url(#clip1_1038_20509)">
<path d="M103.382 29.0641L93.2863 8.35732L87.2689 6.28307L43.5324 27.6253L41.4581 33.6426L51.5543 54.3494L57.5716 56.4236L101.31 35.0886L103.385 29.0713L103.382 29.0641Z" fill="#16FFDD" stroke="#1A1A1A" stroke-miterlimit="10"/>
<path d="M52.9666 28.0098L63.0782 48.7433" stroke="#1A1A1A" stroke-miterlimit="10"/>
<path d="M59.5686 26.9282L88.3649 12.8817" stroke="#1A1A1A" stroke-miterlimit="10"/>
<path d="M63.5994 35.1895L92.3884 21.1451" stroke="#1A1A1A" stroke-miterlimit="10"/>
<path d="M61.5818 31.0634L90.3781 17.0169" stroke="#1A1A1A" stroke-miterlimit="10"/>
<path d="M60.011 62.4575L53.6603 40.3101L56.7456 34.744L103.528 21.3294L109.094 24.4147L115.445 46.5622L112.359 52.1283L65.577 65.5428L60.011 62.4575Z" fill="#16FFDD" stroke="#1A1A1A" stroke-miterlimit="10"/>
<mask id="mask0_1038_20509" style="mask-type:luminance" maskUnits="userSpaceOnUse" x="59" y="31" width="39" height="28">
<path d="M92.8983 31.8754L59.021 41.5896L63.877 58.5246L97.7543 48.8105L92.8983 31.8754Z" fill="white"/>
</mask>
<g mask="url(#mask0_1038_20509)">
<path fill-rule="evenodd" clip-rule="evenodd" d="M93.3673 35.853C92.8236 35.0726 91.4105 35.3686 89.9525 36.2158C86.8255 38.0175 81.808 41.9607 81.808 41.9607L69.5593 41.2832L68.1676 42.4703L75.6701 46.2955L69.4345 50.8611L64.2355 50.1985L62.4181 51.2346L66.0261 53.5862L71.3008 53.6965L91.8188 38.942C93.1251 37.8652 93.8986 36.6447 93.3694 35.8602L93.3673 35.853Z" stroke="#1A1A1A" stroke-miterlimit="10"/>
</g>
<path d="M96.7688 27.9333L103.128 50.1097" stroke="#1A1A1A" stroke-miterlimit="10"/>
<path d="M111.448 45.2505L110.554 45.5069L110.155 44.1154L106.695 45.1077L106.713 45.1726L108.392 45.8303L108.039 46.6961L106.064 45.9284L105.576 44.2269L109.837 43.0052L109.523 41.9093L110.416 41.653L111.446 45.2433L111.448 45.2505Z" fill="#1A1A1A"/>
<path d="M107.82 42.3118C106.133 42.7955 104.971 42.4422 104.582 41.0869C104.193 39.7315 104.992 38.8159 106.679 38.3322C108.366 37.8484 109.528 38.2017 109.917 39.5571C110.306 40.9125 109.507 41.828 107.82 42.3118ZM107.509 39.4048L106.536 39.6839C105.75 39.9092 105.352 40.2341 105.521 40.8253C105.691 41.4165 106.201 41.4809 106.987 41.2556L107.96 40.9765C108.746 40.7512 109.144 40.4263 108.975 39.8351C108.805 39.2439 108.295 39.1795 107.509 39.4048Z" fill="#1A1A1A"/>
<path d="M105.888 38.0207L105.743 38.062C105.404 38.1592 105.092 38.0225 104.966 37.5827C104.84 37.1429 105.032 36.8615 105.371 36.7643L105.515 36.723C105.854 36.6258 106.167 36.7625 106.293 37.2023C106.419 37.6421 106.226 37.9235 105.888 38.0207ZM108.598 37.2434L108.454 37.2847C108.115 37.3819 107.803 37.2452 107.677 36.8054C107.551 36.3656 107.743 36.0842 108.082 35.987L108.226 35.9457C108.565 35.8485 108.877 35.9852 109.003 36.425C109.129 36.8648 108.937 37.1462 108.598 37.2434Z" fill="#1A1A1A"/>
<path d="M104.989 34.4787C104.832 33.9307 104.523 33.7538 104.206 33.8448L104.156 33.8593C103.788 33.9647 103.61 34.2966 103.734 34.7292C103.852 35.1401 104.185 35.4581 104.649 35.606L104.198 36.4842C103.575 36.2417 103.077 35.8383 102.823 34.9515C102.504 33.8413 102.84 32.9725 103.669 32.7348C104.325 32.5466 104.865 32.8758 105.111 33.3824L105.155 33.37C105.087 32.7262 105.38 32.1428 106.087 31.9402C107.009 31.6756 107.835 32.2971 108.17 33.465C108.472 34.5176 108.152 35.171 107.728 35.6515L106.858 35.0116C107.212 34.6682 107.426 34.2713 107.267 33.7162C107.122 33.2115 106.763 32.9945 106.338 33.1165L106.295 33.1289C105.877 33.2488 105.757 33.6496 105.919 34.212L106.053 34.6806L105.13 34.9452L104.992 34.4622L104.989 34.4787Z" fill="#1A1A1A"/>
<path d="M104.833 31.8941C103.146 32.3778 101.983 32.0245 101.595 30.6691C101.206 29.3138 102.005 28.3982 103.692 27.9144C105.379 27.4307 106.541 27.784 106.93 29.1393C107.318 30.4947 106.52 31.4103 104.833 31.8941ZM104.522 28.9871L103.549 29.2662C102.763 29.4915 102.365 29.8164 102.534 30.4076C102.704 30.9988 103.214 31.0632 103.999 30.8379L104.973 30.5588C105.759 30.3334 106.157 30.0085 105.987 29.4174C105.818 28.8262 105.308 28.7618 104.522 28.9871Z" fill="#1A1A1A"/>
</g>
<defs>
<clipPath id="clip0_1038_20509">
<rect width="45.75" height="60.75" fill="white" transform="translate(2.62012 0.920044) rotate(2)"/>
</clipPath>
<clipPath id="clip1_1038_20509">
<rect width="68.3325" height="51.75" fill="white" transform="translate(37.2 20.2344) rotate(-16)"/>
</clipPath>
</defs>
</svg>
