<svg width="315" height="320" viewBox="0 0 315 320" fill="none" xmlns="http://www.w3.org/2000/svg">
<g clip-path="url(#clip0_624_12198)">
<path d="M271.647 86.399C271.193 72.0851 264.015 51.8931 239.616 51.8931L196.592 52.6562C186.98 53.5431 176.193 59.3594 174.316 82.0059L167.242 60.5144L158.373 61.7725L164.024 99.8467C167.242 120.369 180.648 123.153 189.228 115.666L189.063 164.28H250.32L250.031 85.079H254.693L257.972 159.722H268.45C268.45 159.722 271.832 92.2566 271.647 86.3578V86.399Z" fill="#16FFDD"/>
<path d="M239.058 284.731L238.646 310.822H229.385L228.973 284.731" fill="white"/>
<path d="M239.058 284.731L238.646 310.822H229.385L228.973 284.731" stroke="black" stroke-width="1.5" stroke-linecap="round" stroke-linejoin="round"/>
<path d="M210.225 284.731L209.833 310.822H200.573L200.16 284.731" fill="white"/>
<path d="M210.225 284.731L209.833 310.822H200.573L200.16 284.731" stroke="black" stroke-width="1.5" stroke-linecap="round" stroke-linejoin="round"/>
<path d="M200.571 310.843C203.397 309.379 204.696 307.729 204.696 307.729H197.127C197.127 307.729 193.022 313.029 183.308 313.029C173.594 313.029 176.79 322.434 195.25 317.897C200.558 316.59 203.211 316.783 203.211 318.474H209.853V310.822L200.613 310.843H200.571Z" fill="black" stroke="black" stroke-width="1.5" stroke-linecap="round" stroke-linejoin="round"/>
<path d="M238.481 310.843C235.655 309.379 234.356 307.729 234.356 307.729H241.925C241.925 307.729 246.029 313.029 255.744 313.029C265.458 313.029 262.261 322.434 243.802 317.897C238.494 316.59 235.841 316.783 235.841 318.474H229.199V310.822L238.46 310.843H238.481Z" fill="black" stroke="black" stroke-width="1.5" stroke-linecap="round" stroke-linejoin="round"/>
<path d="M222.002 163.867H189.332L198.799 288.547H211.587L216.062 189.195C217.197 189.278 218.372 189.34 219.61 189.34C220.847 189.34 222.023 189.278 223.157 189.195L227.633 288.547H240.421L249.888 163.867H222.023H222.002Z" fill="black"/>
<path d="M263.065 179.006L287.403 219.101L242.543 218.421L263.065 179.006Z" stroke="black" stroke-width="1.5" stroke-linecap="round" stroke-linejoin="round"/>
<path d="M223.878 212.914H307.596C311.04 212.914 313.845 215.719 313.845 219.163V261.342C313.845 264.786 311.04 267.591 307.596 267.591H223.878C220.434 267.591 217.629 264.786 217.629 261.342V219.163C217.629 215.719 220.434 212.914 223.878 212.914Z" fill="white" stroke="black" stroke-width="1.5" stroke-linecap="round" stroke-linejoin="round"/>
<path d="M237.902 222.256H293.569C297.014 222.256 299.819 225.061 299.819 228.506V252.019C299.819 255.463 297.014 258.268 293.569 258.268H237.902C234.457 258.268 231.652 255.463 231.652 252.019V228.506C231.652 225.061 234.457 222.256 237.902 222.256Z" stroke="black" stroke-width="1.5" stroke-linecap="round" stroke-linejoin="round"/>
<path d="M299.819 233.703H231.652" stroke="black" stroke-width="1.5" stroke-linecap="round" stroke-linejoin="round"/>
<path d="M257.826 159.412L258.734 179.893C258.734 179.893 259.352 184.224 262.776 184.224C266.448 184.224 266.922 179.955 266.922 179.851L268.304 159.329" fill="white"/>
<path d="M257.826 159.412L258.734 179.893C258.734 179.893 259.352 184.224 262.776 184.224C266.448 184.224 266.922 179.955 266.922 179.851L268.304 159.329" stroke="black" stroke-width="1.5" stroke-linecap="round" stroke-linejoin="round"/>
<path d="M174.295 81.7373C176.172 59.1321 186.959 53.2952 196.55 52.4289L239.512 51.6658C263.87 51.6658 271.048 71.8166 271.501 86.1099C271.687 91.988 268.325 159.35 268.325 159.35H257.868L254.589 84.8311H249.928L250.237 163.887H189.083L189.393 84.8311" stroke="black" stroke-width="1.5" stroke-linecap="round" stroke-linejoin="round"/>
<path d="M237.409 28.2568C237.512 34.9187 233.902 40.3638 229.344 40.4463C224.786 40.5288 221.012 35.1868 220.908 28.5249C220.805 21.863 224.415 16.4179 228.973 16.3354C233.531 16.2529 237.305 21.5948 237.409 28.2568Z" fill="black" stroke="black" stroke-width="1.5" stroke-linecap="round" stroke-linejoin="round"/>
<path d="M236.56 52.1401L226.289 52.3051L224.886 45.4163C228.393 44.0756 230.682 39.0018 230.641 36.1762L230.352 17.531L207.376 17.9023L207.664 36.5474C207.706 39.3731 209.747 45.3132 213.708 45.6019L212.388 52.532L201.951 52.697C201.951 52.697 203.725 68.8259 219.503 68.5784C235.282 68.3309 236.54 52.1401 236.54 52.1401H236.56Z" fill="white" stroke="black" stroke-width="1.5" stroke-linecap="round" stroke-linejoin="round"/>
<path d="M217.071 8.16767C217.133 12.2721 213.853 15.6546 209.749 15.7165C205.645 15.7784 202.262 12.499 202.2 8.41517C202.138 4.31075 205.397 0.928221 209.522 0.866345C213.626 0.80447 217.009 4.06325 217.071 8.18829V8.16767Z" fill="black" stroke="black" stroke-width="1.5" stroke-linecap="round" stroke-linejoin="round"/>
<path d="M202.2 8.41521C202.2 8.41521 200.447 21.3266 220.124 20.9966L231.344 20.811C231.344 20.811 233.138 -2.66052 202.221 8.39459L202.2 8.41521Z" fill="black" stroke="black" stroke-width="1.5" stroke-linecap="round" stroke-linejoin="round"/>
<path d="M213.876 28.4626C213.876 29.432 213.381 30.2364 212.742 30.257C212.103 30.257 211.566 29.4732 211.566 28.5039C211.566 27.5139 212.061 26.7301 212.701 26.7095C213.34 26.7095 213.876 27.4726 213.897 28.4626H213.876Z" fill="black"/>
<path d="M223.239 28.3186C223.239 29.288 222.744 30.0923 222.104 30.113C221.465 30.113 220.929 29.3498 220.908 28.3598C220.908 27.3698 221.403 26.5861 222.043 26.5654C222.682 26.5654 223.218 27.3286 223.239 28.3186Z" fill="black"/>
<path d="M217.297 39.0232C217.297 39.0232 221.566 41.2094 223.835 37.27" stroke="black" stroke-width="1.5" stroke-linecap="round" stroke-linejoin="round"/>
<path d="M217.381 28.4006C217.381 28.4006 216.288 31.6182 214.596 34.2169C213.256 36.3207 217.69 35.8257 217.69 35.8257" stroke="black" stroke-width="1.5" stroke-linecap="round" stroke-linejoin="round"/>
<path d="M233.486 29.9269C233.486 31.0201 232.641 31.907 231.548 31.9276C230.454 31.9276 229.568 31.0819 229.547 29.9888C229.547 28.9163 230.393 28.0294 231.486 28.0088C232.558 28.0088 233.466 28.8544 233.486 29.9269Z" fill="white"/>
<path d="M174.421 56.4509C175.308 56.3891 175.989 55.6053 175.927 54.7184L174.112 28.9163C174.05 28.0294 173.266 27.3488 172.379 27.4106L159.447 28.3182C158.54 28.38 157.88 29.1638 157.942 30.0507L159.757 55.8528C159.818 56.7397 160.602 57.4203 161.489 57.3584L174.421 56.4509Z" fill="black"/>
<path d="M170.007 31.0613C170.09 31.6388 170.646 32.0307 171.224 31.9482C171.801 31.8451 172.193 31.3088 172.111 30.7313C172.008 30.1538 171.471 29.762 170.894 29.8445C170.316 29.9476 169.925 30.4838 170.007 31.0613Z" fill="#16FFDD"/>
<path d="M167.221 60.2668L164.066 47.6648C169.882 43.9729 166.149 36.3416 159.033 41.7247C155.383 44.4885 156.971 53.708 156.971 53.708L158.621 61.5455" fill="white"/>
<path d="M167.221 60.2668L164.066 47.6648C169.882 43.9729 166.149 36.3416 159.033 41.7247C155.383 44.4885 156.971 53.708 156.971 53.708L158.621 61.5455" stroke="black" stroke-width="1.5" stroke-linecap="round" stroke-linejoin="round"/>
<path d="M179.782 98.382L167.221 60.2666L158.373 61.5247L164.004 99.537C167.221 120.018 180.586 122.802 189.166 115.336" stroke="black" stroke-width="1.5" stroke-linecap="round" stroke-linejoin="round"/>
<path d="M241.473 233.704H237.307V240.242H241.473V233.704Z" stroke="black" stroke-width="1.5" stroke-linecap="round" stroke-linejoin="round"/>
<path d="M58.7523 184.451H53.8848V253.711H58.7523V184.451Z" fill="black"/>
<path d="M80.7202 184.452H75.832V253.711H80.7202V184.452Z" fill="black"/>
<path d="M55.6579 312.637C55.6579 316.226 52.7292 319.134 49.161 319.134C45.5928 319.134 42.6641 316.226 42.6641 312.637C42.6641 309.048 45.5722 306.14 49.161 306.14C52.7498 306.14 55.6579 309.048 55.6579 312.637Z" fill="black"/>
<path d="M79.0898 312.637C79.0898 316.226 81.998 319.134 85.5868 319.134C89.1756 319.134 92.0837 316.226 92.0837 312.637C92.0837 309.048 89.1756 306.14 85.5868 306.14C81.998 306.14 79.0898 309.048 79.0898 312.637Z" fill="black"/>
<path d="M99.9005 304.511C99.9005 309.461 95.8992 313.462 90.9492 313.462H43.6349C38.6849 313.462 34.6836 309.461 34.6836 304.511V227.166C34.6836 222.216 38.6849 218.215 43.6349 218.215H90.9492C95.8992 218.215 99.9005 222.216 99.9005 227.166V304.511Z" fill="white" stroke="black" stroke-width="1.5" stroke-linecap="round" stroke-linejoin="round"/>
<path d="M80.6975 178.47H53.9053C53.4269 178.47 53.0391 178.858 53.0391 179.336V184.451C53.0391 184.93 53.4269 185.318 53.9053 185.318H80.6975C81.1759 185.318 81.5637 184.93 81.5637 184.451V179.336C81.5637 178.858 81.1759 178.47 80.6975 178.47Z" fill="white"/>
<path d="M80.718 179.336V184.472H53.9053V179.336H80.718ZM80.718 177.625H53.9053C52.9565 177.625 52.1934 178.388 52.1934 179.336V184.472C52.1934 185.421 52.9565 186.184 53.9053 186.184H80.718C81.6668 186.184 82.4299 185.421 82.4299 184.472V179.336C82.4299 178.388 81.6668 177.625 80.718 177.625Z" fill="black"/>
<path d="M77.1105 298.199C77.1105 299.911 75.7286 301.293 73.9961 301.293C72.2842 301.293 70.9023 299.911 70.9023 298.199V233.457C70.9023 231.745 72.2842 230.363 73.9961 230.363C75.708 230.363 77.1105 231.765 77.1105 233.457V298.199Z" fill="white" stroke="black" stroke-width="1.5" stroke-linecap="round" stroke-linejoin="round"/>
<path d="M63.7043 298.199C63.7043 299.911 62.3224 301.293 60.5899 301.293C58.878 301.293 57.4961 299.911 57.4961 298.199V233.457C57.4961 231.745 58.878 230.363 60.5899 230.363C62.3018 230.363 63.7043 231.765 63.7043 233.457V298.199Z" fill="white" stroke="black" stroke-width="1.5" stroke-linecap="round" stroke-linejoin="round"/>
<path d="M50.298 298.199C50.298 299.911 48.9161 301.293 47.1836 301.293C45.4717 301.293 44.0898 299.911 44.0898 298.199V233.457C44.0898 231.745 45.4924 230.363 47.1836 230.363C48.8955 230.363 50.298 231.765 50.298 233.457V298.199Z" fill="white" stroke="black" stroke-width="1.5" stroke-linecap="round" stroke-linejoin="round"/>
<path d="M84.3281 298.199C84.3281 299.911 85.71 301.293 87.4425 301.293C89.1544 301.293 90.5363 299.911 90.5363 298.199V233.457C90.5363 231.745 89.1544 230.363 87.4425 230.363C85.7306 230.363 84.3281 231.765 84.3281 233.457V298.199Z" fill="white" stroke="black" stroke-width="1.5" stroke-linecap="round" stroke-linejoin="round"/>
<path d="M124.322 51.4186L96.2922 59.9162C80.9883 40.8172 53.9693 34.1966 31.1166 45.4992C4.71631 58.5343 -6.11192 90.4827 6.94383 116.883C19.979 143.263 51.948 154.091 78.3277 141.056C104.295 128.227 115.185 97.0415 103.057 70.9094L124.301 51.4392L124.322 51.4186Z" fill="white" stroke="black" stroke-width="1.5" stroke-linecap="round" stroke-linejoin="round"/>
<path d="M50.1752 114.552H33.7988V77.7158H41.987H66.5516H74.7192V94.0922" fill="white"/>
<path d="M50.1752 114.552H33.7988V77.7158H41.987H66.5516H74.7192V94.0922" stroke="black" stroke-width="1.5" stroke-linecap="round" stroke-linejoin="round"/>
<path d="M76.7823 106.364C76.7823 113.15 71.296 118.636 64.5103 118.636C57.7246 118.636 52.2383 113.129 52.2383 106.364C52.2383 99.5992 57.7246 94.0923 64.5103 94.0923C71.296 94.0923 76.7823 99.5992 76.7823 106.364Z" fill="white" stroke="black" stroke-width="1.5" stroke-linecap="round" stroke-linejoin="round"/>
<path d="M33.7988 85.9041H74.7192" stroke="black" stroke-width="1.5" stroke-linecap="round" stroke-linejoin="round"/>
<path d="M37.9043 92.0503H48.155" stroke="black" stroke-width="1.5" stroke-linecap="round" stroke-linejoin="round"/>
<path d="M37.9043 96.1335H48.155" stroke="black" stroke-width="1.5" stroke-linecap="round" stroke-linejoin="round"/>
<path d="M37.9043 100.239H48.155" stroke="black" stroke-width="1.5" stroke-linecap="round" stroke-linejoin="round"/>
<path d="M70.6365 102.363L61.4377 110.901L57.457 106.013" fill="white"/>
<path d="M70.6365 102.363L61.4377 110.901L57.457 106.013" stroke="black" stroke-width="1.5" stroke-linecap="round" stroke-linejoin="round"/>
<path d="M47.1005 73.6321H45.0586V81.8203H47.1005V73.6321Z" fill="black" stroke="black" stroke-width="1.5" stroke-linecap="round" stroke-linejoin="round"/>
<path d="M63.4774 73.6321H61.4355V81.8203H63.4774V73.6321Z" fill="black" stroke="black" stroke-width="1.5" stroke-linecap="round" stroke-linejoin="round"/>
</g>
<defs>
<clipPath id="clip0_624_12198">
<rect width="314.142" height="320" fill="white" transform="translate(0.548828)"/>
</clipPath>
</defs>
</svg>
